<?xml version="1.0" encoding="utf-8"?>
<svg version="1.1" xmlns:xlink="http://www.w3.org/1999/xlink" width="26px" height="32px" xmlns="http://www.w3.org/2000/svg">
  <g transform="matrix(1 0 0 1 -183 -586 )">
    <path d="M 19.415138888888897 0.3555555555555564  L 19.395277777777782 0.35555555555555574  L 6.594791666666668 0.35555555555555574  C 2.999930555555557 0.35555555555555574  0.08034722222222396 3.230222222222222  0 6.769777777777778  L 0 22.443555555555555  C 0.08034722222222396 24.624000000000002  1.8877083333333355 26.403555555555556  4.102222222222224 26.403555555555556  L 5.075416666666669 26.403555555555556  L 2.165763888888891 30.070222222222224  C 1.8281250000000029 30.49066666666667  1.9075694444444466 31.106666666666673  2.334583333333336 31.43911111111111  C 2.513333333333335 31.576000000000004  2.7318055555555585 31.644444444444446  2.9502777777777798 31.644444444444446  C 3.2481944444444473 31.644444444444446  3.5361805555555583 31.517333333333333  3.734791666666669 31.27288888888889  L 4.717916666666669 30  L 21.292013888888896 30  L 22.27513888888889 31.27288888888889  C 22.473750000000003 31.517333333333333  22.76173611111111 31.644444444444446  23.059652777777778 31.644444444444446  C 23.268194444444443 31.644444444444446  23.486666666666665 31.576000000000004  23.675347222222225 31.43911111111111  C 24.112291666666668 31.106666666666666  24.18180555555556 30.49066666666667  23.84416666666667 30.070222222222224  L 20.934513888888894 26.403555555555556  L 21.90770833333334 26.403555555555556  C 24.122222222222227 26.403555555555556  25.92958333333334 24.624000000000002  26 22.443555555555555  L 26 6.769777777777779  C 25.92958333333334 3.2302222222222228  23.010000000000005 0.3555555555555564  19.415138888888897 0.3555555555555564  Z M 7.9950000000000045 22.355555555555558  C 6.912569444444449 22.355555555555558  6.038680555555558 21.47555555555556  6.038680555555558 20.400000000000002  C 6.038680555555558 19.314666666666668  6.912569444444449 18.444444444444446  7.9950000000000045 18.444444444444446  C 9.07743055555556 18.444444444444446  9.95131944444445 19.324444444444445  9.95131944444445 20.400000000000002  C 9.95131944444445 21.47555555555556  9.07743055555556 22.355555555555558  7.9950000000000045 22.355555555555558  Z M 18.412152777777777 26.452444444444446  L 18.422083333333337 26.45244444444445  L 19.722986111111112 28  L 6.257152777777778 28  L 7.558055555555557 26.452444444444446  C 7.558055555555557 26.452444444444446  7.567986111111112 26.42311111111111  7.577916666666666 26  L 18.39229166666667 26  C 18.39229166666667 26.403555555555556  18.40222222222223 26.43288888888889  18.412152777777777 26.452444444444446  Z M 19.95138888888889 20.409777777777784  C 19.95138888888889 21.485333333333337  19.077500000000004 22.365333333333336  17.99506944444445 22.365333333333336  C 16.912638888888893 22.365333333333336  16.038750000000004 21.485333333333337  16.038750000000004 20.409777777777784  C 16.038750000000004 19.334222222222223  16.912638888888893 18.454222222222224  17.99506944444445 18.454222222222224  C 19.077500000000004 18.454222222222224  19.95138888888889 19.334222222222223  19.95138888888889 20.409777777777784  Z M 23.764722222222225 14.47466666666667  L 23.75479166666667 14.47466666666667  C 23.75479166666667 15.139555555555557  23.208611111111114 15.687111111111113  22.523402777777786 16  L 3.4666666666666672 16  C 2.791388888888891 15.687111111111113  2.235277777777778 15.149333333333335  2.235277777777778 14.47466666666667  L 2.235277777777778 8.422222222222222  C 2.235277777777778 7.757333333333333  2.7814583333333336 7.209777777777778  3.4666666666666672 7.209777777777778  L 22.533333333333335 7.209777777777778  C 23.208611111111114 7.209777777777778  23.764722222222225 7.747555555555557  23.764722222222225 8.422222222222222  L 23.764722222222225 14.47466666666667  Z " fill-rule="nonzero" fill="#e62860" stroke="none" transform="matrix(1 0 0 1 183 586 )" />
  </g>
</svg>