<?xml version="1.0" encoding="utf-8"?>
<svg version="1.1" xmlns:xlink="http://www.w3.org/1999/xlink" width="32px" height="30px" xmlns="http://www.w3.org/2000/svg">
  <g transform="matrix(1 0 0 1 -310 -453 )">
    <path d="M 25.020000000000003 0  L 25 0  L 7 0  C 4.79 0  3 1.79  3 4  L 3 22  C 3 24.03  4.52 25.69  6.48 25.95  L 6.48 27.71  C 6.48 28.43  7.0600000000000005 29.01  7.78 29.01  L 11.23 29.01  C 11.950000000000001 29.01  12.530000000000001 28.430000000000003  12.530000000000001 27.71  L 12.530000000000001 26.01  L 19.490000000000002 26.01  L 19.490000000000002 27.71  C 19.490000000000002 28.43  20.07 29.01  20.790000000000003 29.01  L 24.240000000000002 29.01  C 24.96 29.01  25.540000000000003 28.430000000000003  25.540000000000003 27.71  L 25.540000000000003 25.95  C 27.500000000000004 25.689999999999998  29.020000000000003 24.03  29 22  L 29 4  C 29.020000000000003 1.79  27.230000000000004 0  25.020000000000003 0  Z M 9.030000000000001 18.02  C 10.57 17.65  11.920000000000002 19  11.55 20.54  C 11.38 21.259999999999998  10.780000000000001 21.849999999999998  10.06 22.029999999999998  C 8.52 22.4  7.17 21.049999999999997  7.540000000000001 19.509999999999998  C 7.710000000000001 18.79  8.31 18.2  9.030000000000001 18.02  Z M 22.03 18.02  C 23.57 17.65  24.92 19  24.55 20.54  C 24.38 21.259999999999998  23.78 21.849999999999998  23.060000000000002 22.029999999999998  C 21.520000000000003 22.4  20.17 21.049999999999997  20.540000000000003 19.509999999999998  C 20.710000000000004 18.79  21.310000000000002 18.2  22.03 18.02  Z M 24.61 5.759999999999998  L 24.61 13.759999999999998  C 24.61 14.539999999999997  23.98 15.179999999999996  23.189999999999998 15  L 8.899999999999999 15  C 8.12 15.179999999999996  7.479999999999999 14.549999999999997  7.479999999999999 13.759999999999998  L 7.479999999999999 5.759999999999998  C 7.479999999999999 4.979999999999998  8.11 4.339999999999998  8.899999999999999 4.339999999999998  L 23.189999999999998 4.339999999999998  C 23.97 4.339999999999998  24.61 4.969999999999998  24.61 5.759999999999998  Z M 1 5.13  C 1.55 5.13  2 5.58  2 6.13  L 2 10.75  C 2 11.3  1.55 11.75  1 11.75  C 0.44999999999999996 11.75  0 11.3  0 10.75  L 0 6.13  C 0 5.58  0.45 5.13  1 5.13  Z M 31 5.13  C 31.55 5.13  32 5.58  32 6.13  L 32 10.75  C 32 11.3  31.55 11.75  31 11.75  C 30.45 11.75  30 11.3  30 10.75  L 30 6.13  C 30 5.58  30.45 5.13  31 5.13  Z " fill-rule="nonzero" fill="#4c98de" stroke="none" transform="matrix(1 0 0 1 310 453 )" />
  </g>
</svg>