<?xml version="1.0" encoding="utf-8"?>
<svg version="1.1" xmlns:xlink="http://www.w3.org/1999/xlink" width="8px" height="10px" xmlns="http://www.w3.org/2000/svg">
  <g transform="matrix(1 0 0 1 -62 -462 )">
    <path d="M 4.410000000000004 0.7500000000000018  L 4.43 0.75  C 4.32 0.6999999999999993  4.16 0.6300000000000008  4 0.6400000000000006  C 3.84 0.6400000000000006  3.6799999999999997 0.7000000000000011  3.5700000000000003 0.75  C 2.7600000000000016 1.1099999999999994  1.0199999999999996 1.879999999999999  0.5999999999999996 2.0999999999999996  C 0.33999999999999986 2.2300000000000004  0.23000000000000043 2.4299999999999997  0.2400000000000002 2.709999999999999  C 0.33000000000000007 4  0.8000000000000007 7.829999999999998  3.6000000000000014 9.18  C 3.740000000000002 9.25  3.870000000000001 9.27  3.990000000000002 9.27  C 4.110000000000003 9.27  4.2500000000000036 9.25  4.380000000000003 9.18  C 7.190000000000001 7.829999999999998  7.660000000000004 4  7.740000000000002 2.710000000000001  C 7.760000000000002 2.4400000000000013  7.650000000000002 2.24  7.380000000000003 2.1000000000000014  C 6.960000000000001 1.8900000000000006  5.220000000000002 1.1100000000000012  4.410000000000004 0.7500000000000018  Z " fill-rule="nonzero" fill="#01498b" stroke="none" transform="matrix(1 0 0 1 62 462 )" />
  </g>
</svg>