<?xml version="1.0" encoding="utf-8"?>
<svg version="1.1" xmlns:xlink="http://www.w3.org/1999/xlink" width="33px" height="14px" xmlns="http://www.w3.org/2000/svg">
  <g transform="matrix(1 0 0 1 -50 -453 )">
    <path d="M 31.379999999999995 10.960000000000003  C 32.459999999999994 9.660000000000002  32.13999999999999 7.700000000000002  30.700000000000003 6.8100000000000005  L 25.020000000000003 3.280000000000001  C 19.500000000000004 -0.14999999999999902  12.500000000000004 -0.14999999999999902  6.980000000000004 3.280000000000001  L 1.3300000000000036 6.790000000000001  C -0.11999999999999633 7.690000000000001  -0.4299999999999964 9.66  0.6700000000000035 10.96  L 2.950000000000003 13.66  C 2.950000000000003 13.66  7.720000000000002 12.45  10.270000000000003 12.149999999999999  C 10.600000000000001 12.11  10.820000000000004 11.799999999999999  10.760000000000003 11.479999999999999  C 10.640000000000004 10.749999999999998  10.570000000000004 10.839999999999998  10.540000000000003 10.399999999999999  C 10.510000000000003 9.999999999999998  10.670000000000003 9.709999999999999  11.060000000000002 9.519999999999998  C 11.670000000000002 9.209999999999997  14.190000000000001 8.079999999999998  15.370000000000001 7.559999999999999  C 15.530000000000001 7.489999999999998  15.77 7.379999999999998  16 7.399999999999999  C 16.23 7.389999999999999  16.47 7.489999999999998  16.63 7.559999999999999  C 17.81 8.079999999999998  20.33 9.209999999999999  20.939999999999998 9.52  C 21.319999999999997 9.709999999999999  21.479999999999997 10  21.459999999999997 10.4  C 21.429999999999996 10.83  21.369999999999997 10.74  21.249999999999996 11.47  C 21.189999999999998 11.8  21.409999999999997 12.100000000000001  21.739999999999995 12.14  C 24.189999999999994 12.43  29.289999999999996 13.490000000000002  29.289999999999996 13.490000000000002  L 31.379999999999995 10.960000000000003  Z " fill-rule="nonzero" fill="#01498b" stroke="none" transform="matrix(1 0 0 1 50 453 )" />
  </g>
</svg>