<?xml version="1.0" encoding="utf-8"?>
<svg version="1.1" xmlns:xlink="http://www.w3.org/1999/xlink" width="8px" height="8px" xmlns="http://www.w3.org/2000/svg">
  <g transform="matrix(1 0 0 1 -32 -17 )">
    <path d="M 0.43333333333333396 3.9422222222222225  C 0.43333333333333396 5.908888888888888  2.0333333333333345 7.5088888888888885  4 7.5088888888888885  C 5.966666666666665 7.5088888888888885  7.566666666666669 5.908888888888888  7.566666666666669 3.9422222222222225  C 7.566666666666669 1.9755555555555557  5.966666666666669 0.37555555555555586  4 0.37555555555555586  C 2.0333333333333314 0.37555555555555586  0.43333333333333396 1.9755555555555557  0.43333333333333396 3.9422222222222225  Z M 1.7666666666666673 3.9355555555555544  C 1.7666666666666673 2.7022222222222214  2.7666666666666657 1.7022222222222214  4 1.7022222222222214  C 5.233333333333334 1.7022222222222214  6.233333333333336 2.7022222222222214  6.233333333333336 3.9355555555555544  C 6.233333333333336 5.168888888888887  5.233333333333334 6.168888888888887  4 6.168888888888887  C 2.7666666666666657 6.168888888888887  1.7666666666666673 5.168888888888887  1.7666666666666673 3.9355555555555544  Z " fill-rule="nonzero" fill="#4a4a4a" stroke="none" transform="matrix(1 0 0 1 32 17 )" />
  </g>
</svg>