<?xml version="1.0" encoding="utf-8"?>
<svg version="1.1" xmlns:xlink="http://www.w3.org/1999/xlink" width="24px" height="24px" xmlns="http://www.w3.org/2000/svg">
  <g transform="matrix(1 0 0 1 -24 -13 )">
    <path d="M 23.52 3.3600000000000003  C 23.52 1.7688000000000004  22.231199999999998 0.48  20.64 0.48  L 3.3600000000000003 0.48  C 1.7688000000000004 0.48  0.48 1.7688000000000004  0.48 3.3600000000000003  L 0.48 20.64  C 0.48 22.231199999999998  1.7688000000000004 23.52  3.3600000000000003 23.52  L 20.64 23.52  C 22.231199999999998 23.52  23.52 22.231199999999998  23.52 20.64  L 23.52 3.3600000000000003  Z M 22 3.3600000000000003  L 22 20.64  C 22.080000000000002 21.432000000000002  21.432000000000002 22.080000000000002  20.64 22  L 3.3600000000000003 22  C 2.5680000000000005 22.080000000000002  1.92 21.432000000000002  2 20.64  L 2 3.3600000000000003  C 1.92 2.5680000000000005  2.5680000000000005 1.92  3.3600000000000003 2  L 20.64 2  C 21.432000000000002 1.92  22.080000000000002 2.5680000000000005  22 3.3600000000000003  Z " fill-rule="nonzero" fill="#4a4a4a" stroke="none" transform="matrix(1 0 0 1 24 13 )" />
  </g>
</svg>