<?xml version="1.0" encoding="utf-8"?>
<svg version="1.1" xmlns:xlink="http://www.w3.org/1999/xlink" width="12px" height="8px" xmlns="http://www.w3.org/2000/svg">
  <g transform="matrix(1 0 0 1 -30 -26 )">
    <path d="M 11.53153846153846 6.835000000000001  C 11.53153846153846 3.5350000000000037  9.053076923076928 0.8424999999999994  6 0.8424999999999994  C 2.953846153846153 0.8424999999999994  0.46846153846153876 3.5274999999999963  0.46846153846153876 6.835000000000001  C 0.46846153846153876 7.247500000000002  0.779999999999999 7.585000000000001  1.160769230769231 7.585000000000001  C 1.5415384615384615 7.585000000000001  1.8530769230769233 7.247500000000002  1.8530769230769233 6.835000000000001  C 1.8530769230769233 4.359999999999999  3.715384615384614 2.342500000000001  6 2.342500000000001  C 8.284615384615385 2.342500000000001  10.146923076923077 4.359999999999999  10.146923076923077 6.835000000000001  C 10.146923076923077 7.247500000000002  10.45846153846154 7.585000000000001  10.839230769230769 7.585000000000001  C 11.22 7.585000000000001  11.53153846153846 7.247500000000002  11.53153846153846 6.835000000000001  Z " fill-rule="nonzero" fill="#4a4a4a" stroke="none" transform="matrix(1 0 0 1 30 26 )" />
  </g>
</svg>