<?xml version="1.0" encoding="utf-8"?>
<svg version="1.1" xmlns:xlink="http://www.w3.org/1999/xlink" width="8px" height="5px" xmlns="http://www.w3.org/2000/svg">
  <g transform="matrix(1 0 0 1 -357 -41 )">
    <path d="M 7.67111111111111 1.516666666666667  C 7.67111111111111 1.058333333333333  7.271111111111111 0.6833333333333336  6.782222222222221 0.6833333333333336  C 6.293333333333332 0.6833333333333336  5.893333333333333 1.058333333333333  5.893333333333333 1.516666666666667  C 5.893333333333333 2.5166666666666666  5.022222222222221 3.333333333333333  3.955555555555555 3.333333333333333  C 2.888888888888889 3.333333333333333  2.0177777777777774 2.5166666666666666  2.0177777777777774 1.516666666666667  C 2.0177777777777774 1.058333333333333  1.617777777777778 0.6833333333333336  1.1288888888888886 0.6833333333333336  C 0.639999999999999 0.6833333333333336  0.23999999999999963 1.058333333333333  0.23999999999999963 1.516666666666667  C 0.23999999999999963 3.441666666666669  1.9111111111111099 5  3.955555555555555 5  C 6 5  7.67111111111111 3.433333333333331  7.67111111111111 1.516666666666667  Z " fill-rule="nonzero" fill="#000000" stroke="none" transform="matrix(1 0 0 1 357 41 )" />
  </g>
</svg>