<?xml version="1.0" encoding="utf-8"?>
<svg version="1.1" xmlns:xlink="http://www.w3.org/1999/xlink" width="25px" height="23px" xmlns="http://www.w3.org/2000/svg">
  <g transform="matrix(1 0 0 1 -348 -18 )">
    <path d="M 24.955357142857142 18.240769230769235  C 24.955357142857142 17.444615384615393  24.75 16.66615384615385  24.357142857142858 15.97615384615385  L 22.714285714285715 13.110000000000001  C 22.47321428571429 12.694230769230773  22.34821428571429 12.225384615384618  22.34821428571429 11.738846153846154  L 22.34821428571429 9.642307692307693  C 22.34821428571429 4.325769230769231  18.107142857142858 0  12.901785714285715 0  C 7.696428571428575 0  3.455357142857143 4.325769230769232  3.455357142857143 9.642307692307694  L 3.455357142857143 11.738846153846154  C 3.455357142857143 12.216538461538462  3.3303571428571432 12.694230769230773  3.0892857142857144 13.110000000000001  L 1.4464285714285716 15.97615384615385  C 1.0535714285714284 16.657307692307697  0.8482142857142858 17.444615384615393  0.8482142857142858 18.240769230769235  C 0.8482142857142858 20.708846153846157  2.8125000000000004 22.716923076923077  5.232142857142857 22.716923076923077  L 20.57142857142857 22.716923076923077  C 22.991071428571427 22.716923076923077  24.955357142857142 20.708846153846157  24.955357142857142 18.240769230769235  Z M 20.571428571428573 20.95653846153846  L 20.57142857142857 21  L 5.232142857142857 21  C 3.7678571428571415 20.947692307692307  2.580357142857142 19.735769230769233  2.580357142857142 18.240769230769235  C 2.580357142857142 17.763076923076927  2.7053571428571415 17.285384615384615  2.9464285714285703 16.869615384615386  L 4.5892857142857135 14.003461538461538  C 4.982142857142856 13.313461538461537  5.187499999999999 12.535  5.187499999999999 11.747692307692308  L 5.187499999999999 9.651153846153845  C 5.187499999999999 5.307692307692306  8.651785714285712 1.7780769230769213  12.901785714285714 1.7780769230769213  C 17.151785714285715 1.7780769230769213  20.616071428571427 5.307692307692306  20.616071428571427 9.651153846153845  L 20.616071428571427 11.747692307692308  C 20.616071428571427 12.543846153846154  20.821428571428573 13.322307692307692  21.214285714285715 14.01230769230769  L 22.857142857142858 16.878461538461536  C 23.098214285714285 17.294230769230765  23.223214285714285 17.763076923076923  23.223214285714285 18.249615384615385  C 23.223214285714285 19.744615384615386  22.035714285714285 20.95653846153846  20.571428571428573 20.95653846153846  Z " fill-rule="nonzero" fill="#000000" stroke="none" transform="matrix(1 0 0 1 348 18 )" />
  </g>
</svg>