<?xml version="1.0" encoding="utf-8"?>
<svg version="1.1" xmlns:xlink="http://www.w3.org/1999/xlink" width="24px" height="18px" xmlns="http://www.w3.org/2000/svg">
  <g transform="matrix(1 0 0 1 -24 -15 )">
    <path d="M 20.835 18  L 20.8425 18  L 3.1574999999999998 18  C 1.4175 18  0 16.6575  0 15  L 0 3  C 0 1.3425  1.4174999999999998 0  3.1574999999999998 0  L 9.8025 0  C 10.305 0  10.785 0.18000000000000016  11.145 0.5099999999999998  L 14.3025 3.375  C 14.392500000000002 3.4574999999999996  14.512500000000001 3.5025  14.64 3.5025  L 20.835 3.5025  C 22.575000000000003 3.5025  23.9925 4.845000000000001  23.9925 6.5025  L 23.9925 15  C 23.9925 16.6575  22.575000000000003 18  20.835 18  Z M 3.1574999999999998 1.4925000000000002  L 3.1574999999999998 1.5  C 2.2425 1.5  1.5 2.1750000000000003  1.5 3  L 1.5 15  C 1.5 15.825000000000001  2.2425 16.5  3.1574999999999998 16.5  L 20.835 16.5  C 21.75 16.5  22.4925 15.825000000000001  22.4925 15  L 22.4925 6.5025  C 22.4925 5.6775  21.750000000000004 5.0024999999999995  20.835 5.0024999999999995  L 14.640000000000002 5.0024999999999995  C 14.137500000000001 5.0024999999999995  13.657500000000002 4.8225  13.297500000000003 4.485  L 10.140000000000002 1.62  C 10.050000000000002 1.5450000000000004  9.930000000000003 1.4925000000000002  9.802500000000002 1.4925000000000002  L 3.1574999999999998 1.4925000000000002  Z " fill-rule="nonzero" fill="#4a4a4a" stroke="none" transform="matrix(1 0 0 1 24 15 )" />
  </g>
</svg>