<?xml version="1.0" encoding="utf-8"?>
<svg version="1.1" xmlns:xlink="http://www.w3.org/1999/xlink" width="24px" height="24px" xmlns="http://www.w3.org/2000/svg">
  <g transform="matrix(1 0 0 1 -25 -13 )">
    <path d="M 20.574545454545454 23.62909090909091  L 20.574545454545454 23.636363636363633  L 17.818181818181817 23.636363636363633  C 16.13090909090909 23.636363636363633  14.756363636363634 22.26181818181818  14.756363636363634 20.574545454545454  L 14.756363636363634 16.690909090909088  C 14.756363636363634 16.23272727272727  14.385454545454543 15.861818181818181  13.927272727272726 15.861818181818181  L 10.123636363636361 15.861818181818181  C 9.665454545454542 15.861818181818181  9.294545454545451 16.23272727272727  9.294545454545451 16.690909090909088  L 9.294545454545451 20.574545454545454  C 9.294545454545451 22.26181818181818  7.919999999999998 23.636363636363633  6.232727272727271 23.636363636363633  L 3.439999999999997 23.636363636363633  C 1.7527272727272707 23.636363636363633  0.3781818181818158 22.26181818181818  0.3781818181818158 20.574545454545454  L 0.3781818181818158 9.374545454545453  C 0.3781818181818158 8.47272727272727  0.8145454545454522 7.62181818181818  1.549090909090907 7.090909090909088  L 10.334545454545454 0.9018181818181819  C 11.323636363636362 0.1890909090909091  12.669090909090908 0.1818181818181819  13.672727272727272 0.9018181818181819  L 22.458181818181817 7.076363636363636  C 23.200000000000003 7.614545454545455  23.636363636363633 8.465454545454545  23.636363636363633 9.367272727272727  L 23.636363636363633 20.567272727272726  C 23.636363636363633 22.254545454545454  22.26181818181818 23.62909090909091  20.574545454545454 23.62909090909091  Z M 10.109090909090908 14.399999999999999  L 10.116363636363635 14.407272727272728  L 13.919999999999998 14.407272727272728  C 15.17818181818182 14.407272727272728  16.203636363636363 15.432727272727274  16.203636363636363 16.69090909090909  L 16.203636363636363 20.574545454545454  C 16.203636363636363 21.46181818181818  16.923636363636362 22.18181818181818  17.810909090909092 22.18181818181818  L 20.567272727272726 22.18181818181818  C 21.454545454545453 22.18181818181818  22.174545454545456 21.46181818181818  22 20.574545454545454  L 22 9.374545454545453  C 22.174545454545456 8.938181818181816  21.963636363636365 8.53090909090909  21.607272727272726 8.269090909090908  L 12.821818181818184 2.0945454545454534  C 12.327272727272728 1.738181818181817  11.665454545454548 1.738181818181817  11.170909090909094 2.0945454545454534  L 2.378181818181818 8.269090909090908  C 2.0290909090909084 8.523636363636363  1.8181818181818175 8.93090909090909  2 9.367272727272727  L 2 20.567272727272726  C 1.8181818181818175 21.454545454545453  2.5381818181818177 22.174545454545456  3.425454545454544 22.174545454545456  L 6.218181818181817 22.174545454545456  C 7.105454545454545 22.174545454545456  7.825454545454544 21.454545454545457  7.825454545454544 20.567272727272726  L 7.825454545454544 16.683636363636364  C 7.825454545454544 15.425454545454546  8.85090909090909 14.399999999999999  10.109090909090908 14.399999999999999  Z " fill-rule="nonzero" fill="#01498b" stroke="none" transform="matrix(1 0 0 1 25 13 )" />
  </g>
</svg>