<?xml version="1.0" encoding="utf-8"?>
<svg version="1.1" xmlns:xlink="http://www.w3.org/1999/xlink" width="9px" height="9px" xmlns="http://www.w3.org/2000/svg">
  <g transform="matrix(1 0 0 1 -23 -14 )">
    <path d="M 8.906666666666666 1  C 8.906666666666666 0.6333333333333333  8.606666666666666 0.33333333333333326  8.239999999999998 0.33333333333333326  L 3.139999999999999 0.33333333333333326  C 1.5933333333333333 0.33333333333333326  0.33333333333333326 1.5933333333333333  0.33333333333333326 3.1399999999999997  L 0.33333333333333326 7.893333333333333  C 0.33333333333333326 8.26  0.6333333333333333 8.559999999999999  1 8.559999999999999  C 1.3666666666666663 8.559999999999999  1.6666666666666665 8.26  1.6666666666666665 7.893333333333333  L 1.6666666666666665 3.1399999999999997  C 1.6666666666666665 2.3266666666666667  2.3266666666666667 1.6666666666666665  3.1399999999999997 1.6666666666666665  L 8.239999999999998 1.6666666666666665  C 8.606666666666666 1.6666666666666665  8.906666666666666 1.3666666666666663  8.906666666666666 1  Z " fill-rule="nonzero" fill="#4a4a4a" stroke="none" transform="matrix(1 0 0 1 23 14 )" />
  </g>
</svg>