<?xml version="1.0" encoding="utf-8"?>
<svg version="1.1" xmlns:xlink="http://www.w3.org/1999/xlink" width="9px" height="9px" xmlns="http://www.w3.org/2000/svg">
  <g transform="matrix(1 0 0 1 -36 -14 )">
    <path d="M 8.666666666666664 3.139999999999999  C 8.666666666666664 1.5933333333333328  7.406666666666666 0.3333333333333326  5.859999999999999 0.33333333333333326  L 0.7599999999999998 0.33333333333333326  C 0.39333333333333265 0.33333333333333326  0.09333333333333371 0.6333333333333333  0.09333333333333371 1  C 0.09333333333333371 1.3666666666666663  0.39333333333333265 1.6666666666666665  0.7599999999999998 1.6666666666666665  L 5.859999999999999 1.6666666666666665  C 6.673333333333332 1.6666666666666665  7.333333333333332 2.3266666666666667  7.333333333333332 3.1399999999999997  L 7.333333333333332 8.239999999999998  C 7.333333333333332 8.606666666666666  7.633333333333333 8.906666666666666  8 8.906666666666666  C 8.366666666666664 8.906666666666666  8.666666666666664 8.606666666666666  8.666666666666664 8.239999999999998  L 8.666666666666664 3.139999999999999  Z " fill-rule="nonzero" fill="#4a4a4a" stroke="none" transform="matrix(1 0 0 1 36 14 )" />
  </g>
</svg>