<?xml version="1.0" encoding="utf-8"?>
<svg version="1.1" xmlns:xlink="http://www.w3.org/1999/xlink" width="9px" height="9px" xmlns="http://www.w3.org/2000/svg">
  <g transform="matrix(1 0 0 1 -36 -26 )">
    <path d="M 8.666666666666664 1.099999999999996  C 8.666666666666664 0.733333333333329  8.366666666666664 0.43333333333333  8 0.4333333333333318  C 7.633333333333333 0.4333333333333318  7.333333333333332 0.7333333333333307  7.333333333333332 1.0999999999999979  L 7.333333333333332 5.853333333333332  C 7.333333333333332 6.666666666666664  6.673333333333332 7.326666666666664  5.859999999999999 7.326666666666664  L 0.7599999999999998 7.326666666666664  C 0.39333333333333265 7.326666666666664  0.09333333333333371 7.626666666666665  0.09333333333333371 7.993333333333329  C 0.09333333333333371 8.359999999999992  0.39333333333333265 8.659999999999997  0.7599999999999998 8.659999999999997  L 5.859999999999999 8.659999999999997  C 7.406666666666666 8.659999999999997  8.666666666666664 7.399999999999995  8.666666666666664 5.853333333333328  L 8.666666666666664 1.099999999999996  Z " fill-rule="nonzero" fill="#4a4a4a" stroke="none" transform="matrix(1 0 0 1 36 26 )" />
  </g>
</svg>