<?xml version="1.0" encoding="utf-8"?>
<svg version="1.1" xmlns:xlink="http://www.w3.org/1999/xlink" width="9px" height="9px" xmlns="http://www.w3.org/2000/svg">
  <g transform="matrix(1 0 0 1 -23 -26 )">
    <path d="M 8.906666666666666 8  C 8.906666666666666 7.633333333333333  8.606666666666666 7.333333333333332  8.239999999999998 7.333333333333332  L 3.139999999999999 7.333333333333332  C 2.326666666666666 7.333333333333332  1.666666666666666 6.673333333333332  1.666666666666666 5.859999999999999  L 1.666666666666666 0.7599999999999998  C 1.666666666666666 0.39333333333333265  1.3666666666666658 0.09333333333333371  0.9999999999999993 0.09333333333333371  C 0.6333333333333329 0.09333333333333371  0.3333333333333326 0.39333333333333265  0.3333333333333326 0.7599999999999998  L 0.3333333333333326 5.859999999999999  C 0.3333333333333326 7.406666666666666  1.5933333333333324 8.666666666666664  3.139999999999999 8.666666666666664  L 8.239999999999998 8.666666666666664  C 8.606666666666666 8.666666666666664  8.906666666666666 8.366666666666664  8.906666666666666 8  Z " fill-rule="nonzero" fill="#4a4a4a" stroke="none" transform="matrix(1 0 0 1 23 26 )" />
  </g>
</svg>