<svg width="30" height="30" viewBox="0 0 30 30" fill="none" xmlns="http://www.w3.org/2000/svg">
<circle cx="15" cy="15" r="14" stroke="#515257" stroke-width="2"/>
<path d="M14.4766 18.0675C14.3978 18.0784 14.3172 18.0787 14.2383 18.0687V18.0687C13.7625 18.008 13.3947 17.599 13.439 17.1213C13.4777 16.7038 13.5436 16.3488 13.6366 16.0564C13.7911 15.5844 14.0099 15.2025 14.2931 14.9108C14.5763 14.619 14.9174 14.3529 15.3165 14.1126C15.574 13.9496 15.8057 13.7672 16.0116 13.5655C16.2176 13.3639 16.3807 13.1322 16.5008 12.8704C16.6209 12.6087 16.681 12.319 16.681 12.0015C16.681 11.6196 16.5909 11.2892 16.4107 11.0103C16.2305 10.7314 15.9902 10.5168 15.6898 10.3666C15.3937 10.2122 15.0633 10.1349 14.6986 10.1349C14.3682 10.1349 14.0528 10.2036 13.7524 10.3409C13.4521 10.4782 13.2032 10.6927 13.0058 10.9845C12.9592 11.0524 12.9173 11.1249 12.88 11.2021C12.6532 11.6718 12.2592 12.098 11.7376 12.098V12.098C11.1756 12.098 10.7086 11.6232 10.8616 11.0824C10.9598 10.7353 11.1038 10.4217 11.2937 10.1414C11.6542 9.60499 12.1305 9.19949 12.7226 8.92487C13.3191 8.65025 13.9777 8.51294 14.6986 8.51294C15.4881 8.51294 16.179 8.66098 16.7711 8.95705C17.3633 9.24884 17.8224 9.65862 18.1485 10.1864C18.4789 10.7099 18.6441 11.3214 18.6441 12.0208C18.6441 12.5014 18.569 12.9348 18.4189 13.321C18.2687 13.7029 18.0541 14.044 17.7752 14.3443C17.5006 14.6447 17.1702 14.9108 16.784 15.1425C16.4193 15.3699 16.1232 15.6059 15.8958 15.8505C15.6726 16.0951 15.5096 16.3847 15.4066 16.7194C15.3624 16.8631 15.3269 17.0215 15.3 17.1946C15.2321 17.6326 14.9156 18.0065 14.4766 18.0675V18.0675ZM14.3703 21.9973C14.0185 21.9973 13.716 21.8728 13.4628 21.624C13.2096 21.3708 13.0831 21.0661 13.0831 20.71C13.0831 20.3581 13.2096 20.0578 13.4628 19.8089C13.716 19.5557 14.0185 19.4291 14.3703 19.4291C14.7179 19.4291 15.0183 19.5557 15.2714 19.8089C15.5289 20.0578 15.6576 20.3581 15.6576 20.71C15.6576 20.946 15.5976 21.1627 15.4774 21.3601C15.3616 21.5532 15.2071 21.7076 15.014 21.8235C14.8209 21.9393 14.6063 21.9973 14.3703 21.9973Z" fill="#515257"/>
</svg>
