<?xml version="1.0" encoding="utf-8"?>
<svg version="1.1" xmlns:xlink="http://www.w3.org/1999/xlink" width="23px" height="23px" xmlns="http://www.w3.org/2000/svg">
  <g transform="matrix(1 0 0 1 -25 -13 )">
    <path d="M 23 11.5  C 23 5.160625  17.839375 0  11.5 0  C 5.160625 0  0 5.160625  0 11.5  C 0 17.839375  5.160625 23  11.5 23  C 17.839375 23  23 17.839375  23 11.5  Z M 21.5625 11.5  C 21.5625 17.04875  17.04875 21.5625  11.5 21.5625  C 5.951250000000001 21.5625  1.4375 17.04875  1.4375 11.5  C 1.4375 5.951250000000001  5.951250000000001 1.4375  11.5 1.4375  C 17.04875 1.4375  21.5625 5.951250000000001  21.5625 11.5  Z " fill-rule="nonzero" fill="#4a4a4a" stroke="none" transform="matrix(1 0 0 1 25 13 )" />
  </g>
</svg>