<svg width="229" height="128" viewBox="0 0 229 128" fill="none" xmlns="http://www.w3.org/2000/svg">
<g clip-path="url(#clip0_413_17987)">
<path fill-rule="evenodd" clip-rule="evenodd" d="M85.9224 0L86.6694 53.4332C86.6694 53.4332 86.7373 58.2414 91.6134 61.4468C92.9852 62.3433 95.1584 63.0495 98.4861 62.9952C99.5048 62.9816 105.318 62.9545 108.238 63.036C110.371 63.0903 113.929 64.5708 114.187 67.0563H114.69C114.894 64.1905 118.466 63.1039 120.639 63.036C123.546 62.9545 129.372 62.9816 130.391 62.9952C133.719 63.036 135.892 62.3433 137.264 61.4468C142.14 58.2549 142.208 53.4332 142.208 53.4332L142.928 0H85.9224Z" fill="#DC143C"/>
<path fill-rule="evenodd" clip-rule="evenodd" d="M109.746 3.55859C110.683 5.1749 111.036 6.72329 111.553 8.19019C112.408 8.08153 113.373 8.29885 114.337 8.36676C115.437 8.5705 116.306 8.67916 117.121 8.54333C117.624 6.23432 118.059 5.07982 119.064 3.46351C118.615 3.77591 117.678 3.88457 117.311 4.44145C116.755 3.95248 116.32 4.26488 116.048 4.78101C116.143 4.35995 116.021 4.02039 115.478 3.97964C115.804 3.38202 115.301 3.06962 114.785 3.34127C114.772 2.81156 114.351 2.81156 114.323 2.53991C114.255 2.86589 113.875 2.7029 113.929 3.49068C113.508 3.15112 113.087 3.38202 113.264 3.96606C112.748 3.96606 112.612 4.38712 112.666 4.91683C112.313 4.11547 111.661 4.34637 111.43 4.6316C111.023 3.83024 110.71 4.33279 109.773 3.58575H109.76L109.746 3.55859Z" fill="#F6D155"/>
<path fill-rule="evenodd" clip-rule="evenodd" d="M117.936 7.67406C117.352 8.69274 117.08 8.76065 114.5 8.35318C112.449 8.14944 110.602 7.57898 110.52 9.42619C111.199 9.50768 112.191 9.57559 112.612 11.0289L111.362 12.1019C110.466 12.2377 109.08 13.4194 108.157 12.3192C107.912 13.3515 108.849 13.6367 109.855 13.596C110.547 13.5281 110.778 13.3379 112.069 13.0799L112.422 13.4602C114.391 13.6232 115.396 16.4211 112.218 18.0918C112.096 18.4721 112.299 18.9339 112.598 18.9882C111.675 20.2921 110.14 21.922 109.597 20.849C109.474 20.9712 109.108 21.8677 109.8 22.3566C109.271 23.0086 109.08 23.7828 109.108 24.6521C107.002 24.3125 105.63 23.9729 106.092 22.0035C108.32 22.0986 108.931 19.4093 108.605 18.051C107.315 12.5909 100.265 8.20377 95.1312 8.06795C95.4165 9.56201 96.3265 10.635 97.3723 11.6265C96.0005 10.961 94.4385 10.3226 92.7815 10.6622C92.9716 11.8303 93.61 13.2021 96.2857 15.416C94.3435 14.2751 92.5777 13.1478 91.953 12.2377C91.6677 12.6181 91.5183 14.1529 93.1618 15.2666C92.6321 15.0629 90.0514 15.0765 89.2772 15.6469C89.7526 16.7199 91.9122 18.5943 93.6779 19.1919C91.9937 18.9475 90.4181 18.2683 88.9784 17.0459C88.7747 17.2361 88.9784 19.2327 90.7713 20.0069C90.1872 20.0476 88.2042 20.6045 87.7017 21.2293C88.7339 22.6147 91.3825 23.8235 92.6864 23.8235C90.9071 24.0544 88.9377 23.7013 88.1363 23.4432C88.1499 23.905 87.7696 25.7387 92.6592 25.4398C90.9207 26.2684 88.2721 27.9933 87.8511 29.4874C89.5489 30.2344 92.5913 29.6096 94.1669 29.1207C89.5081 31.9594 88.7883 32.2582 87.9326 32.0545C89.0599 34.4314 91.7764 32.8151 94.1126 31.4976C91.2331 35.355 90.7577 37.3245 90.8256 40.0681C93.1482 39.7829 96.5031 36.4552 98.3095 33.6165C96.2314 37.8949 94.9954 41.3177 92.7407 42.3364C95.3214 43.355 97.5353 40.1224 99.0973 36.6861C98.4997 38.8593 98.2552 43.4637 99.0158 44.6046C101.338 43.0291 103.118 39.5248 104.299 35.4908C103.892 37.4739 103.607 39.4569 102.86 41.4399C104.367 41.7252 105.128 39.0358 105.63 37.4603C105.671 37.5418 105.726 37.6097 105.875 37.7591C107.763 36.3737 108.374 33.1954 108.51 31.9458C110.235 32.4348 111.009 31.81 111.43 31.484C111.81 32.0137 111.838 32.8151 111.946 32.9373C110.072 31.4025 108.062 32.9373 107.98 35.4908C107.776 36.5503 107.22 37.7727 105.793 38.7234C105.875 38.8321 106.092 38.8864 106.337 38.8728C106.092 39.3075 105.861 39.6606 105.44 40.0545C105.549 40.1224 105.671 40.1224 105.821 40.1496C105.495 40.6793 104.978 41.1683 104.449 41.4263C104.571 41.5486 104.639 41.5893 105.033 41.6844C104.68 42.1462 104.109 42.5808 103.566 42.7982C104.598 43.4094 105.372 43.4773 106.024 43.423C105.617 44.2243 104.965 44.6318 104.327 44.9985C104.517 45.1751 104.775 45.2158 104.965 45.1615C104.381 45.7591 103.77 46.2345 103.226 46.4111C103.321 46.479 103.389 46.5877 103.756 46.5605C103.362 47.0495 102.873 47.5248 102.031 47.7422C102.194 48.0681 102.547 48.0274 102.832 48.0274C102.602 48.5299 101.868 48.6929 101.135 48.8559C101.692 49.0053 102.072 49.3177 101.732 49.2362C101.515 49.4943 101.284 49.6437 100.809 49.7252C100.32 49.7931 98.554 49.1683 97.8477 49.3992C97.6576 48.9917 97.1686 48.7201 96.6525 48.7201C96.0005 48.7201 95.3621 49.1411 95.3214 49.7252C95.2263 49.6573 94.7917 49.6029 94.8596 50.1055C95.009 50.4043 95.0226 50.6488 95.9598 51.0155C96.1092 51.0834 96.2993 51.1106 96.5302 51.1106C96.8698 51.097 97.2365 50.934 97.5217 50.676C97.9971 50.771 98.5133 50.8525 98.7849 50.9748C98.0515 51.0291 97.7798 51.4502 97.3588 51.7354C97.1822 51.7354 97.0328 51.6811 96.8698 51.6539C96.7747 51.6403 96.6796 51.6267 96.571 51.6267C96.0413 51.6539 95.498 52.2515 95.4436 52.9306C95.4436 53.0665 95.4708 53.1887 95.5251 53.3245V53.4332C95.3621 53.6233 95.4301 53.7863 95.5795 53.895C96.2314 54.1395 96.6117 53.9901 96.8426 53.9493C97.4267 53.8814 97.9292 53.3924 97.9292 52.8491C98.6219 52.7269 99.3146 52.5232 99.6949 52.2515C99.7085 52.2923 99.7221 52.333 99.7221 52.3873C99.4912 52.5232 99.0837 52.7676 98.8664 53.4604H98.6898C97.9021 53.4604 97.6983 54.0036 97.7119 54.4654C97.7119 54.9001 97.8749 55.1853 98.1194 55.3619C98.0786 55.6471 98.1058 55.8644 98.3774 55.9459C99.3282 56.0953 99.5591 55.5928 99.7493 55.6064C99.7493 55.4841 99.7628 55.4026 99.8036 55.3076C100.102 55.1717 100.293 55.0631 100.32 54.5198C100.347 54.1802 100.293 53.9765 100.184 53.8407H100.211C101.08 53.1072 101.637 52.5232 102.004 52.0206C102.343 52.1021 103.091 52.0749 103.457 51.9527V52.0885C103.091 52.4281 103.335 53.2159 103.797 53.1887C103.783 53.2566 103.783 53.3245 103.797 53.406C104.096 53.5826 104.653 53.4604 105.06 53.5554C105.277 53.5283 105.386 53.3924 105.318 53.0936C105.658 52.8899 105.889 52.5232 105.834 52.0749C105.834 51.4502 105.345 50.9476 104.734 50.9069C104.082 50.8389 103.471 51.3007 103.593 50.2957C105.372 48.1904 107.804 44.9985 108.469 44.6318C108.415 44.5639 108.388 44.4824 108.347 44.3873C108.605 45.08 109.597 45.827 110.656 45.7591C110.466 45.3924 110.248 45.08 110.181 44.1157C110.33 44.333 110.602 44.4552 110.928 44.5231C110.439 42.282 111.158 40.4212 112.666 38.737C112.544 40.9102 112.272 43.097 110.955 45.2973C111.634 45.5011 112.517 44.8219 112.639 44.4009C112.775 46.3568 110.928 48.8695 109.474 47.6607C108.564 49.6709 110.724 50.6216 112.082 49.4671C111.851 50.676 110.914 51.3958 109.882 51.6675C108.849 51.9391 107.776 51.5181 108.456 49.861C108.32 49.7795 106.242 49.7252 106.187 51.9799C106.242 53.2702 107.138 53.7727 107.206 53.7863C104.259 56.0138 107.233 58.513 109.664 58.0376C111.593 57.7388 112.693 56.1768 113.386 55.0359C113.182 55.8644 112.299 58.4587 114.527 61.311C116.727 57.8746 115.79 55.552 115.736 55.1989C117.461 57.861 119.172 58.0512 120.177 57.9969C121.902 58.024 124.347 55.3211 121.237 53.5826C122.826 52.8356 122.934 49.6844 120.693 49.535C121.155 50.771 120.177 51.5317 119.104 51.423C118.031 51.3279 117.04 50.7167 116.673 49.3177C118.792 50.3364 119.77 48.3262 119.036 47.2532C117.243 48.7473 116.374 46.3432 116.143 44.9306C116.605 45.2837 117.012 45.406 117.773 45.2973C116.306 43.423 115.967 40.883 115.831 38.5197C116.836 40.1088 117.814 42.0375 117.787 43.9527C118.018 43.844 118.235 43.8168 118.642 42.9747C118.683 44.4009 118.52 44.591 118.031 45.1887C118.819 45.5282 119.851 44.8763 120.34 44.0342C121.875 46.0987 123.532 48.2311 125.135 49.8746C125.488 50.2413 125.61 50.5945 124.958 50.7303C122.894 49.9697 122.676 52.1293 123.532 52.4145C123.464 52.6047 123.451 52.822 123.505 53.0257C123.912 53.148 124.741 52.822 124.972 52.8084C125.067 52.7133 125.067 52.5096 125.067 52.3194C125.271 52.3194 125.42 52.1972 125.515 52.0206C125.923 52.1021 126.303 52.1429 126.819 51.7218L128.354 53.2566C128.435 53.2974 128.272 53.4604 128.49 53.4875C128.327 54.5062 128.707 54.6149 129.047 54.8865C128.979 55.8644 130.445 55.3076 130.581 55.3619C130.731 55.2668 130.744 55.1717 130.717 55.0495C130.88 54.8729 130.799 54.7914 130.744 54.6556C131.464 53.5418 130.432 52.6861 129.861 52.7948C129.25 52.1293 128.816 51.844 128.327 51.4502C129.332 51.8305 130.88 52.2515 131.328 52.5775C131.491 53.7184 132.496 53.243 133.243 53.2838C133.461 52.9578 133.352 52.8627 133.243 52.7541C134.208 51.5045 132.17 50.4858 131.301 51.2192C130.785 50.7439 130.337 50.6624 129.875 50.4722C130.065 50.2821 130.473 50.1191 131.41 50.0648C131.831 50.35 132.238 50.4451 132.646 50.1327C132.822 50.5266 133.176 50.4315 133.298 50.35C133.61 49.9968 133.61 49.4671 133.692 48.9782C133.61 48.8016 133.488 48.6793 133.243 48.6929C132.619 47.6199 131.41 48.2719 131.328 48.7473C130.283 48.8288 129.345 48.9646 128.245 49.3992C127.878 49.5079 127.539 49.114 127.226 48.8831C127.512 48.7744 127.756 48.6522 127.743 48.4077C127.294 48.3669 126.86 48.4077 126.344 47.8644L126.479 47.4977C126.072 47.3754 125.651 47.0766 125.135 46.2617C125.243 46.1938 125.339 46.0851 125.447 45.895C124.85 45.7591 124.361 45.4332 123.967 44.9713C124.103 44.9034 124.252 44.7812 124.374 44.5775C123.817 44.2379 123.288 43.9527 122.215 42.5537C123.342 42.7167 124.51 42.6216 125.189 42.1055C124.632 41.9561 123.668 41.6301 123.22 40.8016C123.423 40.788 123.559 40.7472 123.695 40.7065C122.853 40.1496 122.636 39.8508 122.418 39.4026C122.595 39.4161 122.853 39.3346 122.934 39.226C122.391 38.9815 122.16 38.6419 121.956 38.2752C122.174 38.2752 122.418 38.316 122.595 38.1937C120.449 37.2294 120.761 32.2175 118.439 32.2039C117.406 32.2854 117.23 32.5163 116.7 32.7743C116.85 32.3397 117.121 31.9322 117.393 31.5519C118.642 32.136 119.647 31.7964 119.987 31.5112C120.15 33.535 120.816 35.6946 122.201 36.7676C122.432 36.6318 122.731 36.4552 122.894 36.265C123.138 38.1258 123.844 40.5978 125.42 40.3941C124.7 38.6012 124.714 36.7812 124.632 34.9747C125.284 40.2583 126.914 43.3279 128.259 44.2651C128.87 43.4365 129.332 39.5927 129.033 37.2701C130.35 39.647 131.817 41.861 133.04 41.8474C133.597 41.8474 134.208 41.3856 134.588 41.2769C132.659 40.5027 131.356 36.9577 130.187 34.7574C132.401 38.2209 135.036 39.7829 136.272 40.0274C136.313 38.9543 136.558 35.9662 133.787 31.7964C138.717 34.4042 139.763 32.72 140.062 31.8236C137.834 32.5978 134.833 29.7319 132.836 28.8219L132.809 28.7404C135.743 30.0714 138.636 30.5332 140.429 29.4059C138.894 27.0426 137.4 26.1733 135.783 25.5621C138.975 25.9152 140.021 24.8422 140.089 23.6334C138.921 24.0273 137.848 24.0952 136.449 23.8643C139.505 23.2531 140.062 21.9492 140.035 21.8269C139.26 21.2157 137.78 20.5366 136.435 20.4008C140.116 19.0833 138.948 17.8201 138.799 17.4398C137.658 18.5128 135.661 19.2734 135.308 19.2463C137.019 18.3498 138.513 16.0001 138.418 15.742C137.549 15.2938 135.783 15.321 135.064 15.5383C135.77 14.7641 136.721 13.4058 135.851 12.2921C135.009 13.4737 134.221 14.085 133.447 14.7097C134.167 13.7997 134.996 12.7539 135.281 10.6214C134.208 10.7573 133.23 10.6622 131.844 11.5858C132.632 10.5807 133.135 9.60276 133.243 8.40751C128.435 8.74707 122.812 11.2598 120.096 17.562C119.308 19.4093 119.933 22.5468 122.391 22.1937C122.785 23.7828 121.739 24.7471 119.457 24.6792C119.417 24.1495 119.566 23.0901 118.928 22.5468C119.484 22.506 119.593 22.2208 119.702 21.9899C118.208 21.6368 118.452 21.1478 118.724 18.5128C118.914 18.5943 119.145 18.54 119.308 18.3906C118.697 17.8201 118.887 16.7743 119.213 13.4737C119.267 12.034 118.982 11.3141 118.656 11.0697C118.846 10.9746 118.982 10.8252 118.873 10.4585C119.552 10.3362 119.267 9.4941 118.982 9.22245C118.846 9.60276 118.262 9.73858 117.705 9.31753C118.384 9.00513 118.384 8.24452 117.868 7.7148V7.68764L117.936 7.67406ZM120.734 43.1785C120.734 43.1785 120.775 43.2328 120.802 43.26L120.734 43.1921V43.1785ZM106.663 43.26C106.595 43.5044 106.717 44.1971 106.731 44.6454C106.948 44.754 107.355 44.6454 107.817 44.4688C107.79 44.4688 107.763 44.496 107.749 44.496C107.396 44.6182 106.989 44.754 106.731 44.6454L106.649 43.6267C106.636 43.518 106.636 43.3958 106.663 43.2464V43.26ZM106.5 43.3143C106.5 43.3143 106.418 43.3415 106.391 43.3415C106.432 43.3415 106.473 43.3279 106.5 43.3143ZM121.033 43.4365C121.549 43.8168 122.174 43.8168 122.405 43.7625C122.405 43.7354 122.432 43.7082 122.445 43.681C122.445 43.7082 122.432 43.7489 122.418 43.7761C121.943 43.844 121.468 43.7761 121.033 43.4365ZM116.551 52.496C117.026 52.9986 118.873 54.3568 121.006 53.7048C121.182 54.9137 120.15 55.3619 119.349 55.2125C118.561 55.0495 117.366 54.4247 116.551 52.5096V52.496ZM112.299 52.7948C111.607 54.1123 110.466 55.2261 109.434 55.4977C108.415 55.7558 107.45 55.2668 107.831 53.9222C110.045 54.6556 111.838 53.3517 112.299 52.7812V52.7948Z" fill="white"/>
<path fill-rule="evenodd" clip-rule="evenodd" d="M102.086 28.3465C101.339 27.4636 101.447 26.9068 101.474 26.5944C100.646 25.9696 100.863 25.7251 100.727 25.4806C101.026 25.9831 101.298 26.3227 101.597 26.3635C102.14 26.866 102.683 27.029 103.227 27.355C99.8988 25.5349 100.822 23.3074 100.863 22.6555C100.347 22.669 99.9531 22.574 99.6815 22.3566C99.7766 21.4466 100.252 20.7268 101.257 20.2242C101.135 20.265 101.013 20.3193 100.877 20.3464C100.768 20.3193 100.469 19.5858 100.836 19.0969C101.04 18.9746 101.597 18.9203 102.167 19.1376C102.507 18.4585 102.928 17.8609 103.838 17.6164C104.055 17.8473 104.435 18.54 104.177 19.7352C104.558 19.8711 104.911 20.0476 105.21 20.4823C105.114 20.8626 105.033 20.9712 104.924 21.0663C106.391 21.0799 106.527 19.029 104.897 18.8252C105.155 16.8965 102.697 15.7556 101.624 18.1325C99.6407 17.6028 99.111 19.1376 99.8716 20.3464C99.6407 20.523 97.6713 21.9628 99.5321 24.0273C99.5321 25.046 99.7766 26.0375 101.162 26.8932C101.556 28.0613 101.8 28.0613 102.099 28.3193V28.3465H102.086Z" fill="#DFDDE2"/>
<path fill-rule="evenodd" clip-rule="evenodd" d="M126.561 17.6028L126.819 17.1002C128.598 16.815 129.671 18.0103 128.979 19.4093C130.418 20.6317 129.617 22.2344 128.761 22.5468C129.794 21.7862 129.223 21.5417 129.06 21.5553C129.115 21.5281 129.196 21.4874 129.264 21.4195C129.21 20.7539 128.938 20.1155 127.919 19.3413C128.435 18.7709 128.381 18.2412 128.313 17.8609C127.743 17.7115 127.24 17.7658 126.792 17.9831L126.575 17.5621V17.5892L126.561 17.6028Z" fill="#DFDDE2"/>
<path fill-rule="evenodd" clip-rule="evenodd" d="M124.089 21.0799C124.17 20.7947 124.238 20.36 124.741 19.939C124.591 20.0476 124.401 20.1835 124.211 20.36C123.573 20.102 123.152 19.5043 123.057 19.1512C123.45 18.6351 124.388 18.7166 124.523 18.7437C124.238 17.7115 124.605 16.9508 124.863 16.652C125.719 16.7335 126.153 17.1682 126.506 17.5621L126.751 17.1002C126.52 16.3804 125.8 15.8371 124.972 16.0001C124.279 16.068 123.464 16.6792 123.79 18.1189C121.671 18.9746 122.581 20.9984 124.089 21.0663H124.102L124.089 21.0799Z" fill="#DFDDE2"/>
<path fill-rule="evenodd" clip-rule="evenodd" d="M119.498 24.6792C119.417 25.4534 119.267 26.0239 119.091 26.5536C121.957 26.119 126.222 25.3855 125.651 22.2208C125.121 22.6011 124.605 22.669 124.076 22.6826C123.994 22.2344 123.94 21.7454 124.089 21.1206C123.614 21.759 123.057 22.0171 122.473 22.1529C125.081 23.3074 121.373 25.3719 119.824 24.6792H119.471H119.485H119.498Z" fill="#F1EEF0"/>
<path fill-rule="evenodd" clip-rule="evenodd" d="M109.121 25.8745C109.203 26.7709 109.488 27.8575 109.746 28.8762C109.57 28.5774 109.013 26.8252 109.121 25.8745Z" fill="#E8E6EB"/>
<path fill-rule="evenodd" clip-rule="evenodd" d="M117.678 25.2361C116.985 27.9933 120.041 27.7217 117.895 24.8966C119.987 26.1733 118.615 28.0884 118.507 28.5231C118.167 27.0426 116.89 26.6758 117.665 25.2361H117.678Z" fill="#C3BDC9"/>
<path fill-rule="evenodd" clip-rule="evenodd" d="M103.824 17.6979L102.778 20.7539C102.534 20.6453 102.276 20.5502 101.936 20.1563C101.936 19.0969 102.887 17.793 103.797 17.6979H103.81H103.824Z" fill="white"/>
<path fill-rule="evenodd" clip-rule="evenodd" d="M104.652 23.6334L102.792 20.7539C103.09 20.7539 103.416 20.7539 103.837 20.6588C104.394 21.175 104.992 22.5061 104.679 23.6334H104.666H104.652Z" fill="#C3BDC9"/>
<path fill-rule="evenodd" clip-rule="evenodd" d="M104.123 19.776C104.68 19.9254 105.074 20.3057 105.142 20.523L103.824 20.6453C103.946 20.36 104.042 20.0748 104.137 19.7624L104.123 19.776Z" fill="white"/>
<path fill-rule="evenodd" clip-rule="evenodd" d="M100.849 20.36C100.605 19.9933 100.605 19.2734 100.849 19.124L101.95 20.1427C101.651 20.2106 101.121 20.2378 100.836 20.36H100.849Z" fill="white"/>
<path fill-rule="evenodd" clip-rule="evenodd" d="M99.6948 22.3431L102.778 20.7539C102.778 20.7539 102.343 20.2378 101.949 20.1427C101.121 20.0341 99.7627 21.0663 99.6948 22.3431Z" fill="white"/>
<path fill-rule="evenodd" clip-rule="evenodd" d="M102.249 22.3566C100.659 26.9068 107.519 27.6266 109.339 27.7489L109.121 26.6079C105.807 26.4585 102.71 25.7251 103.172 23.2395C102.575 22.8592 102.452 22.6962 102.249 22.3431V22.3566Z" fill="url(#paint0_linear_413_17987)"/>
<path fill-rule="evenodd" clip-rule="evenodd" d="M102.249 22.3431C101.882 22.5196 101.352 22.6011 100.836 22.6826C99.5185 28.2107 108.075 28.6453 109.719 28.849C109.474 28.3329 109.393 28.0748 109.325 27.7353C104.979 27.45 100.972 25.8202 102.235 22.3431H102.249Z" fill="url(#paint1_linear_413_17987)"/>
<path fill-rule="evenodd" clip-rule="evenodd" d="M124.904 16.6792C125.379 17.6707 125.895 18.8388 126.248 19.939C126.452 19.6266 126.656 19.3278 127.077 18.9746C126.86 17.9288 126.33 16.8286 124.89 16.6656H124.904V16.6792Z" fill="#C3BDC9"/>
<path fill-rule="evenodd" clip-rule="evenodd" d="M124.904 16.6656C125.393 17.6843 125.95 18.8931 126.276 19.939L125.108 19.776C124.415 19.029 124.239 17.5213 124.918 16.6656H124.904Z" fill="white"/>
<path fill-rule="evenodd" clip-rule="evenodd" d="M123.111 19.124C123.424 18.7709 124.062 18.6622 124.578 18.7573C124.687 19.0561 124.891 19.45 125.094 19.7624L123.098 19.124H123.111Z" fill="#C3BDC9"/>
<path fill-rule="evenodd" clip-rule="evenodd" d="M128.259 17.9288L127.077 18.9882L127.851 19.3957C128.476 18.866 128.3 17.9152 128.272 17.9288H128.259Z" fill="#C3BDC9"/>
<path fill-rule="evenodd" clip-rule="evenodd" d="M127.077 18.9746C126.887 19.0154 126.221 19.939 126.276 19.9254L129.237 21.4466C129.237 20.9305 128.775 19.6673 127.077 18.9746Z" fill="#C3BDC9"/>
<path fill-rule="evenodd" clip-rule="evenodd" d="M126.249 19.9254L124.103 22.6962C125.474 22.6419 126.031 22.0307 126.493 21.2701L126.235 19.939H126.249V19.9254Z" fill="#C3BDC9"/>
<path fill-rule="evenodd" clip-rule="evenodd" d="M128.259 17.9288C127.797 17.7794 127.186 17.8337 126.765 18.051C126.9 18.3498 126.996 18.7166 127.077 18.9882L128.259 17.9288Z" fill="white"/>
<path fill-rule="evenodd" clip-rule="evenodd" d="M126.249 19.9254L129.25 21.4466C128.707 21.8948 126.982 21.4738 126.507 21.2836L126.262 19.939L126.249 19.9254Z" fill="white"/>
<path fill-rule="evenodd" clip-rule="evenodd" d="M126.248 19.9254L125.08 19.7624C123.79 20.3057 124.007 22.5196 124.102 22.6826L126.248 19.9254Z" fill="white"/>
<path fill-rule="evenodd" clip-rule="evenodd" d="M125.067 19.7624L123.098 19.124C123.193 19.5994 123.777 20.1427 124.211 20.3193C124.306 20.2378 124.741 19.8303 125.067 19.7624Z" fill="white"/>
<path fill-rule="evenodd" clip-rule="evenodd" d="M126.547 21.2701C126.18 21.8133 126.072 21.9492 125.664 22.2208C126.357 25.4263 121.766 26.214 119.104 26.5944C119.077 27.0426 118.941 27.3957 118.805 27.7489C119.281 27.7217 128.707 27.5451 126.534 21.2701H126.547Z" fill="white"/>
<path fill-rule="evenodd" clip-rule="evenodd" d="M126.602 21.3108C127.865 25.9696 123.722 27.2871 118.833 27.7353C118.71 28.0341 118.602 28.3329 118.479 28.6725C125.121 28.2107 128.598 26.0646 127.688 21.5824C127.254 21.5145 126.928 21.4195 126.602 21.3244V21.3108Z" fill="url(#paint2_linear_413_17987)"/>
<path fill-rule="evenodd" clip-rule="evenodd" d="M95.5793 53.9086C96.109 54.1531 96.7746 53.9901 97.1277 53.8814C97.3179 54.058 97.0734 54.7914 97.6303 55.3076C97.3043 55.4434 95.5386 54.9001 95.5657 53.9086H95.5793Z" fill="#F6D155"/>
<path fill-rule="evenodd" clip-rule="evenodd" d="M94.8324 50.0783C95.0497 50.7846 95.688 50.8525 95.9325 51.0155C95.9325 51.2736 95.2398 51.26 95.2262 52.2379C94.7509 52.1972 94.0853 51.0834 94.8324 50.0919V50.0783Z" fill="#F6D155"/>
<path fill-rule="evenodd" clip-rule="evenodd" d="M98.3774 55.9324C99.2467 56.0682 99.5455 55.6064 99.7493 55.5792C99.8443 55.8644 100.238 56.2312 100.619 56.4349C100.442 57.0733 98.3503 56.9375 98.391 55.9324H98.3774Z" fill="#F6D155"/>
<path fill-rule="evenodd" clip-rule="evenodd" d="M105.047 53.5554C104.992 53.4468 104.001 53.5554 103.824 53.406C103.702 53.5554 103.661 54.058 103.294 54.2617C103.525 54.6964 105.182 54.5605 105.047 53.5554Z" fill="#F6D155"/>
<path fill-rule="evenodd" clip-rule="evenodd" d="M106.934 44.7269C107.084 44.7133 107.233 44.6861 107.355 44.659C106.771 45.3517 105.793 46.5877 104.815 47.6063C103.838 48.6386 102.955 49.6573 103.281 50.5809C102.602 49.9154 103.213 49.2498 104.123 48.1632C105.128 46.9815 106.242 45.6233 106.934 44.7269ZM105.712 52.2108C105.712 52.6862 105.304 53.1344 104.34 53.0936C105.427 51.912 103.226 51.8305 103.756 51.3415C105.209 50.4179 105.821 51.8441 105.712 52.2244V52.2108ZM104.68 53.2566C105.006 53.3245 105.196 52.9306 105.264 53.1344C105.4 53.5283 104.693 53.5962 104.68 53.2566ZM97.3451 49.1276C97.1278 49.1276 97.1957 50.024 95.8647 49.9833C95.8375 49.9833 95.7153 49.9833 95.6473 50.1055C95.4979 50.4043 96.0277 51.0155 96.5166 50.9884C96.9513 50.9612 97.2908 50.7031 97.5217 50.4043C97.6168 50.35 98.3095 49.9561 98.2552 50.1191C97.4266 50.5266 97.644 50.771 98.9343 50.8661C99.7628 50.7439 100.456 50.024 100.741 49.8882C99.8986 50.024 98.1193 49.4671 97.7119 49.4671C97.6575 49.3177 97.5353 49.1819 97.3316 49.114L97.3451 49.1276ZM95.8782 53.6913C95.8511 53.7592 95.8103 53.8135 95.756 53.8542C95.9869 54.0037 96.6117 53.9629 96.6796 53.9086C96.6117 53.9086 96.0956 53.8814 95.8782 53.6913ZM101.99 49.9833C100.877 50.5266 100.116 52.496 97.3451 52.2244C97.2772 52.4553 97.1278 52.5232 96.9784 52.5911C96.408 52.5911 95.7424 52.7133 95.756 53.0801C95.756 53.5147 96.4351 53.7863 96.8833 53.732C97.3451 53.6777 97.8205 53.243 97.8205 52.8084C97.8205 52.8084 97.8613 52.7405 97.902 52.7405C100.958 52.0885 101.42 50.513 102.004 49.9697H101.99V49.9833ZM102.479 50.0512C102.357 50.7846 99.9394 52.9986 99.8307 53.732C99.7085 53.6369 99.5183 53.569 99.138 53.5826C99.3553 54.6964 98.4453 55.0359 98.1873 54.8322C98.1873 55.3347 98.9071 55.5385 99.3825 55.4434C99.9394 55.3347 100.401 54.479 100.075 53.9629C100.143 53.0393 101.352 52.7812 101.855 51.5996C102.303 51.5996 102.371 50.9069 102.914 50.771C102.805 50.4043 102.343 50.8797 102.452 50.024V50.0512H102.479ZM95.3893 50.0512C95.4572 50.4858 95.6473 50.676 95.9869 50.9476C95.7288 50.8525 95.4708 50.7846 95.1855 50.5266C95.4436 50.6081 95.2535 49.9833 95.3893 50.0512ZM101.162 48.8695C101.678 48.9782 102.343 49.0325 103.253 48.9782C101.936 49.44 101.325 49.2906 101.162 48.8695ZM102.832 48.0274C102.832 48.0953 102.724 48.2311 102.629 48.3262C103.267 48.3262 103.892 48.1904 104.34 47.6743C103.919 47.8644 103.444 48.0274 102.832 48.0274ZM103.742 46.5741C103.702 46.6556 103.539 46.8321 103.403 46.968C103.933 47.0223 104.978 46.7914 105.44 46.2753C105.019 46.4654 104.354 46.5741 103.742 46.5741ZM104.965 45.1751C104.87 45.2702 104.557 45.5826 104.449 45.6776C104.978 45.732 106.16 45.3109 106.622 44.8084C106.201 44.9985 105.576 45.1751 104.978 45.1751H104.965ZM106.663 43.6131C106.636 44.2107 106.432 44.6046 106.201 44.8627C106.377 44.8084 106.568 44.7676 106.744 44.6861C106.731 44.3466 106.703 43.9663 106.649 43.6267H106.663V43.6131Z" fill="#DFDDE2"/>
<path fill-rule="evenodd" clip-rule="evenodd" d="M123.573 52.9578C124.102 53.0801 124.741 52.7541 125.053 52.7405C125.189 53.0257 125.243 53.3245 125.827 53.5147C125.434 53.9493 123.994 54.0851 123.573 52.9442V52.9578Z" fill="#F6D155"/>
<path fill-rule="evenodd" clip-rule="evenodd" d="M129.44 55.3483C129.25 55.5385 129.033 55.7422 128.666 55.9595C129.318 56.5571 130.663 55.8916 130.608 55.3076C130.486 55.0902 130.106 55.5656 129.44 55.3483Z" fill="#F6D155"/>
<path fill-rule="evenodd" clip-rule="evenodd" d="M132.008 53.2566C132.008 54.0308 131.926 54.2481 131.831 54.5062C132.211 54.7507 133.162 54.1531 133.284 53.243C133.189 53.0257 132.768 53.406 132.021 53.2566H132.008Z" fill="#F6D155"/>
<path fill-rule="evenodd" clip-rule="evenodd" d="M133.773 48.951C133.488 49.0189 133.664 49.9697 133.338 50.2549C133.596 50.3907 133.787 50.7439 133.963 51.0563C134.574 50.5945 134.547 49.277 133.773 48.9374V48.951Z" fill="#F6D155"/>
<path fill-rule="evenodd" clip-rule="evenodd" d="M124.252 52.8763C124.551 52.7948 124.863 52.6454 124.972 52.6862C125.149 52.0614 124.741 52.4281 124.252 52.8763ZM123.831 52.3738C124.401 52.3738 125.216 52.4688 125.42 51.7082C126.317 52.1429 127.24 51.3143 127.036 50.5537C127.036 50.5537 126.738 51.8576 124.904 51.0427C124.524 50.9884 124.021 51.2193 124.048 51.4773C124.076 51.8033 124.7 52.075 123.831 52.4009V52.3738ZM128.721 51.7218C129.196 52.1972 129.481 52.6454 129.386 52.985C129.685 52.5639 129.712 52.822 129.767 52.985C130.12 53.243 130.364 54.058 129.508 54.5877C129.916 54.6964 129.957 55.0631 129.508 55.1853C129.522 55.5656 130.554 55.0902 130.636 55.2397C130.717 55.2125 130.744 55.0902 130.758 54.9816C130.84 54.8729 130.853 54.7371 130.758 54.5605C131.41 53.4604 130.609 52.8627 129.889 52.7405C129.454 52.2923 129.087 52.0342 128.707 51.7218H128.721ZM128.748 50.5401C129.441 50.9884 130.405 51.3279 131.315 51.9255C132.225 51.0155 132.89 52.5096 131.6 52.6047C131.94 53.2023 133.312 53.1615 133.271 52.6862C134.14 51.0563 131.79 50.6488 131.329 51.2328C130.622 50.8254 129.984 50.3772 128.965 50.2006C130.975 51.0699 131.315 51.3279 130.975 51.3823C130.649 51.423 129.522 50.7846 128.761 50.5266L128.748 50.5401ZM129.359 49.2906C129.916 49.0597 131.111 49.0868 131.437 48.788C131.967 47.8237 132.945 48.0817 133.257 48.7065C133.475 48.7065 133.651 48.7473 133.678 48.9238C133.475 49.3856 133.61 50.4994 133.026 50.2142C133.135 50.1327 133.081 50.0512 133.026 49.9697C132.782 50.2142 132.782 49.9425 132.782 49.8203C132.402 50.2549 132.225 50.187 131.953 50.1191C132.021 50.0919 132.048 50.024 132.035 49.9018C133.121 49.4807 132.171 48.2176 131.301 49.3992C131.003 49.4807 129.821 49.2226 129.373 49.277V49.3041L129.359 49.2906ZM120.68 43.2056L120.639 43.3279C121.087 43.7354 124.945 47.9867 126.086 49.7931C125.923 49.3992 125.991 49.2498 125.312 48.4213C127.05 49.3992 127.919 48.5299 127.811 48.3398C127.675 48.3534 127.58 48.3805 127.498 48.3398C125.882 49.1683 124.687 47.7965 123.98 46.8865C124.89 47.6063 125.474 47.7422 126.412 47.7965C126.507 47.6335 126.52 47.552 126.534 47.4569C126.452 47.4434 126.371 47.4162 126.317 47.3754C125.216 47.7965 123.913 46.9544 122.88 45.569C123.858 46.2753 124.564 46.2074 125.23 46.2074C125.325 46.0851 125.474 45.99 125.488 45.8271C125.393 45.8271 125.325 45.7999 125.244 45.7727C124.564 46.0036 122.867 45.9221 122.052 44.5231C122.609 44.9034 123.233 45.1208 124.035 44.9306C124.184 44.8084 124.374 44.6997 124.401 44.5503C123.41 44.7948 122.446 44.7948 121.576 44.0206C121.821 44.0206 122.092 43.9391 122.351 43.8168C121.834 43.8576 121.291 43.8169 120.68 43.2056Z" fill="#DFDDE2"/>
<path fill-rule="evenodd" clip-rule="evenodd" d="M108.741 12.9576C110.669 13.9899 112.87 11.6537 114.404 12.9169C114.567 12.9169 114.595 12.8082 114.567 12.6995C112.775 11.0832 110.846 13.4602 108.727 12.9576H108.741Z" fill="#C3BDC9"/>
<path fill-rule="evenodd" clip-rule="evenodd" d="M108.048 42.3907L107.899 42.5401C107.722 43.3822 107.274 44.0613 106.758 44.6997C107.233 44.7676 107.804 44.5231 108.347 44.2651C107.994 43.6267 107.926 43.1921 108.035 42.3771H108.048V42.3907Z" fill="#C3BDC9"/>
<path fill-rule="evenodd" clip-rule="evenodd" d="M108.592 41.2634C108.85 41.7931 109.366 40.9238 109.61 40.6929C109.284 41.8338 108.646 42.9883 110.045 44.0613C109.339 44.1292 109.135 44.4416 109.8 45.1479C108.51 44.5096 107.777 43.4637 108.605 41.2634H108.592Z" fill="#DFDDE2"/>
<path fill-rule="evenodd" clip-rule="evenodd" d="M109.664 40.6386C109.216 42.8932 109.963 43.7897 110.697 43.9934C110.411 41.5622 111.389 39.7965 112.747 38.479C112.666 36.2107 112.34 35.1784 112.096 33.5486C112.109 34.3092 112.652 36.3873 112.286 37.8406C111.905 39.3618 110.819 40.8151 109.678 40.6522H109.664V40.6386Z" fill="#CECAD5"/>
<path fill-rule="evenodd" clip-rule="evenodd" d="M105.168 42.9747C106.445 43.0562 107.491 42.6488 108.347 41.7931C107.885 42.9204 106.826 43.4637 105.25 43.3007C105.82 43.2056 105.834 43.1106 105.168 42.9747Z" fill="#C3BDC9"/>
<path fill-rule="evenodd" clip-rule="evenodd" d="M105.006 41.6708C104.883 41.861 104.788 41.9561 104.68 42.0511C106.703 42.3092 107.831 41.3584 108.591 40.5027C109.705 40.5707 110.479 39.8372 111.158 39.0902C110.411 39.6878 109.624 40.1768 108.754 40.0681C107.885 41.3177 106.663 41.9017 105.006 41.6572V41.6708Z" fill="#C3BDC9"/>
<path fill-rule="evenodd" clip-rule="evenodd" d="M105.807 40.136C105.658 40.462 105.617 40.4484 105.522 40.5571C106.201 40.6929 107.152 40.4348 108.755 39.0902C110.344 39.0494 110.996 38.0172 111.457 37.5554C110.615 38.2752 109.76 38.6691 108.89 38.6827C108.048 39.552 107.138 40.2447 105.807 40.136Z" fill="#C3BDC9"/>
<path fill-rule="evenodd" clip-rule="evenodd" d="M106.323 38.8593L106.024 39.3075C106.581 39.2803 107.301 39.3075 108.85 37.8678C110.031 37.6233 111.104 36.7268 112.041 35.1649C111.267 36.1292 110.547 37.1479 108.985 37.2837C108.578 38.2073 107.518 38.574 106.31 38.8457L106.323 38.8593Z" fill="#C3BDC9"/>
<path fill-rule="evenodd" clip-rule="evenodd" d="M119.362 40.7472C119.254 41.5757 119.064 42.3092 118.71 42.8797C118.751 43.1377 118.738 43.423 118.724 43.681C119.281 43.1106 119.688 41.5078 119.362 40.7472Z" fill="#C3BDC9"/>
<path fill-rule="evenodd" clip-rule="evenodd" d="M120.164 41.1411C120.761 42.6895 120.218 44.754 118.33 45.1072C118.914 45.3517 120.68 44.5503 120.938 42.1598L122.391 43.7897C122.473 43.4094 122.513 43.0426 122.255 42.4858C121.114 42.2549 120.734 41.7931 120.191 41.1547H120.177L120.164 41.1411Z" fill="#C3BDC9"/>
<path fill-rule="evenodd" clip-rule="evenodd" d="M121.101 41.6437C121.875 41.9832 123.247 42.4994 124.605 41.8881C124.809 41.9696 125.012 42.0376 125.216 42.0647C124.754 42.5537 123.45 42.6623 122.255 42.5129C123.899 42.2956 121.399 42.1055 121.101 41.6301V41.6437Z" fill="#C5BDCB"/>
<path fill-rule="evenodd" clip-rule="evenodd" d="M118.384 38.8728C118.955 39.2803 119.579 39.5112 120.313 39.5112C120.856 40.5299 122.418 40.8151 123.287 40.7608C123.328 40.8966 123.423 41.0189 123.532 41.1411C122.798 41.1411 121.848 40.9102 120.394 39.9866C120 39.8508 118.629 39.2124 118.371 38.8728H118.384Z" fill="#C3BDCA"/>
<path fill-rule="evenodd" clip-rule="evenodd" d="M118.085 37.3516C118.656 37.827 119.267 38.0579 119.933 38.1394C120.612 38.8593 121.427 39.2396 122.486 39.3754L122.703 39.7693C122.364 39.7965 120.761 39.0902 120.177 38.5469C119.186 38.3024 118.452 37.8134 118.085 37.3652H118.072L118.085 37.3516Z" fill="#C3BDC9"/>
<path fill-rule="evenodd" clip-rule="evenodd" d="M118.221 36.1156C118.873 36.754 119.62 37.0256 120.218 37.0256C120.666 37.501 121.087 37.99 122.024 38.2345C122.065 38.3567 122.119 38.4654 122.187 38.5605C121.481 38.5605 120.489 37.5554 120.381 37.406C119.416 37.2701 118.33 36.7812 118.208 36.1428H118.221V36.1156Z" fill="#C3BDC9"/>
<path fill-rule="evenodd" clip-rule="evenodd" d="M112.517 33.2226C112.72 33.1411 112.829 33.0324 112.924 32.9102C113.087 33.1411 113.345 33.209 113.576 33.2633C113.114 33.2497 113.06 33.4535 113.277 33.8474C113.372 33.9968 113.522 36.265 113.576 37.6368C113.576 38.9 113.753 39.7285 114.011 40.2854C113.006 39.4297 113.562 34.3363 112.517 33.2361V33.2226Z" fill="#DFDDE2"/>
<path fill-rule="evenodd" clip-rule="evenodd" d="M114.187 33.3176C114.744 33.2633 115.301 33.2361 115.967 32.8287L116.198 33.1139C115.722 34.1597 115.451 36.6046 115.152 38.8049C115.233 37.3924 115.26 36.1428 115.193 35.7896C115.043 35.0019 115.07 34.5265 115.084 34.3771C115.396 33.2769 114.554 33.535 114.174 33.2905L114.187 33.3176Z" fill="#CECAD5"/>
<path fill-rule="evenodd" clip-rule="evenodd" d="M116.429 33.2362L116.497 33.3041C115.546 35.3686 116.497 40.0817 114.459 42.4722L114.418 41.5486C115.967 40.5299 115.573 35.3278 116.429 33.2362Z" fill="#C3BDC9"/>
<path fill-rule="evenodd" clip-rule="evenodd" d="M113.019 38.316C113.019 41.6844 113.563 42.3228 111.267 45.1479C112.34 44.2515 113.535 41.5214 113.386 43.0834C113.644 42.5808 113.916 42.0783 113.984 41.6437C113.087 40.1224 113.128 39.2532 113.019 38.316Z" fill="#C3BDC9"/>
<path fill-rule="evenodd" clip-rule="evenodd" d="M114.88 42.0376L114.445 42.5537L114.568 47.0087C114.622 45.1615 114.717 43.4501 114.88 42.0376Z" fill="#C3BDC9"/>
<path fill-rule="evenodd" clip-rule="evenodd" d="M115.899 38.7914C115.79 39.4841 115.709 40.3126 115.519 40.7744C115.831 44.3466 116.795 44.6861 117.61 45.0121C116.266 43.097 115.994 40.5435 115.899 38.8049V38.7914Z" fill="#DFDDE2"/>
<path fill-rule="evenodd" clip-rule="evenodd" d="M113.318 43.4773C112.897 44.428 113.033 46.2345 111.865 47.4026C112.843 46.9001 113.21 45.6912 113.25 44.7404L113.345 45.7455C113.019 47.7965 112.096 48.3534 111.458 48.462C111.553 48.4349 112.571 48.6386 113.522 46.5877C113.549 47.3347 113.019 48.1768 112.34 48.4484C112.938 48.462 113.536 47.9187 113.848 47.4841C113.359 46.0172 113.345 44.7404 113.359 43.4637H113.332L113.318 43.4773Z" fill="#E0DEE2"/>
<path fill-rule="evenodd" clip-rule="evenodd" d="M113.767 46.5469C113.862 47.0359 114.011 47.7422 114.554 48.4349L114.595 49.3041C114.84 48.9646 115.817 46.2074 115.831 45.3109C115.872 45.0121 115.885 44.6861 116.089 44.9034C116.116 44.917 116.143 44.917 116.171 44.9034C115.872 44.6997 115.559 43.7082 115.328 43.3686C115.505 44.4416 115.641 45.9764 114.541 48.2583C114.201 47.8644 113.97 47.226 113.753 46.5741V46.5469H113.767Z" fill="#C3BDC9"/>
<path fill-rule="evenodd" clip-rule="evenodd" d="M118.479 48.299C117.298 48.9103 116.279 47.4298 115.776 46.5333L115.994 45.2973C115.994 45.2973 116.089 45.2294 116.116 45.2837C116.306 46.6556 117.175 48.2447 118.452 48.3262H118.466L118.479 48.299Z" fill="#DFDDE2"/>
<path fill-rule="evenodd" clip-rule="evenodd" d="M115.573 46.9951L115.451 47.3754C115.912 48.3941 116.456 48.7473 117.148 49.0053C115.763 48.3262 115.668 47.6743 115.573 46.9951Z" fill="#DFDDE1"/>
<path fill-rule="evenodd" clip-rule="evenodd" d="M114.242 48.7473L114.608 49.3721L114.894 48.7608C114.839 50.4179 114.744 52.4145 114.69 54.2481C114.541 52.4009 114.323 50.4722 114.255 48.7473H114.242Z" fill="#DFDDE2"/>
<path fill-rule="evenodd" clip-rule="evenodd" d="M115.315 47.715C115.288 47.8101 115.247 47.8916 115.22 47.9459C116.442 52.4824 115.002 54.9001 114.676 55.2532C113.821 53.7456 113.834 52.2787 113.644 51.0019C113.753 52.1429 113.63 53.6233 114.622 55.457V56.204C115.831 54.7099 116.578 52.6182 115.641 48.1225C115.505 48.0138 115.437 47.8372 115.315 47.7014V47.715Z" fill="#C3BDC9"/>
<path fill-rule="evenodd" clip-rule="evenodd" d="M114.228 55.8101C114.323 55.9731 114.418 56.1497 114.636 56.2855C114.894 56.0003 114.961 55.8644 115.07 55.6879C114.853 56.8831 114.744 58.0648 114.581 59.26C114.473 58.092 114.391 56.8016 114.228 55.8101Z" fill="#DFDDE2"/>
<path fill-rule="evenodd" clip-rule="evenodd" d="M116.374 56.0003C116.116 55.4162 115.803 54.9273 115.994 54.2889C115.953 54.0987 115.871 54.0716 115.79 54.0308C115.736 54.384 115.613 54.6149 115.505 54.8593C115.966 57.6166 115.314 59.0971 114.554 60.3466C113.318 58.676 113.535 56.8831 113.522 55.3347C113.155 58.4723 113.915 59.8305 114.54 60.5504V61.311C116.306 58.7167 116.143 56.2991 115.749 55.1582C115.939 55.457 116.129 55.7694 116.374 56.041H116.36L116.374 56.0003Z" fill="#C3BDC9"/>
<path fill-rule="evenodd" clip-rule="evenodd" d="M109.678 48.0817C109.909 50.35 112.802 49.6709 113.97 47.9459L113.862 47.6335C112.775 49.0461 110.452 50.3092 109.678 48.0817Z" fill="#C4BEC9"/>
<path fill-rule="evenodd" clip-rule="evenodd" d="M113.699 48.9238C112.639 51.1242 111.362 52.6862 109.597 52.8356C110.792 52.9306 112.082 51.9527 112.476 51.5452C112.775 51.0427 113.128 50.8661 112.775 51.5452C112.639 51.7761 112.49 51.9527 112.272 52.17C112.558 52.0614 113.142 51.1513 113.264 51.0698C113.318 50.1191 113.522 49.5894 113.699 48.9374V48.9238Z" fill="#DFDDE2"/>
<path fill-rule="evenodd" clip-rule="evenodd" d="M113.277 51.1242C113.264 51.3687 113.237 51.6267 113.237 51.8305C111.566 53.5419 110.126 54.0851 108.591 53.7184C109.854 53.7456 111.321 53.8814 113.277 51.1106V51.1242Z" fill="#C3BECA"/>
<path fill-rule="evenodd" clip-rule="evenodd" d="M107.871 52.1157C107.505 51.2057 107.654 50.4722 108.292 49.9153C106.989 49.8882 105.562 52.3194 107.98 53.5554C106.771 52.8491 106.717 51.3687 107.097 50.8797C107.355 50.4586 107.749 50.3364 107.478 50.8118C107.301 51.5724 107.627 51.9527 107.858 52.1021H107.871V52.1157Z" fill="#DFDDE2"/>
<path fill-rule="evenodd" clip-rule="evenodd" d="M115.708 48.2719C115.953 48.6658 116.265 49.0053 116.659 49.2498C116.551 51.4773 118.995 52.9442 120.652 52.3194C119.702 53.0121 116.564 52.8492 115.708 48.2719Z" fill="#DFDDE2"/>
<path fill-rule="evenodd" clip-rule="evenodd" d="M116.075 51.0699V51.3279C117.216 53.243 119.158 53.311 119.742 53.243C117.95 53.2159 116.822 52.3738 116.075 51.0699Z" fill="#C4C0CD"/>
<path fill-rule="evenodd" clip-rule="evenodd" d="M121.074 49.6709C122.595 50.7303 122.174 52.3738 120.544 53.0529C121.794 52.2244 122.418 51.1649 121.074 49.6709Z" fill="#E1DFE3"/>
<path fill-rule="evenodd" clip-rule="evenodd" d="M119.294 53.5147C120.748 53.7728 123.179 52.6318 121.875 50.1191C123.193 51.6675 121.726 54.4247 119.294 53.5147Z" fill="#C3BDC9"/>
<path fill-rule="evenodd" clip-rule="evenodd" d="M116.075 52.5911C116.075 52.7269 116.062 52.822 116.021 53.0665C117.257 55.5385 117.963 55.7015 118.751 56.3398C117.243 55.2261 116.483 53.9493 116.075 52.5911Z" fill="#E0DEE3"/>
<path fill-rule="evenodd" clip-rule="evenodd" d="M118.099 57.2227C118.357 57.3313 118.561 57.2498 118.778 57.3313C120.666 57.9833 123.016 56.8695 122.323 54.5741C123.559 55.7829 121.277 59.26 118.113 57.2227H118.099Z" fill="#C4BECB"/>
<path fill-rule="evenodd" clip-rule="evenodd" d="M121.44 53.9086C122.88 55.3347 121.399 57.2906 119.484 56.6251C121.522 56.9103 122.269 55.2125 121.44 53.9086Z" fill="#C3BECA"/>
<path fill-rule="evenodd" clip-rule="evenodd" d="M107.505 53.895C105.536 55.1853 106.622 56.7745 107.532 57.1548C107.179 56.9103 106.826 56.0138 107.899 56.5028C108.252 56.6522 108.564 56.6658 108.877 56.6386C106.867 55.9867 107.315 54.9137 107.505 53.8814V53.895Z" fill="#DFDDE2"/>
<path fill-rule="evenodd" clip-rule="evenodd" d="M113.237 52.1021C113.278 52.7676 113.359 53.3109 113.454 53.732C112.829 54.9816 112.055 55.8373 111.281 56.4349C112.205 55.5385 112.911 54.6556 113.223 53.7184C111.62 56.2176 110.52 56.5979 109.379 56.6522C110.806 56.3262 112.87 55.1038 113.25 52.1157H113.237V52.1021Z" fill="#DFDDE2"/>
<path fill-rule="evenodd" clip-rule="evenodd" d="M113.481 53.8271C113.522 54.0172 113.576 54.2346 113.685 54.384C111.661 58.2685 108.972 58.1599 108.062 57.8339C109.8 58.0105 109.202 57.6981 108.632 57.603C110.697 57.6709 112.517 56.2719 113.481 53.8407V53.8271Z" fill="#C3BEC9"/>
<path fill-rule="evenodd" clip-rule="evenodd" d="M111.824 32.462C112.082 32.2854 112.218 32.0681 112.354 31.8643C112.408 31.973 112.503 32.0545 112.653 32.1631C112.272 32.2854 112.137 32.8423 111.933 32.8423C111.906 32.72 111.892 32.5842 111.838 32.4484L111.824 32.462Z" fill="#C4BECA"/>
<path fill-rule="evenodd" clip-rule="evenodd" d="M112.666 32.1631C113.237 32.3669 113.821 32.3397 114.527 31.8372C114.595 31.9051 114.677 31.973 114.758 32.0545C114.079 32.5435 112.952 32.4212 112.639 32.1496H112.653L112.666 32.1631Z" fill="#C3BDC9"/>
<path fill-rule="evenodd" clip-rule="evenodd" d="M115.111 32.1496C115.519 32.2175 115.913 32.3125 116.429 32.0273C116.497 32.1224 116.578 32.2039 116.646 32.2718C116.483 32.4348 115.6 32.4212 115.084 32.1496H115.098H115.111Z" fill="#C3BDC9"/>
<path fill-rule="evenodd" clip-rule="evenodd" d="M116.782 31.0765C116.904 31.158 117.148 31.4025 117.366 31.5248C117.203 31.7557 117.026 32.0273 116.863 32.3261C116.116 31.6742 116.646 30.9951 116.782 31.0765Z" fill="#C3BDC9"/>
<path fill-rule="evenodd" clip-rule="evenodd" d="M111.308 31.2531C111.417 31.4025 111.485 31.4976 111.552 31.6198C112.014 31.2939 112.164 30.9543 112.313 30.6147C112.245 30.574 112.191 30.5197 112.137 30.4246C111.77 31.063 111.552 31.1445 111.294 31.2803L111.308 31.2531Z" fill="#C3BDC9"/>
<path fill-rule="evenodd" clip-rule="evenodd" d="M112.354 30.6283L112.299 30.7234C113.209 31.2395 114.676 31.6334 116.551 30.6827L116.374 30.3024C115.165 31.2531 113.793 31.4161 112.367 30.6283H112.354Z" fill="#C3BDC9"/>
<path fill-rule="evenodd" clip-rule="evenodd" d="M116.7 30.6147C117.23 30.5197 117.053 29.8541 117.556 29.6504C118.357 30.8592 119.756 30.5604 120.313 29.6232L120.395 30.3024C119.865 30.6419 119.159 31.2395 117.977 30.6827C117.882 30.8728 117.868 31.1852 117.855 31.5383C117.339 31.3754 116.918 31.0901 116.714 30.6147H116.7Z" fill="#C3BDC9"/>
<path fill-rule="evenodd" clip-rule="evenodd" d="M118.343 28.3601C118.547 28.754 118.343 29.6504 118.371 29.9628C117.977 29.9085 117.759 29.5825 117.542 29.3244C117.583 29.3244 117.61 29.3108 117.623 29.2701C117.664 29.0256 118.14 28.9034 118.33 28.3601H118.343Z" fill="#C3BDC9"/>
<path fill-rule="evenodd" clip-rule="evenodd" d="M114.785 29.4738L114.744 29.5282C115.369 29.7455 116.659 29.8677 117.569 29.2429L117.406 28.9441C116.768 29.4874 115.939 29.7455 114.785 29.4602V29.4738Z" fill="#C3BECA"/>
<path fill-rule="evenodd" clip-rule="evenodd" d="M114.432 29.2701C114.541 29.3516 114.649 29.4331 114.758 29.4602C113.902 30.2344 112.666 30.0307 111.43 29.3787V29.2701C112.87 30.0443 113.861 29.827 114.445 29.2701H114.432Z" fill="#C3BDC9"/>
<path fill-rule="evenodd" clip-rule="evenodd" d="M111.349 29.2701C111.661 29.7455 110.887 29.8949 110.873 30.6012L110.561 30.2209C110.561 29.7591 111.172 29.827 111.322 29.2565H111.335L111.349 29.2701Z" fill="#C3BEC9"/>
<path fill-rule="evenodd" clip-rule="evenodd" d="M110.507 30.0714L109.923 29.175C109.311 28.3736 111.349 28.2107 111.118 26.703C111.24 26.7981 111.376 26.9339 111.512 27.0154C111.444 28.2242 110.371 28.1971 110.357 29.0256C110.221 28.9713 110.153 28.849 110.126 28.6725C110.072 28.7132 110.058 28.7132 110.004 28.7675C109.76 29.0935 110.126 29.2701 110.507 30.0443H110.52L110.507 30.0714Z" fill="#C3BEC9"/>
<path fill-rule="evenodd" clip-rule="evenodd" d="M111.063 28.4416C111.661 28.5231 112.245 28.4416 112.802 27.9118C112.897 28.0069 112.965 28.102 113.114 28.1971C112.408 28.6317 111.444 28.686 111.063 28.4416Z" fill="#C3BDC9"/>
<path fill-rule="evenodd" clip-rule="evenodd" d="M113.142 28.2107L113.074 28.265C114.065 28.8355 115.437 28.8219 116.184 28.3193C116.075 28.265 115.994 28.1835 115.899 28.1156C115.002 28.7675 113.685 28.5638 113.142 28.2242V28.2107Z" fill="#C4BECA"/>
<path fill-rule="evenodd" clip-rule="evenodd" d="M116.211 28.3193L116.157 28.3872C116.849 28.6725 117.732 28.6317 118.33 28.3057C118.289 28.1971 118.248 28.0884 118.167 27.9798C117.515 28.4959 116.863 28.4551 116.197 28.3193H116.211Z" fill="#C4BEC9"/>
<path fill-rule="evenodd" clip-rule="evenodd" d="M111.62 27.0969C112.652 27.6266 113.78 27.2735 114.391 26.7302C114.5 26.866 114.595 26.9339 114.717 27.0154C113.956 27.6809 111.973 27.5995 111.62 27.0969Z" fill="#C4BEC9"/>
<path fill-rule="evenodd" clip-rule="evenodd" d="M114.744 27.029L114.69 27.0697C115.627 27.7081 117.04 27.3142 117.42 27.0697C117.379 26.9203 117.325 26.7845 117.284 26.6758C116.632 27.2327 115.654 27.4093 114.744 27.0154V27.029Z" fill="#C3BDC9"/>
<path fill-rule="evenodd" clip-rule="evenodd" d="M109.013 25.7115L109.149 25.7794C109.284 25.5757 109.407 25.5349 109.474 25.6164C109.529 25.6979 109.42 25.8337 109.57 25.9831C110.045 25.6028 111.159 25.3448 111.281 24.7879C111.485 25.3584 112.177 25.3719 112.734 26.3499C112.612 25.6164 111.838 25.3991 111.525 24.8966C111.213 24.394 111.403 23.7692 111.648 22.9543C111.132 23.647 111.539 24.6521 110.683 25.1003C110.14 25.3855 109.121 25.3176 109.013 25.6979V25.7115Z" fill="#C3BDC9"/>
<path fill-rule="evenodd" clip-rule="evenodd" d="M113.467 22.1801L113.495 22.8456C112.612 23.1987 113.304 25.3991 112.951 25.8881C112.815 24.0137 112.028 23.321 113.467 22.1937V22.1801Z" fill="#C3BDC9"/>
<path fill-rule="evenodd" clip-rule="evenodd" d="M114.174 23.7828H114.283C114.391 25.0052 115.695 25.1275 115.912 26.3499C115.627 25.5078 114.907 25.2633 114.5 24.8151C114.283 25.7658 113.128 26.0375 112.856 26.5672C112.775 26.1326 114.432 25.5213 114.16 23.7828H114.174Z" fill="#C3BDC9"/>
<path fill-rule="evenodd" clip-rule="evenodd" d="M116.143 22.6011C115.464 23.6741 116.809 24.3533 116.089 26.1461C116.469 23.8235 114.839 24.0001 115.872 22.3159C116.238 22.669 117.461 23.0086 117.569 23.5926C117.148 23.0086 116.523 22.9678 116.143 22.5875V22.6011Z" fill="#C3BDC9"/>
<path fill-rule="evenodd" clip-rule="evenodd" d="M117.542 23.7556C117.665 24.1767 117.773 24.3261 117.895 24.6113C117.515 25.8202 116.062 26.2412 115.967 26.6894C115.722 26.119 117.556 25.8066 117.542 23.7692V23.7556Z" fill="#C3BDC9"/>
<path fill-rule="evenodd" clip-rule="evenodd" d="M118.941 22.5061C118.71 22.4517 118.493 22.5061 118.235 22.248C118.276 22.6419 118.208 22.8728 118.167 23.1173C118.642 23.4025 118.955 25.9696 119.159 26.0782C119.063 24.9781 119.104 23.5112 118.439 22.7234L118.466 22.5875C118.67 22.6555 118.833 22.6419 118.955 22.5196L118.941 22.5061Z" fill="#C3BDC9"/>
<path fill-rule="evenodd" clip-rule="evenodd" d="M109.95 24.5162C110.412 23.8371 110.819 23.0222 111.403 22.6011C111.987 22.1801 112.367 22.3566 113.549 21.3787L113.997 20.2106C112.992 21.6775 111.811 22.6962 110.113 22.3431C110.208 22.3974 110.262 22.5332 110.982 22.574C110.615 22.9271 110.316 23.6877 109.963 24.5162H109.95Z" fill="#C3BDC9"/>
<path fill-rule="evenodd" clip-rule="evenodd" d="M109.705 21.27C110.602 21.7183 111.702 21.9492 113.576 19.2599C113.984 19.1512 114.364 18.9339 114.731 18.5536C113.522 21.4466 110.085 23.2395 109.705 21.27Z" fill="#DFDDE2"/>
<path fill-rule="evenodd" clip-rule="evenodd" d="M113.698 22.9407C115.138 17.5349 119.484 14.3023 115.722 11.4364C118.452 16.1631 114.106 18.1597 113.698 22.9407Z" fill="#F1EEF0"/>
<path fill-rule="evenodd" clip-rule="evenodd" d="M112.666 18.2819C112.734 19.7081 114.527 18.6486 114.961 17.725C114.242 18.214 113.508 18.6622 112.666 18.2819Z" fill="#DFDDE2"/>
<path fill-rule="evenodd" clip-rule="evenodd" d="M115.355 16.0816C115.518 15.8507 115.545 16.068 115.831 16.1223C115.179 17.4941 114.065 17.8609 113.467 17.888C114.296 17.4534 115.043 16.9644 115.355 16.068V16.0816Z" fill="#DFDDE2"/>
<path fill-rule="evenodd" clip-rule="evenodd" d="M114.935 13.7726L115.07 13.9084C115.261 13.9084 115.464 13.9084 115.668 13.7182C115.668 13.8812 115.614 13.9627 115.519 14.017C115.627 15.0086 115.519 15.5926 115.383 16.0408C115.546 15.8642 115.695 16.1087 115.858 16.1087C116.103 15.7148 116.524 14.3566 115.858 13.1885C115.872 13.5281 115.505 13.8676 114.948 13.7861H114.935V13.7726Z" fill="#C3BDC9"/>
<path fill-rule="evenodd" clip-rule="evenodd" d="M112.584 13.3515C113.671 12.9033 114.296 13.6911 114.785 13.759C115.559 14.8999 114.758 15.8914 114.242 16.5026C114.595 15.9186 115.097 13.5417 112.598 13.3515H112.584Z" fill="#C3BDC9"/>
<path fill-rule="evenodd" clip-rule="evenodd" d="M113.562 23.5791C114.744 24.1359 115.301 22.7913 115.858 22.2752C115.573 21.6368 115.668 21.1071 115.641 20.5502C114.608 21.1071 114.636 23.1444 113.562 23.5926V23.5791Z" fill="#CECAD5"/>
<path fill-rule="evenodd" clip-rule="evenodd" d="M117.596 14.0442C117.501 14.085 117.488 14.4788 117.365 14.4653C117.284 17.1953 114.798 18.703 114.214 22.6419C114.581 22.2208 114.839 20.5502 115.763 19.029C116.741 17.4398 117.691 16.5298 117.583 14.0442H117.596Z" fill="#CECAD5"/>
<path fill-rule="evenodd" clip-rule="evenodd" d="M116.333 19.1919C115.342 21.8541 117.311 21.8813 117.474 22.7505C115.437 22.0714 115.301 20.5909 116.333 19.1919Z" fill="#DFDDE2"/>
<path fill-rule="evenodd" clip-rule="evenodd" d="M116.7 11.5586C119.987 13.6911 117.162 17.9967 115.939 19.1648C116.428 18.0782 119.376 15.0765 116.7 11.5586Z" fill="#DFDDE2"/>
<path fill-rule="evenodd" clip-rule="evenodd" d="M117.814 10.377C118.153 10.9882 118.697 11.9661 117.895 11.7759C119.294 14.8727 117.759 16.4755 116.985 18.2004C115.369 22.4246 118.045 20.7539 117.732 23.6877C118.642 22.6283 117.447 21.0799 117.515 20.5366C117.447 19.7624 117.936 18.1054 118.099 17.0867C118.289 17.6435 118.588 17.9831 118.955 18.2004C118.33 16.0001 120.286 11.6809 117.827 10.3905H117.814V10.377Z" fill="#CECAD5"/>
<path fill-rule="evenodd" clip-rule="evenodd" d="M118.126 17.6435C118.275 17.8609 118.384 18.1189 118.656 18.2683C118.778 19.1376 117.583 21.8541 119.389 22.0578C117.909 22.7913 117.107 20.6724 118.126 17.6571V17.6435Z" fill="#CECAD5"/>
<path fill-rule="evenodd" clip-rule="evenodd" d="M117.338 9.53485C117.651 9.56202 118.384 10.0781 119.077 9.53485C119.552 10.1732 118.669 10.7165 117.746 10.2411C117.515 10.0917 118.276 10.0238 117.338 9.54843V9.53485Z" fill="#C3BDC9"/>
<path fill-rule="evenodd" clip-rule="evenodd" d="M111.851 9.76575C112.136 10.0782 112.408 10.2411 112.68 10.9746C112.87 10.9746 113.073 11.0018 113.264 11.0561C112.938 10.54 112.544 10.0646 111.851 9.76575Z" fill="#DFDDE2"/>
<path fill-rule="evenodd" clip-rule="evenodd" d="M114.839 8.86932C117.692 9.62993 117.434 8.31244 117.95 8.12228C118.452 8.92365 117.053 9.98307 114.839 8.86932Z" fill="#C3BDC9"/>
<path fill-rule="evenodd" clip-rule="evenodd" d="M111.349 9.42619C111.186 9.37186 111.036 9.38544 110.941 9.39903C111.186 7.34808 113.468 8.65199 114.69 9.41261C113.142 8.67916 111.213 7.72839 111.349 9.41261V9.42619Z" fill="#C3BEC9"/>
<path fill-rule="evenodd" clip-rule="evenodd" d="M111.362 9.42619C111.24 7.1036 114.595 9.76575 116.143 9.84725C115.057 9.96949 111.498 7.60615 111.539 9.45336L111.376 9.41261L111.362 9.42619Z" fill="#F1EEF0"/>
<path fill-rule="evenodd" clip-rule="evenodd" d="M111.566 9.4941L111.851 9.60276C111.878 9.39903 111.96 9.16812 112.055 9.14096C112.707 9.01872 112.096 9.3447 112.204 9.46694C112.327 9.54843 112.462 9.64351 112.612 9.725C112.612 9.62993 112.612 9.52127 112.625 9.37186C112.625 8.84215 114.16 9.69784 115.233 10.0374C115.342 10.3634 114.636 10.7437 114.079 10.635C114.581 11.0425 115.654 10.8388 116.13 10.1868C116.958 10.2411 117.135 10.1189 117.311 9.90157C116.686 9.77933 116.388 10.0781 114.812 9.65709C113.359 9.23604 111.607 8.01362 111.566 9.48052V9.4941Z" fill="#C3BDC9"/>
<path fill-rule="evenodd" clip-rule="evenodd" d="M112.883 9.23604C113.06 9.22246 113.223 9.27679 113.386 9.3447C113.06 9.84725 113.535 10.3226 113.807 10.2411C113.888 10.3226 113.984 10.4041 114.282 10.472C113.861 10.5535 112.449 10.1189 112.883 9.22246V9.23604Z" fill="#B6B1BF"/>
<path fill-rule="evenodd" clip-rule="evenodd" d="M109.135 12.1019C107.546 9.04588 112.136 8.50259 112.598 11.0425C112.598 11.0425 113.739 11.0832 114.744 11.6265C116.7 13.0527 115.505 13.8541 115.125 13.7997C114.215 13.8133 114.038 12.9305 112.72 13.27C112.394 13.3923 112.381 13.5552 112.245 13.5552C111.457 13.3651 112.897 11.7624 114.473 12.9169C114.608 13.0119 114.921 12.8218 114.649 12.5094C113.603 11.45 111.783 12.034 111.389 12.1291C110.887 11.3006 109.759 11.4907 109.162 12.1291L109.135 12.1019Z" fill="#F6D155"/>
<path fill-rule="evenodd" clip-rule="evenodd" d="M113.685 9.61635C113.875 9.76575 114.894 9.94233 114.921 10.0374C114.595 10.798 113.535 10.5671 113.685 9.61635Z" fill="#AAA3B5"/>
<path fill-rule="evenodd" clip-rule="evenodd" d="M120.462 30.2888C120.462 30.2888 120.435 30.3159 120.462 30.3431C120.693 30.4653 121.006 30.5333 121.359 30.5604L122.201 35.4501C122.133 34.1869 122.051 32.8558 122.024 31.647C121.929 31.4161 121.861 30.9815 121.807 30.5468C121.916 30.5468 122.011 30.5197 122.133 30.4925C122.663 33.5893 123.939 34.2005 124.197 34.445C123.518 33.7387 122.595 32.7336 122.309 30.4246C122.771 30.1801 122.975 29.8677 123.111 29.8134C123.152 29.6911 123.124 29.3652 123.07 29.2293C122.608 29.664 122.201 30.1801 121.277 30.1122C121.223 30.1122 121.277 30.1937 121.277 30.1937C121.644 30.6691 120.91 30.3703 120.53 30.2888H120.503H120.462Z" fill="#C3BDC9"/>
<path fill-rule="evenodd" clip-rule="evenodd" d="M122.228 35.9662L122.269 36.6997C122.731 36.4009 123.165 36.3058 123.776 34.9068C124.021 37.4195 124.062 39.8508 125.515 40.3533C124.768 38.6284 124.768 36.7404 124.714 34.9204C124.632 35.029 124.537 35.1105 124.456 35.2056C123.858 34.8525 123.681 34.5808 123.355 34.2548C123.165 34.8796 123.043 35.5316 122.255 35.9662H122.242H122.228Z" fill="#CECAD5"/>
<path fill-rule="evenodd" clip-rule="evenodd" d="M123.315 29.9085C123.505 29.9764 123.749 30.0035 123.98 30.0035L124.225 33.6436L123.301 29.9085H123.315Z" fill="#DFDDE2"/>
<path fill-rule="evenodd" clip-rule="evenodd" d="M125.053 29.6368L125.176 29.5553C125.475 30.2209 125.868 30.8049 126.452 31.2667L128.028 41.8202L125.76 31.2395C125.76 33.0596 125.244 34.282 124.429 35.0969L124.347 34.4042C125.216 33.2362 125.733 31.8236 125.067 29.6368H125.053Z" fill="#C3BDC9"/>
<path fill-rule="evenodd" clip-rule="evenodd" d="M127.457 32.0816C127.688 32.2175 127.973 32.3397 128.286 32.4348C129.237 35.6267 129.59 41.9017 128.34 44.1836L128.232 43.3143C126.045 41.6437 125.488 36.9713 125.053 34.3635L125.121 34.2413C125.542 36.6182 126.045 41.2226 128.191 43.0834C128.585 41.861 129.413 38.3296 127.906 32.462C127.797 32.3397 127.607 32.2175 127.457 32.0816Z" fill="#C4BEC9"/>
<path fill-rule="evenodd" clip-rule="evenodd" d="M126.113 28.686C126.303 28.6589 126.412 28.686 126.71 28.6046L128.802 31.7285L126.113 28.686Z" fill="#DFDDE2"/>
<path fill-rule="evenodd" clip-rule="evenodd" d="M128.354 32.462C128.666 32.557 129.033 32.6521 129.427 32.7472C129.427 32.8423 132.483 40.6793 134.615 41.2769C131.899 41.8202 130.527 37.0528 128.761 34.2412C128.639 33.6436 128.503 33.0596 128.354 32.4891V32.462Z" fill="#DFDDE2"/>
<path fill-rule="evenodd" clip-rule="evenodd" d="M128.001 27.7489C128.001 27.7489 127.947 27.8304 127.906 27.8575C129.142 29.7862 129.169 30.9543 129.006 32.0002L129.508 32.6521C129.753 31.1852 129.495 30.0986 129.128 29.0664L135.295 38.0172L129.848 29.2973L131.003 29.4602C130.038 29.1343 129.06 29.0256 127.987 27.7353L128.001 27.7489Z" fill="#C3BDC9"/>
<path fill-rule="evenodd" clip-rule="evenodd" d="M131.708 29.4874C131.939 29.4874 132.157 29.4874 132.32 29.4331C133.542 31.4297 136.693 35.029 136.313 39.9594L135.919 39.2124C132.999 38.5469 130.961 34.866 129.929 33.372C131.641 35.6267 133.583 38.574 135.851 39.0223C136.028 35.3414 133.27 31.7557 131.695 29.4738L131.708 29.4874Z" fill="#C3BDC9"/>
<path fill-rule="evenodd" clip-rule="evenodd" d="M132.361 29.4195L132.47 29.5961C135.172 31.0358 138.215 33.8881 140.089 31.7828C138.133 32.557 134.996 29.8134 132.918 28.7811L133.013 29.2293C132.795 29.338 132.578 29.3652 132.374 29.4059H132.361V29.4195Z" fill="#DFDDE2"/>
<path fill-rule="evenodd" clip-rule="evenodd" d="M128.53 26.0511C128.53 26.1325 128.53 26.1869 128.517 26.2412L131.871 28.3329L128.802 25.8745C128.734 25.956 128.625 25.9831 128.517 26.0375L128.53 26.0511Z" fill="#DFDDE2"/>
<path fill-rule="evenodd" clip-rule="evenodd" d="M132.714 28.0069C132.768 28.2242 132.836 28.4551 132.877 28.686C136.897 30.5468 139.315 30.0986 140.483 29.3516L139.858 29.1343C138.093 30.3024 133.8 28.7268 132.714 28.0069Z" fill="#C3BDC9"/>
<path fill-rule="evenodd" clip-rule="evenodd" d="M129.509 24.8422C129.509 24.8422 129.481 24.9509 129.468 25.0052C131.179 25.9152 132.361 27.5859 132.32 28.7404L132.904 29.2158C132.687 27.2871 131.981 26.5672 131.288 25.8609L139.464 29.0663L131.519 25.3448C132.578 25.1139 133.678 25.0324 134.602 23.9322L136.463 23.8643C138.065 23.6198 139.872 22.6962 140.062 21.8269L139.464 21.8948C138.704 23.5926 135.675 23.5383 134.099 23.5926C133.38 24.9645 131.057 25.0595 129.495 24.8422H129.509Z" fill="#C3BDC9"/>
<path fill-rule="evenodd" clip-rule="evenodd" d="M134.086 24.4619C133.882 24.6249 133.665 24.7471 133.447 24.8422C134.303 25.0188 135.091 25.2633 135.824 25.5349C137.943 25.7522 140.035 25.4399 140.13 23.647C139.233 25.0867 136.707 24.8151 134.099 24.4755H134.086V24.4619Z" fill="#DFDDE2"/>
<path fill-rule="evenodd" clip-rule="evenodd" d="M129.481 23.2123C129.535 23.3889 129.562 23.5519 129.59 23.7149L133.922 23.6062C132.442 23.484 130.921 23.3753 129.481 23.2123Z" fill="#DFDDE2"/>
<path fill-rule="evenodd" clip-rule="evenodd" d="M131.573 21.4602C132.456 21.8677 133.257 22.3159 133.895 22.832L133.325 22.3023C135.172 22.1529 137.06 21.9899 139.152 21.8813L132.564 21.8405L131.573 21.4602Z" fill="#C3BDC9"/>
<path fill-rule="evenodd" clip-rule="evenodd" d="M130.187 21.6232C130.174 21.7183 130.119 21.7998 130.079 21.9084L131.532 21.4874C133.705 19.9254 133.8 19.1648 134.085 18.3091L137.386 16.2446L133.624 18.1054C131.586 18.1189 131.057 18.4177 130.445 18.5807C132.17 18.2004 133.311 18.1461 133.936 18.3498L133.529 18.5943C133.012 20.3193 131.057 21.3244 130.174 21.6368H130.187V21.6232Z" fill="#C3BDC9"/>
<path fill-rule="evenodd" clip-rule="evenodd" d="M130.174 20.197C130.228 20.3057 130.242 20.4415 130.269 20.5773C131.301 20.0205 132.279 19.4093 133.23 18.7845C132.211 19.287 131.179 19.8032 130.16 20.2242L130.174 20.197Z" fill="#DFDDE2"/>
<path fill-rule="evenodd" clip-rule="evenodd" d="M132.958 20.4279C134.126 20.3329 135.294 20.3057 136.53 20.4008C136.815 20.2514 139.763 19.3821 139.057 17.8201C138.201 19.5315 135.063 20.1155 134.805 20.2514C134.303 20.3057 133.094 20.3464 132.972 20.4279H132.958Z" fill="#DFDDE2"/>
<path fill-rule="evenodd" clip-rule="evenodd" d="M137.821 16.0137L138.473 15.7284C138.54 15.8507 138.065 16.7471 137.237 17.6843C136.136 18.8931 135.498 19.4228 133.42 19.8031C133.461 19.7488 133.501 19.6945 133.529 19.6402C135.145 19.2055 137.359 17.63 137.821 16.0272V16.0137Z" fill="#DFDCE1"/>
<path fill-rule="evenodd" clip-rule="evenodd" d="M130.894 17.7386L130.704 18.0374C132.551 16.7064 134.031 15.8778 135.145 15.5247C136.259 14.3566 136.517 13.1885 136.055 12.5094C136.123 14.6826 132.673 16.3125 130.88 17.7386H130.894Z" fill="#DFDDE2"/>
<path fill-rule="evenodd" clip-rule="evenodd" d="M129.699 18.5672L129.631 19.124C131.016 18.1189 131.749 16.2989 131.559 14.7641L131.07 15.2666L128.924 17.0052C129.033 17.1003 129.155 17.2089 129.25 17.3176L131.07 15.321C131.193 16.9644 130.079 18.2412 129.699 18.5672Z" fill="#C3BEC9"/>
<path fill-rule="evenodd" clip-rule="evenodd" d="M131.559 15.9865L131.437 16.4483C132.333 15.8914 132.945 15.3074 133.502 14.7097C135.036 12.9305 135.227 11.3821 135.362 10.6214L134.71 11.1512C134.819 13.4194 132.279 15.5926 131.586 15.9729H131.559V15.9865Z" fill="#DFDDE2"/>
<path fill-rule="evenodd" clip-rule="evenodd" d="M130.812 14.7098C131.056 14.7098 131.328 14.6962 131.573 14.7098L134.588 11.2598L130.812 14.7098Z" fill="#C3BDC9"/>
<path fill-rule="evenodd" clip-rule="evenodd" d="M128.598 12.7539L128.218 13.1885C128.367 14.0442 128.367 15.1851 127.118 16.5705L127.158 16.6385L127.24 16.6113C128.245 15.3753 129.291 15.0493 130.337 14.7505C129.726 14.8999 129.114 14.995 128.422 15.3617C128.897 13.9356 128.68 13.2157 128.585 12.7675L128.598 12.7539Z" fill="#C3BDC9"/>
<path fill-rule="evenodd" clip-rule="evenodd" d="M128.734 13.8948V14.18C129.807 13.5145 130.893 12.7131 131.885 11.613C132.455 10.8795 133.189 9.83367 133.298 8.4211L132.727 8.86932C132.618 11.2191 129.576 13.2429 128.747 13.9084L128.734 13.8948Z" fill="#DFDDE2"/>
<path fill-rule="evenodd" clip-rule="evenodd" d="M126.289 13.5824C127.172 13.2021 128.014 12.849 128.598 12.7267L132.388 9.20887C131.369 9.94232 129.237 11.7895 128.232 12.5366C127.879 12.7946 127.539 12.781 126.262 13.5824H126.276H126.289Z" fill="#DFDDE2"/>
<path fill-rule="evenodd" clip-rule="evenodd" d="M132.605 8.86931C123.002 10.5399 117.692 22.1122 124.103 21.0663L123.736 20.9848C122.459 21.0935 122.12 19.9797 122.242 19.2734C122.35 18.5128 123.098 18.0782 123.301 18.0103C123.247 17.3311 123.22 16.6384 123.885 16.0816C124.143 15.4432 124.456 15.1036 124.768 14.7777C125.773 11.124 130.867 9.30395 132.592 8.88289L132.605 8.86931Z" fill="#F1EEF0"/>
<path fill-rule="evenodd" clip-rule="evenodd" d="M128.137 13.1614C126.941 13.3379 125.298 14.669 125.04 15.2259C125.013 15.2802 125.04 15.3617 124.619 15.5926V15.6605C125.054 15.4839 126.167 15.6605 125.121 15.905C125.801 15.8914 126.398 16.1495 126.806 17.0731C129.02 16.7335 129.576 18.3498 129.02 19.4228C130.486 20.686 129.563 22.3159 128.762 22.6283C129.25 23.7149 129.495 25.1546 128.014 25.7115C128.014 26.6759 127.879 28.1835 125.597 28.1699C125.312 28.8219 124.51 29.9356 123.125 29.338V29.4195C123.098 29.4874 123.695 29.6368 123.709 29.6096C124.184 29.664 124.239 29.9764 123.668 29.827C123.464 29.7726 123.274 29.7183 123.125 29.6504C123.125 29.6504 123.125 29.7455 123.098 29.7998C124.592 30.3159 125.447 29.4059 125.909 28.6453C127.689 28.5502 128.422 27.5723 128.517 26.0375C129.97 25.1275 129.767 23.7556 129.318 22.8049C130.609 21.8269 130.514 20.1291 129.536 19.3414C130.201 17.1003 128.218 16.5026 127.159 16.652C126.806 16.0544 126.575 15.9729 126.317 15.7963L128.191 13.2429L125.909 15.5926C125.692 15.5111 125.38 15.4839 125.013 15.4975C125.502 14.2887 127.39 13.3515 128.15 13.1478H128.123L128.137 13.1614Z" fill="#C3BDC9"/>
<path fill-rule="evenodd" clip-rule="evenodd" d="M110.669 10.4856C110.955 10.9203 111.43 10.3634 112.231 11.2055L112.326 11.1647C112.15 10.4449 111.661 10.0102 110.927 9.92874C111.24 10.1868 111.009 10.214 110.995 10.3905C110.995 10.54 110.995 10.7301 110.656 10.4856H110.669Z" fill="#DFA12F"/>
<path fill-rule="evenodd" clip-rule="evenodd" d="M109.393 11.8031C109.827 11.5722 110.778 11.2191 111.376 12.0476C113.264 11.4907 114.608 12.0069 114.785 12.7539C114.893 12.5501 114.364 11.4092 112.204 11.5994C110.37 10.309 109.325 11.4771 109.379 11.7895H109.393V11.8031Z" fill="#DFA12F"/>
<path fill-rule="evenodd" clip-rule="evenodd" d="M112.286 13.433C111.946 13.433 112.978 12.2106 114.649 13.3651C115.247 13.596 115.545 13.2972 115.423 12.7946C115.382 12.4279 115.192 12.2242 115.057 11.9389C115.912 12.5637 116.007 13.3651 115.437 13.6639C114.54 14.1121 113.916 12.5366 112.272 13.4194L112.286 13.433Z" fill="#DEA12F"/>
<path fill-rule="evenodd" clip-rule="evenodd" d="M110.887 30.6691L111.267 31.1988L111.172 31.1309C110.113 31.6334 109.569 31.4433 109.053 31.1988L108.999 31.158C107.912 31.3618 107.233 31.0901 106.649 30.6555C106.69 30.9815 106.907 31.226 107.206 31.4433L106.065 36.4144L106.608 31.7421C105.956 33.5621 105.101 34.4178 103.933 34.934L104.014 34.4178C105.087 33.8745 106.011 32.8287 106.432 30.574C105.997 30.6283 105.563 30.6827 105.142 30.574L104.069 34.2684L104.585 30.4518C104.123 30.1394 103.729 29.7591 103.349 29.3652V29.2973C103.457 29.4602 103.58 28.9577 103.566 28.8083C104.367 30.1122 105.508 30.3567 106.622 29.9764C106.622 30.0986 106.622 30.2073 106.568 30.3974H106.622C106.622 30.3974 106.69 30.2752 106.717 30.1801C106.69 30.1529 106.676 30.1122 106.663 30.0715V30.0307C107.288 31.1309 108.809 30.6148 108.999 30.7098C108.972 30.7642 108.999 30.9271 109.04 31.0766L109.067 31.1173C109.067 31.1173 109.094 30.9679 109.067 30.8592L109.013 30.7642L109.053 30.7913C109.569 31.1852 110.276 31.158 110.873 30.6691H110.887Z" fill="#C3BDC9"/>
<path fill-rule="evenodd" clip-rule="evenodd" d="M107.369 31.5519C107.722 31.7149 108.075 31.8507 108.483 31.9322C108.306 34.2684 107.111 36.9306 105.861 37.7319L105.889 37.08C105.576 36.5638 105.345 35.7625 105.277 34.0783L105.372 33.9832C105.4 35.1513 105.522 36.2107 105.916 37.0392C106.513 36.591 107.79 35.0969 108.007 32.2446C108.007 32.0681 107.967 31.9594 107.872 31.9051C107.641 31.7828 107.491 31.6742 107.355 31.5655H107.369V31.5519Z" fill="#C1C0C8"/>
<path fill-rule="evenodd" clip-rule="evenodd" d="M102.846 41.4263C104.191 41.7931 105.087 39.1852 105.59 37.4467C105.359 36.9713 105.019 36.4824 104.992 34.3635L104.883 34.4722C104.748 37.2022 104.72 40.2175 102.833 41.4263H102.846Z" fill="#C3BDC9"/>
<path fill-rule="evenodd" clip-rule="evenodd" d="M103.498 29.5553L103.579 29.6368C103.484 30.1529 102.792 32.0137 103.647 33.8474C103.158 33.1411 102.764 32.0137 103.511 29.5553H103.498Z" fill="#DFDDE3"/>
<path fill-rule="evenodd" clip-rule="evenodd" d="M102.764 30.6962L102.506 31.1173L99.654 42.7303L102.696 33.0596C102.846 33.6165 103.036 34.2005 103.824 35.1241C102.71 39.063 100.944 42.5944 99.4367 43.518L99.5725 43.0427C98.9341 41.0868 99.4503 36.9849 100.55 32.8423C99.8441 35.1105 98.3908 40.0545 99.3144 43.6674L99.0156 44.5639C102.017 42.5129 103.783 37.3788 104.449 34.7574C104.286 34.8796 104.095 34.9475 103.919 35.0154C102.968 34.1598 102.52 32.8151 102.778 30.6962H102.764Z" fill="#C3BDC9"/>
<path fill-rule="evenodd" clip-rule="evenodd" d="M100.972 27.45C101.039 27.8168 101.46 28.2242 101.664 28.591C101.773 28.7675 101.895 28.849 102.058 28.6317L102.18 28.428C102.493 28.7811 102.914 28.9713 103.552 28.8626L102.805 30.6012C101.922 32.299 100.768 32.6657 99.6133 33.0732L99.98 32.4076C101.488 32.2718 102.561 30.7777 103.118 29.4059C102.737 29.3244 102.384 29.175 101.963 28.9034L100.197 31.9866L101.365 28.8626C101.596 28.3736 100.972 27.9798 100.985 27.45H100.972Z" fill="#C3BDC9"/>
<path fill-rule="evenodd" clip-rule="evenodd" d="M100.252 32.8558C100.048 32.9373 99.8172 33.0188 99.5863 33.0732C97.644 37.4059 96.571 41.2634 93.1211 42.4722C96.245 43.0698 98.3503 38.0579 99.1109 36.5503C99.6678 35.1784 100.007 33.9153 100.252 32.8287V32.8558Z" fill="#CECAD5"/>
<path fill-rule="evenodd" clip-rule="evenodd" d="M100.673 27.5859C100.32 28.0069 99.1246 29.6776 99.8852 32.462L99.9531 32.3805C99.4098 30.5333 99.9803 28.4687 100.673 27.5723V27.5859Z" fill="#E0DEE4"/>
<path fill-rule="evenodd" clip-rule="evenodd" d="M99.3959 30.0443C99.3008 30.7642 99.328 31.3346 99.3687 31.9051C97.0325 36.0613 93.1208 39.8915 90.8525 40.0409C93.732 36.1835 96.6115 32.2039 99.491 28.265C99.6675 28.1835 99.8713 28.0613 100.048 27.9254C99.7354 28.3736 99.5996 28.7268 99.5453 29.0664L91.6267 39.226C94.2753 39.0087 98.6081 32.7336 99.2601 31.0494C99.2601 30.5468 99.328 30.2752 99.3959 30.0307H99.3823L99.3959 30.0443Z" fill="#C3BDC9"/>
<path fill-rule="evenodd" clip-rule="evenodd" d="M91.3283 39.3754L91.5049 39.1581C91.2876 35.2463 95.7154 30.5876 96.9107 29.1343C96.7205 29.5553 91.0567 34.5265 91.3283 39.4026V39.3754Z" fill="#DFDCE1"/>
<path fill-rule="evenodd" clip-rule="evenodd" d="M88.1094 32.3805C88.7749 33.4263 89.8887 34.0647 94.0856 31.5248C94.9277 30.6012 95.7563 29.664 96.5984 28.8626H96.3946C94.9821 29.4331 91.342 33.2497 88.1229 32.3805H88.1094Z" fill="#DFDDE2"/>
<path fill-rule="evenodd" clip-rule="evenodd" d="M99.0025 25.0188C98.4592 25.2361 96.3946 25.9967 96.1909 28.3193L95.7427 28.5638C98.5678 29.501 100.714 27.3686 101.135 26.9747C100.687 26.6894 100.238 26.4585 99.8717 25.793L99.4914 25.9696C98.5814 26.7166 97.4812 27.4636 96.4218 28.1699L99.7087 26.4993C99.8989 26.703 100.116 26.9339 100.578 27.2056C98.5814 28.5774 97.0194 28.4959 96.2724 28.3057C96.381 26.9611 97.196 25.8066 99.0025 25.0052V25.0188Z" fill="#C3BDC9"/>
<path fill-rule="evenodd" clip-rule="evenodd" d="M95.8238 27.7896C95.7695 28.0748 95.688 28.3737 95.7016 28.5774C94.8052 28.9305 93.8136 29.2158 92.6863 29.4059C92.6184 29.4195 92.3196 29.5282 92.2109 29.3244C92.0887 29.2429 91.9257 29.2293 91.7899 29.2429C91.7627 29.175 91.6269 29.2022 91.6133 29.1478C94.3433 28.6725 95.5794 28.0205 95.8238 27.8168V27.7896Z" fill="#CECAD5"/>
<path fill-rule="evenodd" clip-rule="evenodd" d="M92.7817 25.7794C92.0618 26.1326 89.0601 27.7217 88.5439 29.2429C90.0108 29.6911 91.0974 29.2973 91.763 29.2429C91.7358 29.2022 91.6136 29.2158 91.6 29.1478C90.5134 29.2973 89.2095 29.3787 88.8428 29.1614L89.1008 29.0256C89.1823 27.7353 92.2791 26.119 92.7681 25.7794H92.7817Z" fill="#DFDDE1"/>
<path fill-rule="evenodd" clip-rule="evenodd" d="M89.2773 28.9713C94.1534 27.1648 96.5168 25.7115 99.1246 24.8286V24.9101C98.9209 25.0324 97.1959 25.4399 96.5303 26.4178L89.2773 28.9713Z" fill="#C3BDC9"/>
<path fill-rule="evenodd" clip-rule="evenodd" d="M98.2958 25.1003C97.9562 25.2361 97.6302 25.3448 97.2771 25.5485C95.6879 25.3176 95.4299 24.9237 94.7372 24.5842L94.873 24.5298C95.1175 24.7064 95.4434 24.8558 95.7423 25.0052C96.2176 25.1546 96.3263 24.978 95.8509 24.8151C95.294 24.6385 94.9409 24.394 94.6421 24.1631C95.1854 23.1037 96.4757 22.5875 96.6523 22.5061C95.946 22.9679 95.1039 23.3889 94.9002 24.0952C96.0139 23.9322 97.1956 23.7285 98.6489 23.4161C98.7576 23.6062 98.8526 23.81 99.07 24.068L99.0292 24.1088L98.8119 23.8507L94.9273 24.1495C96.0003 24.883 97.1548 24.9509 98.2958 25.0867V25.1275V25.1003Z" fill="#C3BDC9"/>
<path fill-rule="evenodd" clip-rule="evenodd" d="M88.2993 23.6062C88.7475 25.1139 92.5234 24.72 94.751 24.5706L94.8596 24.5298C94.683 24.4076 94.5201 24.2853 94.425 24.1495C93.5014 23.9594 89.2908 24.8422 88.2993 23.6062Z" fill="#DFDDE2"/>
<path fill-rule="evenodd" clip-rule="evenodd" d="M95.4027 22.7913L95.4434 22.832C95.1854 23.0493 94.9137 23.2531 94.6557 23.5655C91.1786 23.5655 88.9782 22.1801 88.3398 21.3787C89.2091 20.686 90.2957 20.4279 91.4502 20.3193C90.4587 20.6181 89.3042 20.7811 88.7745 21.4059H88.53C90.1463 23.2123 94.4655 24.0273 95.4027 22.8049H95.4163L95.4027 22.7913Z" fill="#DFDDE2"/>
<path fill-rule="evenodd" clip-rule="evenodd" d="M88.9922 21.4602C91.3012 21.7862 93.5695 22.0714 95.96 22.4517C96.2859 22.1665 96.87 21.9763 97.7528 21.922C97.4405 21.922 97.196 21.8813 96.707 21.9492C94.0584 21.9899 91.5593 21.6504 88.9922 21.4602Z" fill="#C3BDC9"/>
<path fill-rule="evenodd" clip-rule="evenodd" d="M98.921 21.1071C98.7036 21.3244 98.5814 21.6639 98.4999 22.0307C95.9464 21.1886 95.5389 19.613 95.4438 19.4364C96.9787 18.377 97.9023 18.7709 99.1654 18.7437C96.4625 18.6215 95.7562 19.3278 95.6476 19.4636C96.6663 19.7488 97.3726 19.9933 99.5457 20.36C99.342 20.5094 99.2062 20.6453 99.1111 20.7811C98.269 20.4279 96.7206 19.9526 95.6204 19.5315C95.797 20.265 96.9243 21.3651 97.8887 21.6639C98.1468 21.7319 98.4456 21.8677 98.5542 21.5281C98.595 21.3923 98.7987 21.1614 98.9074 21.1206H98.921V21.1071Z" fill="#C3BDC9"/>
<path fill-rule="evenodd" clip-rule="evenodd" d="M89.2227 17.7658C89.7116 18.2548 91.5588 19.8711 94.968 19.4636C95.0903 19.8032 95.2261 19.9254 95.3619 20.0476C94.4519 19.9118 93.5554 19.8167 92.6318 19.8846C91.1378 19.4364 89.7795 18.8931 89.2227 17.7658Z" fill="#DFDDE2"/>
<path fill-rule="evenodd" clip-rule="evenodd" d="M96.1635 18.4585C96.1635 18.4585 96.2586 18.5264 96.3265 18.54C95.7696 18.7573 95.3349 19.0018 95.009 19.2463C93.2976 18.7166 90.8663 17.4534 89.9971 15.8642C91.0565 15.3889 92.8494 15.6198 93.8952 15.8642C92.7407 15.8642 91.3417 15.6198 90.6626 16.068L90.1329 15.8914C90.3366 16.5705 93.9903 19.7488 96.1499 18.4585H96.1635Z" fill="#DFDDE2"/>
<path fill-rule="evenodd" clip-rule="evenodd" d="M90.8393 16.1767C93.0124 16.9373 95.0906 17.6979 96.8155 18.4177C97.3588 18.2955 97.8885 18.3227 98.4182 18.4177C98.296 18.2955 98.1738 18.2004 98.0651 18.0239H98.0244L98.2417 18.3363C95.2943 17.3312 93.1211 16.7743 90.8393 16.1902H90.8257L90.8393 16.1767Z" fill="#C3BDC9"/>
<path fill-rule="evenodd" clip-rule="evenodd" d="M97.6982 17.0323C97.5352 16.7199 97.3722 16.394 97.3587 15.9322C96.5301 16.3261 92.8085 14.6962 91.9121 12.6588C91.9664 14.4381 95.1583 15.8507 97.6982 17.0188V17.0323Z" fill="#DFDDE2"/>
<path fill-rule="evenodd" clip-rule="evenodd" d="M99.8581 18.1461C99.7494 18.2683 99.6544 18.4313 99.505 18.4992C99.437 18.54 99.3691 18.54 99.3012 18.4992C97.9837 17.6435 97.7121 16.1902 97.7528 15.8914C98.7715 15.7284 100.17 15.742 102.126 16.9508C101.692 16.8558 100.266 15.7963 97.943 15.9865C97.9022 16.7743 98.4999 18.2955 99.8309 18.1461H99.8445H99.8581Z" fill="#C3BDC9"/>
<path fill-rule="evenodd" clip-rule="evenodd" d="M98.1328 16.1359L100.469 17.8337C100.781 17.8473 101.067 17.8337 101.379 17.9831C101.393 17.9288 101.42 17.8473 101.474 17.7386C100.197 17.2089 99.2466 16.6656 98.1328 16.1359Z" fill="#C3BDC9"/>
<path fill-rule="evenodd" clip-rule="evenodd" d="M92.8628 10.6894L93.4876 11.0697C93.4061 12.4822 95.9052 15.2395 98.7032 15.4432C98.2414 15.4839 97.7389 15.4704 97.3857 15.6334C96.0682 14.8048 95.1854 13.9491 94.4519 13.1749C94.3025 13.2021 94.1667 12.8082 93.9222 12.944C93.2159 12.0204 92.9307 11.3141 92.89 10.7029H92.8764L92.8628 10.6894Z" fill="#DFDDE2"/>
<path fill-rule="evenodd" clip-rule="evenodd" d="M96.9239 11.7895C95.9867 11.4228 95.1446 11.0153 93.5283 11.0832C96.0546 12.9033 97.4129 14.0442 99.2737 15.4839C100.129 15.6062 100.931 15.9865 101.759 16.3125C101.651 16.0952 101.569 15.8643 101.528 15.6334C101.528 15.8235 101.528 16.0137 101.651 16.2038C100.55 15.8778 96.0411 12.686 93.8271 11.2462C94.6692 10.9882 95.8509 11.4636 96.9511 11.8031L96.9239 11.7895Z" fill="#C4BECA"/>
<path fill-rule="evenodd" clip-rule="evenodd" d="M98.2142 11.871C97.1955 10.9882 96.0682 9.99665 95.8237 8.58408C97.0054 8.71991 99.3144 9.52127 101.121 10.8116C99.4502 9.84725 97.8747 9.14096 96.5979 9.15454C96.4893 10.3226 97.5623 11.0968 98.2414 11.871H98.2278H98.2142Z" fill="#DFDDE2"/>
<path fill-rule="evenodd" clip-rule="evenodd" d="M96.6525 9.19529L96.5981 9.23604C98.3095 10.4992 99.5455 11.708 100.904 12.9305C101.284 13.2564 101.243 13.596 101.284 13.9491C101.42 13.7861 101.243 13.2428 101.529 13.1749C101.814 13.1206 102.873 13.6775 102.955 13.596C100.428 12.4822 98.7442 10.6894 96.6661 9.20887H96.6525V9.19529Z" fill="#C3BDC9"/>
<path fill-rule="evenodd" clip-rule="evenodd" d="M102.031 15.9457C101.8 15.5519 101.42 14.3566 101.651 13.5552C104.897 14.2479 105.454 16.815 105.508 17.3312C105.033 15.4839 103.267 13.7861 102.045 14.017C102.778 14.6962 103.702 16.1087 104.259 16.7064C104.001 16.7064 103.715 16.7335 103.552 16.8014C103.091 16.7471 102.887 16.8422 102.642 16.9101C102.398 16.6113 102.289 16.394 102.14 16.1631C102.479 16.6249 102.941 16.557 103.43 16.4076C102.928 15.4975 102.425 14.8456 101.923 14.0714C101.678 14.2479 101.922 15.2259 101.99 15.9457H102.018H102.031Z" fill="#E0DEE4"/>
<path fill-rule="evenodd" clip-rule="evenodd" d="M103.335 12.4958C108.863 16.1767 109.284 22.2072 105.372 21.2157C110.072 20.6588 104.571 13.6775 103.335 12.4958Z" fill="#DFDDE2"/>
<path fill-rule="evenodd" clip-rule="evenodd" d="M103.606 16.815C104.068 16.6249 105.277 16.652 105.331 18.5264L104.924 18.8388C104.924 18.3227 105.005 17.1682 103.606 16.8286V16.815Z" fill="#C3BDC9"/>
<path fill-rule="evenodd" clip-rule="evenodd" d="M104.924 18.866L105.345 18.5536C107.369 19.3142 106.378 21.4874 104.965 21.1478C106.636 20.9848 106.269 18.8388 104.924 18.866Z" fill="#C3BDC9"/>
<path fill-rule="evenodd" clip-rule="evenodd" d="M111.417 4.75384C111.702 5.22923 110.928 6.66896 112.245 6.45164C112.693 6.73687 113.087 6.57388 113.291 6.57388C114.16 6.26149 114.133 5.66386 114.187 5.51446C113.44 4.45503 114.282 4.25129 114.364 4.19696C114.826 4.25129 115.07 5.12057 114.445 5.37863C114.5 5.41938 114.568 5.4058 114.663 5.36505C114.663 6.75046 115.641 6.84553 116.306 6.61463C117.637 6.98136 116.985 5.43296 117.624 4.29204C116.917 5.5552 117.379 6.69613 116.333 6.54672C116.591 5.89476 115.885 5.39222 116.252 4.68593C115.709 5.14773 116.619 6.00342 116.252 6.45164C115.885 6.77762 115.532 6.50597 115.518 6.37015C115.369 5.89476 116.442 5.33789 115.804 4.48219C116.021 4.944 115.939 5.14773 115.831 5.46013C115.722 5.75894 115.26 6.01701 115.464 6.61463C114.989 6.51956 114.758 5.97626 114.88 5.52804C115.002 5.0934 115.233 4.37353 114.405 4.12905C113.372 4.44145 113.902 5.25639 114.024 5.39222C114.269 5.67745 113.821 6.49239 113.237 6.49239C113.495 6.08492 113.182 6.00342 112.788 5.35147C112.761 5.70461 113.563 6.15283 113.114 6.43806C112.883 6.62821 112.544 6.51955 112.408 6.38373C112.15 6.08492 112.775 5.74536 112.653 5.16131C112.49 6.00342 112.231 5.94909 112.272 6.34298C111.96 6.42448 111.647 6.53314 111.552 5.94909C111.552 5.16131 111.552 4.67235 111.43 4.75384H111.417Z" fill="#DFA12F"/>
<path fill-rule="evenodd" clip-rule="evenodd" d="M116.782 8.00004V8.08154C115.192 8.17661 113.562 7.8778 112 7.85063V7.78272C113.59 7.82347 114.839 8.1087 116.782 8.00004Z" fill="#DFA12F"/>
<path fill-rule="evenodd" clip-rule="evenodd" d="M114.31 8.2581V8.32601C115.233 8.46184 116.143 8.62483 116.917 8.52975V8.46184C115.994 8.5705 115.165 8.39393 114.31 8.2581Z" fill="#DFA12F"/>
<path fill-rule="evenodd" clip-rule="evenodd" d="M112.123 6.9542C111.878 7.03569 111.987 7.416 112.123 7.40242C112.422 7.416 112.707 7.45674 113.006 7.40242C113.169 7.32092 113.223 7.02211 113.033 6.91345C112.72 6.8727 112.422 6.8727 112.123 6.94061V6.9542ZM112.068 6.91345C112.571 6.81837 113.033 6.88628 113.291 6.92703C113.522 6.98136 113.522 7.40242 113.291 7.48391C113.033 7.51107 112.449 7.49749 112.068 7.47033C111.824 7.26659 111.946 6.99494 112.068 6.91345Z" fill="#E1A02F"/>
<path fill-rule="evenodd" clip-rule="evenodd" d="M113.889 7.36167C114.541 7.44316 115.098 7.49749 114.962 6.98136C114.785 6.98136 113.495 6.69613 113.889 7.36167ZM113.875 7.42958C113.794 7.3345 113.671 7.13077 113.902 6.88628C114.269 6.85912 114.636 6.88628 115.03 6.94061C115.383 7.07644 115.356 7.40241 115.057 7.52466C114.446 7.52466 114.106 7.48391 113.875 7.42958Z" fill="#E1A02F"/>
<path fill-rule="evenodd" clip-rule="evenodd" d="M115.668 7.44316C116.32 7.57898 116.863 7.70122 116.768 7.18509C116.592 7.18509 115.342 6.76404 115.668 7.44316ZM115.641 7.51107C115.559 7.41599 115.464 7.19867 115.709 6.96777C116.646 7.00852 116.483 7.0221 116.822 7.1036C117.162 7.26659 117.108 7.59256 116.809 7.68764C116.007 7.70122 115.858 7.57898 115.641 7.49749V7.51107Z" fill="#E1A02F"/>
<path fill-rule="evenodd" clip-rule="evenodd" d="M103.811 17.6979L102.778 20.7539C103.077 20.7539 103.308 20.7675 103.811 20.6724C104.286 19.7081 104.381 18.3498 103.811 17.7115V17.6979Z" fill="#C3BDC9"/>
<path fill-rule="evenodd" clip-rule="evenodd" d="M104.653 23.6334L102.792 20.7403C102.792 20.7403 102.317 21.9356 102.262 22.3295C102.493 22.9679 103.593 23.6198 104.653 23.6334Z" fill="white"/>
<path fill-rule="evenodd" clip-rule="evenodd" d="M104.34 21.4059C104.992 21.175 105.114 20.7811 105.128 20.5366L103.811 20.6453C103.987 20.8762 104.191 21.1206 104.34 21.3923V21.4059Z" fill="#C3BDC9"/>
<path fill-rule="evenodd" clip-rule="evenodd" d="M102.154 19.2055C101.895 19.029 101.026 18.9746 100.85 19.124L101.95 20.1427C101.991 19.8439 102.058 19.5043 102.154 19.2055Z" fill="#C3BDC9"/>
<path fill-rule="evenodd" clip-rule="evenodd" d="M99.6816 22.3431L102.765 20.7539C102.833 20.7268 102.384 21.9628 102.249 22.3431C101.882 22.5332 100.361 22.8999 99.668 22.3431H99.6816Z" fill="#C3BDC9"/>
<path d="M20.4144 102.045C22.3838 102.045 23.8779 102.547 24.883 103.566C25.8881 104.585 26.3906 106.201 26.3906 108.415V119.743H21.6368V109.596C21.6368 108.36 21.4195 107.41 20.9984 106.785C20.5774 106.16 19.9118 105.834 19.029 105.834C17.7794 105.834 16.8829 106.282 16.3532 107.179C15.8235 108.075 15.5654 109.352 15.5654 111.023V119.743H10.8252V109.596C10.8252 108.768 10.7301 108.075 10.54 107.518C10.3498 106.961 10.0646 106.54 9.68426 106.255C9.30395 105.97 8.81498 105.834 8.20378 105.834C7.32092 105.834 6.62822 106.051 6.12567 106.5C5.62312 106.934 5.26998 107.586 5.05266 108.442C4.83534 109.298 4.74026 110.343 4.74026 111.566V119.743H0V102.371H3.6265L4.26488 104.598H4.52294C4.87608 104 5.3243 103.512 5.85402 103.131C6.38373 102.764 6.98136 102.479 7.61973 102.303C8.25811 102.126 8.91006 102.045 9.5756 102.045C10.8523 102.045 11.9254 102.248 12.8218 102.669C13.7047 103.09 14.3838 103.729 14.8592 104.598H15.2802C15.7963 103.702 16.5298 103.063 17.4806 102.656C18.4313 102.248 19.4093 102.045 20.4144 102.045Z" fill="#1D1D1D"/>
<path d="M51.5996 108.347C51.5996 110.099 51.3823 111.688 50.9476 113.128C50.513 114.568 49.8474 115.804 48.9646 116.836C48.0817 117.868 46.9544 118.669 45.5962 119.226C44.2379 119.783 42.6352 120.055 40.7744 120.055C38.9136 120.055 37.3109 119.783 35.9526 119.226C34.5944 118.669 33.4806 117.882 32.5842 116.836C31.6878 115.79 31.0358 114.568 30.6012 113.128C30.1665 111.688 29.9492 110.085 29.9492 108.333C29.9492 105.984 30.3295 103.933 31.1037 102.194C31.8779 100.455 33.0596 99.0972 34.6759 98.1329C36.2922 97.1685 38.316 96.6932 40.8016 96.6932C43.2871 96.6932 45.2973 97.1685 46.8865 98.1329C48.4756 99.0972 49.6573 100.455 50.4315 102.208C51.2057 103.96 51.586 106.011 51.586 108.374V108.347H51.5996ZM35.029 108.347C35.029 109.936 35.2328 111.294 35.6267 112.435C36.0206 113.576 36.6453 114.459 37.501 115.07C38.3567 115.681 39.4433 115.994 40.788 115.994C42.1326 115.994 43.26 115.681 44.1157 115.07C44.9714 114.459 45.5826 113.576 45.9765 112.435C46.3703 111.294 46.5605 109.922 46.5605 108.347C46.5605 105.97 46.1123 104.096 45.2294 102.724C44.333 101.352 42.8797 100.673 40.8287 100.673C39.4705 100.673 38.3703 100.985 37.5146 101.596C36.6589 102.208 36.0341 103.09 35.6402 104.231C35.2464 105.372 35.0426 106.744 35.0426 108.347H35.029Z" fill="#1D1D1D"/>
<path d="M59.9257 95.5658V101.189C59.9257 101.841 59.9121 102.493 59.8714 103.131C59.8306 103.77 59.7899 104.272 59.7356 104.625H59.9257C60.3875 103.905 60.9987 103.308 61.7865 102.805C62.5743 102.303 63.593 102.045 64.8426 102.045C66.7848 102.045 68.374 102.805 69.5828 104.326C70.7916 105.848 71.4029 108.075 71.4029 111.023C71.4029 113.006 71.1176 114.663 70.5607 116.007C70.0039 117.352 69.2161 118.357 68.211 119.036C67.2059 119.715 66.0378 120.055 64.7203 120.055C63.4028 120.055 62.4385 119.824 61.705 119.376C60.9716 118.928 60.3739 118.411 59.9121 117.841H59.5862L58.7984 119.756H55.1719V95.5658H59.9257ZM63.3213 105.834C62.4928 105.834 61.8408 106.011 61.3519 106.35C60.8629 106.69 60.5098 107.206 60.2924 107.885C60.0751 108.564 59.9529 109.433 59.9257 110.479V110.995C59.9257 112.68 60.1702 113.97 60.6727 114.866C61.1753 115.763 62.0717 116.211 63.3892 116.211C64.3672 116.211 65.1414 115.763 65.7118 114.853C66.2823 113.956 66.5811 112.652 66.5811 110.955C66.5811 109.257 66.2959 107.98 65.7118 107.111C65.1278 106.255 64.34 105.821 63.3349 105.821H63.3213V105.834Z" fill="#1D1D1D"/>
<path d="M72.5845 102.371H77.773L81.0463 112.15C81.155 112.462 81.2365 112.775 81.3044 113.101C81.3723 113.427 81.4402 113.753 81.4945 114.092C81.5489 114.432 81.5896 114.785 81.6168 115.165H81.7119C81.7798 114.608 81.8613 114.079 81.9699 113.603C82.0786 113.114 82.2144 112.639 82.3774 112.164L85.5964 102.384H90.6762L83.3282 121.97C82.8799 123.165 82.3095 124.17 81.5896 124.972C80.8697 125.773 80.0548 126.384 79.1312 126.778C78.2076 127.186 77.1889 127.389 76.0752 127.389C75.5319 127.389 75.0701 127.362 74.6762 127.308C74.2823 127.254 73.9427 127.186 73.6711 127.131V123.369C73.8884 123.423 74.16 123.464 74.4996 123.505C74.8392 123.546 75.1787 123.573 75.5454 123.573C76.211 123.573 76.7814 123.437 77.2568 123.152C77.7322 122.866 78.1261 122.5 78.4521 122.024C78.7781 121.549 79.0225 121.033 79.2127 120.476L79.4979 119.62L72.5981 102.371H72.5845Z" fill="#1D1D1D"/>
<path d="M107.45 119.743L106.119 113.671C106.051 113.304 105.929 112.775 105.766 112.068C105.603 111.362 105.427 110.602 105.236 109.787C105.046 108.972 104.87 108.225 104.707 107.532C104.544 106.839 104.435 106.337 104.354 106.011H104.218C104.15 106.337 104.028 106.839 103.878 107.532C103.729 108.225 103.552 108.985 103.362 109.8C103.172 110.615 102.995 111.389 102.819 112.109C102.642 112.829 102.534 113.372 102.452 113.753L101.053 119.77H95.9596L91.0156 102.398H95.7423L97.7525 110.085C97.8883 110.629 98.0106 111.267 98.1464 112.001C98.2822 112.734 98.3773 113.454 98.4859 114.147C98.5946 114.839 98.6625 115.383 98.7168 115.79H98.8391C98.8662 115.491 98.907 115.097 98.9749 114.595C99.0428 114.092 99.1243 113.576 99.2058 113.046C99.2873 112.517 99.3824 112.028 99.4503 111.607C99.5318 111.172 99.5861 110.887 99.6269 110.724L101.773 102.398H106.989L109.026 110.724C109.094 111.023 109.189 111.498 109.311 112.15C109.433 112.802 109.542 113.467 109.624 114.16C109.719 114.853 109.773 115.396 109.773 115.79H109.895C109.936 115.437 110.004 114.921 110.112 114.214C110.221 113.522 110.343 112.788 110.479 112.028C110.615 111.267 110.764 110.615 110.9 110.072L112.978 102.384H117.624L112.625 119.756H107.45V119.743Z" fill="#1D1D1D"/>
<path d="M127.063 102.017C129.399 102.017 131.179 102.52 132.428 103.539C133.678 104.557 134.289 106.092 134.289 108.17V119.743H130.975L130.065 117.379H129.943C129.44 118.004 128.938 118.507 128.422 118.9C127.905 119.294 127.308 119.58 126.629 119.77C125.95 119.96 125.135 120.055 124.17 120.055C123.152 120.055 122.228 119.865 121.413 119.471C120.598 119.077 119.96 118.479 119.498 117.664C119.036 116.849 118.805 115.817 118.805 114.568C118.805 112.72 119.457 111.362 120.747 110.493C122.038 109.624 123.98 109.135 126.574 109.04L129.59 108.944V108.184C129.59 107.274 129.359 106.608 128.87 106.174C128.394 105.753 127.729 105.535 126.887 105.535C126.045 105.535 125.23 105.658 124.415 105.888C123.6 106.119 122.798 106.432 121.997 106.785L120.421 103.579C121.345 103.09 122.377 102.71 123.518 102.425C124.659 102.14 125.841 102.004 127.063 102.004V102.017ZM129.576 111.715L127.742 111.783C126.208 111.824 125.148 112.096 124.551 112.612C123.953 113.114 123.654 113.793 123.654 114.622C123.654 115.342 123.871 115.858 124.292 116.17C124.714 116.483 125.27 116.632 125.95 116.632C126.968 116.632 127.824 116.333 128.517 115.736C129.209 115.138 129.562 114.282 129.562 113.169V111.715H129.576Z" fill="#1D1D1D"/>
<path d="M145.725 116.279C146.242 116.279 146.744 116.225 147.247 116.13C147.736 116.021 148.225 115.899 148.714 115.736V119.267C148.211 119.498 147.573 119.688 146.826 119.838C146.079 119.987 145.25 120.068 144.367 120.068C143.335 120.068 142.398 119.905 141.583 119.566C140.754 119.226 140.116 118.642 139.641 117.814C139.165 116.985 138.934 115.817 138.934 114.323V105.943H136.666V103.933L139.274 102.343L140.646 98.6762H143.675V102.371H148.537V105.929H143.675V114.31C143.675 114.975 143.865 115.464 144.245 115.79C144.625 116.116 145.128 116.279 145.739 116.279H145.725Z" fill="#1D1D1D"/>
<path d="M159.308 102.045C160.911 102.045 162.296 102.357 163.451 102.968C164.605 103.579 165.502 104.476 166.14 105.644C166.779 106.812 167.091 108.238 167.091 109.936V112.231H155.885C155.94 113.563 156.334 114.622 157.094 115.383C157.841 116.143 158.887 116.523 160.218 116.523C161.332 116.523 162.337 116.415 163.261 116.184C164.184 115.953 165.135 115.613 166.099 115.152V118.819C165.244 119.24 164.347 119.552 163.41 119.756C162.473 119.946 161.332 120.055 160.001 120.055C158.262 120.055 156.714 119.729 155.383 119.091C154.038 118.452 152.992 117.474 152.232 116.157C151.471 114.839 151.091 113.182 151.091 111.186C151.091 109.189 151.43 107.464 152.123 106.119C152.816 104.761 153.767 103.756 155.003 103.077C156.239 102.398 157.665 102.058 159.308 102.058V102.045ZM159.335 105.399C158.412 105.399 157.651 105.698 157.04 106.282C156.429 106.88 156.089 107.804 155.994 109.067H162.649C162.649 108.36 162.514 107.736 162.269 107.192C162.025 106.649 161.658 106.214 161.183 105.888C160.707 105.562 160.082 105.399 159.335 105.399Z" fill="#1D1D1D"/>
<path d="M175.39 119.743H170.649V95.5658H175.39V119.743Z" fill="#1D1D1D"/>
<path d="M202.161 119.743H187.274V117.583L193.346 111.416C194.473 110.276 195.424 109.257 196.184 108.374C196.959 107.478 197.556 106.608 197.95 105.753C198.358 104.883 198.561 103.933 198.561 102.887C198.561 101.596 198.181 100.618 197.407 99.9529C196.646 99.2738 195.655 98.9207 194.405 98.9207C193.319 98.9207 192.354 99.1108 191.512 99.4776C190.67 99.8443 189.814 100.374 188.931 101.067L187.546 99.3281C188.144 98.8256 188.796 98.3638 189.502 97.9699C190.222 97.576 190.982 97.2636 191.784 97.0327C192.599 96.8018 193.468 96.6932 194.392 96.6932C195.791 96.6932 196.999 96.9376 198.018 97.4266C199.037 97.9156 199.811 98.6083 200.368 99.5047C200.925 100.401 201.21 101.474 201.21 102.724C201.21 103.973 200.965 105.046 200.49 106.079C200.015 107.111 199.349 108.13 198.48 109.135C197.624 110.14 196.619 111.213 195.465 112.34L190.521 117.271V117.379H202.134V119.743H202.161Z" fill="#1D1D1D"/>
<path d="M206.249 118.126C206.249 117.406 206.426 116.89 206.779 116.591C207.132 116.279 207.567 116.13 208.069 116.13C208.572 116.13 209.047 116.279 209.4 116.591C209.767 116.89 209.943 117.406 209.943 118.126C209.943 118.846 209.767 119.362 209.4 119.702C209.033 120.028 208.585 120.177 208.069 120.177C207.553 120.177 207.132 120.014 206.779 119.702C206.426 119.376 206.249 118.846 206.249 118.126Z" fill="#1D1D1D"/>
<path d="M228.85 108.347C228.85 110.194 228.714 111.838 228.429 113.291C228.144 114.744 227.709 115.967 227.112 116.972C226.514 117.977 225.74 118.737 224.775 119.267C223.825 119.783 222.684 120.041 221.339 120.041C219.655 120.041 218.256 119.58 217.142 118.656C216.042 117.732 215.227 116.401 214.67 114.663C214.127 112.911 213.869 110.805 213.869 108.333C213.869 105.861 214.113 103.824 214.602 102.085C215.105 100.333 215.892 98.9886 216.993 98.065C218.093 97.1278 219.546 96.6524 221.339 96.6524C223.05 96.6524 224.463 97.1142 225.563 98.0514C226.677 98.975 227.492 100.306 228.035 102.058C228.578 103.797 228.85 105.888 228.85 108.333V108.347ZM216.463 108.347C216.463 110.466 216.626 112.218 216.938 113.63C217.264 115.043 217.78 116.102 218.487 116.795C219.207 117.488 220.157 117.841 221.325 117.841C222.493 117.841 223.444 117.488 224.151 116.795C224.87 116.102 225.4 115.043 225.726 113.644C226.052 112.231 226.229 110.466 226.229 108.347C226.229 106.228 226.066 104.53 225.753 103.131C225.427 101.719 224.911 100.659 224.205 99.9665C223.485 99.2467 222.534 98.8935 221.353 98.8935C220.171 98.8935 219.207 99.2467 218.487 99.9665C217.767 100.673 217.251 101.732 216.938 103.131C216.626 104.53 216.476 106.269 216.476 108.347H216.463Z" fill="#1D1D1D"/>
</g>
<defs>
<linearGradient id="paint0_linear_413_17987" x1="101.923" y1="22.9135" x2="108.035" y2="27.7353" gradientUnits="userSpaceOnUse">
<stop stop-color="#C3BDC9"/>
<stop offset="1" stop-color="#C3BDC9" stop-opacity="0"/>
</linearGradient>
<linearGradient id="paint1_linear_413_17987" x1="120.245" y1="33.8881" x2="101.76" y2="24.3261" gradientUnits="userSpaceOnUse">
<stop stop-color="#C3BDC9"/>
<stop offset="1" stop-color="#C3BDC9" stop-opacity="0"/>
</linearGradient>
<linearGradient id="paint2_linear_413_17987" x1="130.133" y1="21.012" x2="119.064" y2="29.4738" gradientUnits="userSpaceOnUse">
<stop stop-color="#C3BDC9"/>
<stop offset="1" stop-color="#C3BDC9" stop-opacity="0"/>
</linearGradient>
<clipPath id="clip0_413_17987">
<rect width="228.85" height="127.389" fill="white"/>
</clipPath>
</defs>
</svg>
