<?xml version="1.0" encoding="utf-8"?>
<svg version="1.1" xmlns:xlink="http://www.w3.org/1999/xlink" width="27px" height="34px" xmlns="http://www.w3.org/2000/svg">
  <g transform="matrix(1 0 0 1 -313 -585 )">
    <path d="M 25.72 6.068484848484853  L 25.7 6.068484848484848  C 25.59 5.625454545454546  25.24 5.285454545454545  24.81 5.213333333333333  C 19.34 4.224242424242424  15.559999999999997 2.070909090909091  14.18 1.1951515151515149  C 13.82 0.9684848484848483  13.370000000000001 0.9684848484848483  13.02 1.1951515151515149  C 11.649999999999999 2.070909090909091  7.859999999999999 4.224242424242424  2.389999999999999 5.213333333333333  C 1.959999999999999 5.295757575757576  1.6099999999999985 5.625454545454546  1.4999999999999991 6.068484848484848  C -0.5100000000000007 14.228484848484847  0.839999999999999 21.842424242424244  5.52 27.612121212121213  C 8.42 31.19757575757576  11.79 33.17575757575758  13.11 33.866060606060614  C 13.27 33.94848484848485  13.439999999999998 33.98969696969697  13.609999999999998 33.98969696969697  C 13.78 33.98969696969697  13.95 33.94848484848485  14.110000000000001 33.866060606060614  C 15.419999999999998 33.17575757575758  18.79 31.197575757575763  21.7 27.612121212121217  C 26.369999999999997 21.83212121212122  27.729999999999997 14.228484848484854  25.72 6.068484848484853  Z M 19.020000000000003 15.454545454545448  L 19.03 15.444242424242422  L 13.04 21.61575757575757  C 12.77 21.89393939393939  12.41 22.038181818181815  12.05 22.038181818181815  C 11.690000000000001 22.038181818181815  11.330000000000002 21.89393939393939  11.060000000000002 21.61575757575757  L 8.180000000000003 18.658787878787876  C 7.630000000000003 18.092121212121206  7.630000000000003 17.185454545454544  8.180000000000003 16.618787878787874  C 8.730000000000004 16.052121212121207  9.620000000000003 16.052121212121207  10.160000000000004 16.618787878787874  L 12.040000000000003 18.555757575757568  L 17.040000000000003 13.414545454545449  C 17.590000000000003 12.847878787878782  18.480000000000004 12.847878787878782  19.020000000000003 13.414545454545449  C 19.570000000000004 13.981212121212117  19.570000000000004 14.887878787878781  19.020000000000003 15.454545454545448  Z " fill-rule="nonzero" fill="#553499" stroke="none" transform="matrix(1 0 0 1 313 585 )" />
  </g>
</svg>