<svg width="70" height="23" viewBox="0 0 70 23" fill="none" xmlns="http://www.w3.org/2000/svg">
<path d="M34.1895 6.81836L30.9375 18H29.2773L25.4395 3.9082H27.2754L30.0977 15.4121H30.1758L33.3496 3.9082H35.127L38.3008 15.4121H38.3789L41.2012 3.9082H43.0371L39.1992 18H37.5391L34.2871 6.81836H34.1895Z" fill="#0C84FF"/>
<path d="M44.2871 18V7.84375H45.8887V9.50391H45.9277C46.2598 8.38086 47.1973 7.66797 48.3887 7.66797C48.6816 7.66797 48.9355 7.7168 49.0723 7.73633V9.38672C48.9355 9.33789 48.5742 9.28906 48.1641 9.28906C46.8457 9.28906 45.9863 10.2363 45.9863 11.6719V18H44.2871Z" fill="#0C84FF"/>
<path d="M54.1797 18.1758C51.3672 18.1758 49.4727 16.1543 49.4727 12.9219C49.4727 9.67969 51.3672 7.66797 54.1797 7.66797C56.9824 7.66797 58.877 9.67969 58.877 12.9219C58.877 16.1543 56.9824 18.1758 54.1797 18.1758ZM54.1797 16.6816C55.9766 16.6816 57.1484 15.3145 57.1484 12.9219C57.1484 10.5293 55.9766 9.16211 54.1797 9.16211C52.3828 9.16211 51.2012 10.5293 51.2012 12.9219C51.2012 15.3145 52.3828 16.6816 54.1797 16.6816ZM54.9512 6.37891H53.4668L55.5176 3.44922H57.3535L54.9512 6.37891Z" fill="#0C84FF"/>
<path d="M69.0332 11.1738H67.373C67.1289 10.0703 66.2695 9.16211 64.7754 9.16211C63.0176 9.16211 61.8262 10.6172 61.8262 12.9219C61.8262 15.2852 63.0371 16.6816 64.7949 16.6816C66.1816 16.6816 67.0898 15.9492 67.3828 14.7285H69.0527C68.7891 16.75 67.0898 18.1758 64.7852 18.1758C61.9727 18.1758 60.0977 16.1934 60.0977 12.9219C60.0977 9.71875 61.9629 7.66797 64.7656 7.66797C67.3047 7.66797 68.8184 9.34766 69.0332 11.1738ZM65.5176 6.37891H64.0332L66.084 3.44922H67.9199L65.5176 6.37891Z" fill="#0C84FF"/>
<path d="M4.22036 11.497L13.486 2.80129C14.1713 2.15767 14.1713 1.11692 13.486 0.480151C12.8008 -0.163469 11.6927 -0.156622 11.0074 0.480151L0.509706 10.333C-0.153691 10.9561 -0.16827 11.9558 0.458677 12.5994L11.0001 22.5207C11.3428 22.8425 11.7947 23 12.2394 23C12.6841 23 13.1361 22.8425 13.4788 22.5207C14.164 21.8771 14.164 20.8363 13.4788 20.1996L4.22036 11.497Z" fill="#017BFF"/>
</svg>
