<?xml version="1.0" encoding="utf-8"?>
<svg version="1.1" xmlns:xlink="http://www.w3.org/1999/xlink" width="32px" height="32px" xmlns="http://www.w3.org/2000/svg">
  <g transform="matrix(1 0 0 1 -50 -586 )">
    <path d="M 11.665454545454546 30.865454545454543  L 11.655757575757576 30.855757575757575  L 11.655757575757576 25.173333333333336  C 11.655757575757576 25.173333333333336  17.23151515151515 20.421818181818185  17.23151515151515 20.421818181818185  L 23.04 29.003636363636367  C 23.786666666666665 30.109090909090913  25.5030303030303 29.57575757575758  25.5030303030303 28.23757575757576  L 23.21454545454545 14.332121212121217  C 28.98424242424242 7.903030303030309  32.38787878787878 2.2496969696969735  31.069090909090907 0.9309090909090951  C 29.75030303030303 -0.3975757575757534  24.135757575757577 3.035151515151519  17.755151515151514 8.863030303030307  L 3.9951515151515142 6.564848484848488  C 2.6666666666666656 6.564848484848488  2.133333333333333 8.290909090909093  3.229090909090908 9.04727272727273  L 11.713939393939393 14.884848484848487  L 6.904242424242422 20.635151515151517  L 1.1442424242424245 20.635151515151517  C 0.4169696969696971 20.635151515151517  0.05818181818181823 21.51757575757576  0.5818181818181819 22.021818181818183  L 3.927272727272728 25.25090909090909  L 3.743030303030303 26.278787878787877  C 3.500606060606061 27.587878787878786  4.654545454545455 28.73212121212121  5.963636363636364 28.479999999999997  L 6.981818181818183 28.286060606060605  L 10.288484848484849 31.447272727272725  C 10.802424242424243 31.941818181818178  11.665454545454546 31.573333333333334  11.665454545454546 30.865454545454543  Z " fill-rule="nonzero" fill="#e86016" stroke="none" transform="matrix(1 0 0 1 50 586 )" />
  </g>
</svg>