<?xml version="1.0" encoding="utf-8"?>
<svg version="1.1" xmlns:xlink="http://www.w3.org/1999/xlink" width="16px" height="20px" xmlns="http://www.w3.org/2000/svg">
  <g transform="matrix(1 0 0 1 -196 -460 )">
    <path d="M 12.84 2.2761904761904783  L 12.82 2.2761904761904765  C 9.899999999999999 -0.4857142857142855  5.210000000000001 -0.4857142857142855  2.3000000000000007 2.2761904761904765  C 0.010000000000001563 4.447619047619048  -0.5300000000000011 7.771428571428571  0.9600000000000009 10.495238095238097  C 2.0500000000000007 12.48571428571429  4.77 16.371428571428577  6.359999999999999 18.6  C 6.939999999999998 19.41904761904762  8.189999999999998 19.41904761904762  8.780000000000001 18.6  C 10.370000000000001 16.371428571428574  13.090000000000003 12.485714285714284  14.18 10.495238095238097  C 15.670000000000002 7.771428571428575  15.130000000000003 4.4476190476190505  12.84 2.2761904761904783  Z M 11.520000000000003 6.990476190476187  C 11.520000000000003 9.085714285714282  9.750000000000004 10.790476190476188  7.560000000000002 10.790476190476188  C 5.370000000000001 10.790476190476188  3.6000000000000014 9.085714285714285  3.6000000000000014 6.990476190476187  C 3.6000000000000014 4.895238095238089  5.370000000000001 3.190476190476187  7.560000000000002 3.190476190476187  C 9.750000000000004 3.190476190476187  11.520000000000003 4.895238095238092  11.520000000000003 6.990476190476187  Z " fill-rule="nonzero" fill="#607b45" stroke="none" transform="matrix(1 0 0 1 196 460 )" />
  </g>
</svg>