<?xml version="1.0" encoding="utf-8"?>
<svg version="1.1" xmlns:xlink="http://www.w3.org/1999/xlink" width="19px" height="32px" xmlns="http://www.w3.org/2000/svg">
  <g transform="matrix(1 0 0 1 -180 -451 )">
    <path d="M 15.693999999999999 10.860606060606054  L 15.7035 10.86060606060606  C 15.9315 10.637575757575757  16.169 10.424242424242424  16.406499999999998 10.230303030303029  L 13.1005 1.7648484848484833  C 12.235999999999999 -0.4460606060606073  9.167499999999999 -0.4460606060606073  8.3125 1.7648484848484833  L 0.19000000000000017 22.593939393939394  C -0.4939999999999998 24.33939393939394  0.7600000000000002 26.23030303030303  2.5840000000000005 26.23030303030303  L 8.9015 26.23030303030303  L 8.9015 29.362424242424243  C 8.9015 30.332121212121212  9.680500000000002 31.12727272727273  10.630500000000001 31.12727272727273  L 10.792000000000002 31.12727272727273  C 11.742000000000003 31.12727272727273  12.511500000000002 30.34181818181818  12.511500000000002 29.37212121212121  L 12.511500000000002 26.230303030303027  L 18.2115 26.230303030303027  C 18.430000000000003 26.230303030303027  18.563000000000002 25.987878787878785  18.4395 25.80363636363636  C 16.985999999999997 23.5830303030303  15.238 20.819393939393933  14.421 19.229090909090903  C 13.0055 16.45575757575757  13.5185 13.071515151515147  15.693999999999999 10.860606060606054  Z " fill-rule="nonzero" fill="#607b45" stroke="none" transform="matrix(1 0 0 1 180 451 )" />
  </g>
</svg>