<svg id="vector" xmlns="http://www.w3.org/2000/svg" width="24.0d" height="24.0d" viewBox="0 0 24.0 24.0"><path fill="#000000ff" d="M2.9,11.8c-0.4,0 -0.8,-0.3 -0.8,-0.8c0,-2.3 2,-7.7 8.1,-8.9c0.4,-0.1 0.8,0.2 0.9,0.6c0.1,0.4 -0.2,0.8 -0.6,0.9C5.3,4.7 3.7,9.4 3.7,11C3.7,11.4 3.3,11.8 2.9,11.8L2.9,11.8zM20.3,6.3C17.7,2.5 12.9,2 12.7,2c-0.4,0 -0.8,0.3 -0.8,0.7s0.3,0.8 0.7,0.8c0,0 4.3,0.4 6.5,3.7c1.6,2.5 1.7,5.9 0.3,10.3c-0.1,0.4 0.1,0.8 0.5,1c0.1,0 0.2,0 0.2,0c0.3,0 0.6,-0.2 0.7,-0.5C22.3,13.1 22.2,9.2 20.3,6.3L20.3,6.3zM17,8.1c-0.4,0.2 -0.5,0.7 -0.2,1c0,0 2.5,4 -1.5,10.3c-0.2,0.4 -0.1,0.8 0.2,1c0.1,0.1 0.3,0.1 0.4,0.1c0.3,0 0.5,-0.1 0.6,-0.4C21,13.1 18.1,8.5 18,8.3C17.8,7.9 17.3,7.8 17,8.1L17,8.1zM12.9,12.9c-0.4,-0.1 -0.8,0.2 -0.9,0.6c-1,4.6 -3.9,5.8 -4,5.8c-0.4,0.1 -0.6,0.6 -0.4,1c0.1,0.3 0.4,0.5 0.7,0.5c0.1,0 0.2,0 0.3,0c0.1,-0.1 3.8,-1.5 4.9,-6.9C13.6,13.4 13.3,13 12.9,12.9L12.9,12.9zM15.7,9.4c-0.5,-0.8 -1.5,-1.8 -3.6,-2c-0.4,0 -0.8,0.3 -0.8,0.7c0,0.4 0.3,0.8 0.7,0.8c1.2,0.1 2,0.5 2.4,1.3c0.9,1.4 0.4,3.8 -0.4,5.5c-1.1,2.6 -2.9,4.5 -3,4.5c-0.3,0.3 -0.3,0.8 0,1.1c0.1,0.1 0.3,0.2 0.5,0.2s0.4,-0.1 0.5,-0.2c0.1,-0.1 2.1,-2.1 3.3,-5C16.6,13.6 16.7,11.1 15.7,9.4L15.7,9.4zM10.9,13.7c0.2,-0.9 0.5,-1.6 0.9,-1.9c0.4,-0.3 0.8,-0.2 0.8,-0.2c0.4,0.1 0.8,-0.1 0.9,-0.6c0.1,-0.4 -0.1,-0.8 -0.6,-0.9c-0.1,0 -1,-0.2 -1.9,0.4c-0.8,0.5 -1.4,1.5 -1.6,2.9c-0.6,3.1 -3.2,4 -4,4.2c-0.4,0.1 -0.7,0.5 -0.6,0.8c0.1,0.5 0.4,0.7 1,0.6C6.8,18.8 10.2,17.7 10.9,13.7L10.9,13.7zM8.6,11.9c0,-0.7 0.4,-1.3 0.9,-1.6c0.4,-0.2 0.5,-0.7 0.2,-1C9.5,8.9 9.1,8.8 8.7,9c-0.9,0.6 -1.5,1.6 -1.6,2.8c-0.2,3.5 -2.9,3.5 -3.2,3.5c-0.4,0 -0.8,0.3 -0.8,0.7c0,0.4 0.3,0.8 0.7,0.8c0.1,0 0.1,0 0.2,0C5.6,16.8 8.4,15.8 8.6,11.9L8.6,11.9zM3.7,14.4c0.9,0 2.5,-0.6 2.6,-2.9c0.1,-1.1 1,-3.5 3,-4.7c1.6,-0.9 3.6,-0.8 6,0.4c0.4,0.2 0.8,0.1 1,-0.3c0.2,-0.4 0,-0.8 -0.3,-1c-3.5,-1.8 -6,-1.2 -7.4,-0.4C6.1,7 4.9,9.8 4.8,11.4c-0.1,1.4 -0.9,1.5 -1.1,1.5c-0.4,0 -0.8,0.3 -0.8,0.7C2.9,14.1 3.2,14.4 3.7,14.4L3.7,14.4L3.7,14.4z" id="path_0"/></svg>