<svg id="vector" xmlns="http://www.w3.org/2000/svg" width="24.0d" height="24.0d" viewBox="0 0 24.0 24.0"><path fill="#024A94" d="m20.37,3.79c-2.38,-2.38 -6.26,-2.38 -8.65,0 -1.57,1.56 -2.16,3.85 -1.57,5.95l-2.22,2.21h-1.49c-0.72,0 -1.31,0.59 -1.31,1.31v1.12h-1.16c-0.36,0 -0.71,0.15 -0.95,0.41 -0.25,0.26 -0.38,0.61 -0.36,0.97l0.17,3.07c0.06,1.12 0.75,2.07 1.8,2.48 0.33,0.13 0.68,0.19 1.02,0.19 0.74,0 1.45,-0.29 1.98,-0.83l6.74,-6.71c2.11,0.6 4.42,0.01 5.99,-1.55 1.16,-1.15 1.79,-2.68 1.79,-4.31s-0.64,-3.16 -1.79,-4.31ZM19.31,11.36c-1.3,1.29 -3.16,1.7 -4.88,1.06l-0.45,-0.17 -7.4,7.38c-0.37,0.37 -0.91,0.49 -1.41,0.3s-0.81,-0.62 -0.84,-1.16l-0.16,-2.88h2.46v-2.43h1.92l3.33,-3.32 -0.17,-0.45c-0.62,-1.67 -0.2,-3.57 1.07,-4.84 1.8,-1.8 4.73,-1.79 6.53,0 0.87,0.87 1.35,2.02 1.35,3.25s-0.48,2.38 -1.35,3.25ZM16.44,5.26c-1.28,0 -2.31,1.04 -2.31,2.31s1.04,2.31 2.31,2.31 2.31,-1.04 2.31,-2.31 -1.04,-2.31 -2.31,-2.31ZM16.44,8.39c-0.45,0 -0.81,-0.37 -0.81,-0.81s0.37,-0.81 0.81,-0.81 0.81,0.37 0.81,0.81 -0.37,0.81 -0.81,0.81Z" id="path_0"/></svg>