<svg id="vector" xmlns="http://www.w3.org/2000/svg" width="24.0d" height="24.0d" viewBox="0 0 24.0 24.0"><path fill="#010101ff" d="m11.83,2.02C6.31,2.02 1.83,6.5 1.83,12.02s4.48,10 10,10 10,-4.48 10,-10S17.36,2.02 11.83,2.02ZM11.83,20.52c-4.69,0 -8.5,-3.81 -8.5,-8.5S7.15,3.52 11.83,3.52s8.5,3.81 8.5,8.5 -3.81,8.5 -8.5,8.5ZM16.58,12.02c0,0.41 -0.34,0.75 -0.75,0.75h-4c-0.2,0 -0.39,-0.08 -0.53,-0.22l-4,-4c-0.29,-0.29 -0.29,-0.77 0,-1.06s0.77,-0.29 1.06,0l3.78,3.78h3.69c0.41,0 0.75,0.34 0.75,0.75Z" id="path_0"/></svg>