<svg id="vector" xmlns="http://www.w3.org/2000/svg" width="24.0d" height="24.0d" viewBox="0 0 24.0 24.0"><path fill="#010101ff" d="m12,4.38c0.09,0 0.18,0.03 0.26,0.07l6.92,4.26s0.04,0.02 0.06,0.03c0.16,0.09 0.26,0.26 0.26,0.44v9.82c0,0.28 -0.22,0.5 -0.5,0.5h-3.02c-0.28,0 -0.5,-0.22 -0.5,-0.5v-4c0,-0.83 -0.67,-1.5 -1.5,-1.5h-3.98c-0.83,0 -1.5,0.67 -1.5,1.5v4c0,0.28 -0.22,0.5 -0.5,0.5h-3c-0.28,0 -0.5,-0.22 -0.5,-0.5v-9.82c0,-0.18 0.1,-0.35 0.26,-0.44 0.02,-0.01 0.04,-0.02 0.06,-0.03l6.92,-4.26c0.08,-0.05 0.17,-0.07 0.26,-0.07m0,-1.5c-0.36,0 -0.73,0.1 -1.05,0.3l-6.92,4.26c-0.63,0.35 -1.03,1.02 -1.03,1.75v9.82c0,1.1 0.9,2 2,2h3c1.1,0 2,-0.9 2,-2v-4h3.98v4c0,1.1 0.9,2 2,2h3.02c1.1,0 2,-0.9 2,-2v-9.82c0,-0.73 -0.39,-1.4 -1.03,-1.75l-6.92,-4.26c-0.32,-0.2 -0.68,-0.3 -1.05,-0.3h0Z" id="path_0"/></svg>