<svg id="vector" xmlns="http://www.w3.org/2000/svg" width="24.0d" height="24.0d" viewBox="0 0 24.0 24.0"><path fill="#000000ff" d="M19.9,13.1l-0.4,-0.7c-0.1,-0.2 -0.2,-0.5 -0.2,-0.8V9.1c0,-4 -3.3,-7.3 -7.3,-7.3S4.7,5.1 4.7,9.1v2.6c0,0.3 -0.1,0.5 -0.2,0.8l-0.4,0.7c-0.5,0.9 -0.5,2.1 0,3s1.5,1.5 2.6,1.5h10.6c1.1,0 2.1,-0.6 2.6,-1.5c0.3,-0.6 0.5,-1.4 0.3,-2c0,-0.1 -0.1,-0.4 -0.2,-0.7C20,13.3 19.9,13.2 19.9,13.1zM18.6,15.4c-0.3,0.5 -0.8,0.8 -1.3,0.8H6.7c-0.5,0 -1,-0.3 -1.3,-0.8s-0.3,-1 0,-1.5l0.4,-0.7c0.3,-0.5 0.4,-1 0.4,-1.5V9.1c0,-3.2 2.6,-5.8 5.8,-5.8s5.8,2.6 5.8,5.8v2.6c0,0.5 0.1,1 0.4,1.5l0.3,0.5c0,0 0.1,0.2 0.2,0.3C18.9,14.5 18.9,14.9 18.6,15.4zM14.6,19.4c0,1.4 -1.2,2.6 -2.6,2.6s-2.6,-1.2 -2.6,-2.6c0,-0.4 0.3,-0.8 0.8,-0.8s0.8,0.3 0.8,0.8c0,0.6 0.5,1.1 1.1,1.1s1.1,-0.5 1.1,-1.1c0,-0.4 0.3,-0.8 0.8,-0.8S14.6,19 14.6,19.4z" id="path_0"/></svg>