<svg id="vector" xmlns="http://www.w3.org/2000/svg" width="24.0d" height="24.0d" viewBox="0 0 24.0 24.0"><path fill="#000000ff" d="m9.18,5.5c0.15,0 0.28,0.06 0.38,0.17 0.03,0.04 0.07,0.07 0.1,0.11l2.4,2.3c0.28,0.27 0.65,0.42 1.04,0.42h7c0.28,0 0.5,0.22 0.5,0.5v9c0,0.28 -0.22,0.5 -0.5,0.5H3.9c-0.28,0 -0.5,-0.22 -0.5,-0.5V6c0,-0.28 0.22,-0.5 0.5,-0.5h5.29m0,-1.5H3.9c-1.1,0 -2,0.9 -2,2v12c0,1.1 0.9,2 2,2h16.21c1.1,0 2,-0.9 2,-2v-9c0,-1.1 -0.9,-2 -2,-2h-7l-2.4,-2.3c-0.38,-0.44 -0.93,-0.7 -1.52,-0.7h0Z" id="path_0"/></svg>