<svg id="vector" xmlns="http://www.w3.org/2000/svg" width="24.0d" height="24.0d" viewBox="0 0 24.0 24.0"><path fill="#010101ff" d="M19,3H5C3.9,3 3,3.9 3,5v14c0,1.1 0.9,2 2,2h14c1.1,0 2,-0.9 2,-2V5C21,3.9 20.1,3 19,3zM19.5,19c0,0.3 -0.2,0.5 -0.5,0.5H5c-0.3,0 -0.5,-0.2 -0.5,-0.5V5c0,-0.3 0.2,-0.5 0.5,-0.5h14c0.3,0 0.5,0.2 0.5,0.5V19zM18.2,17.5c0,0.4 -0.3,0.8 -0.8,0.8s-0.8,-0.3 -0.8,-0.8c0,-1.7 -1.3,-3 -3,-3h-3.5c-1.7,0 -3,1.3 -3,3c0,0.4 -0.3,0.8 -0.8,0.8s-0.8,-0.3 -0.8,-0.8c0,-2.5 2,-4.5 4.5,-4.5h3.5C16.3,13 18.2,15 18.2,17.5zM12,12c1.7,0 3,-1.3 3,-3s-1.3,-3 -3,-3S9,7.3 9,9S10.3,12 12,12zM12,7.5c0.8,0 1.5,0.7 1.5,1.5s-0.7,1.5 -1.5,1.5S10.5,9.8 10.5,9S11.2,7.5 12,7.5z" id="path_0"/></svg>