<svg id="vector" xmlns="http://www.w3.org/2000/svg" width="24.0d" height="24.0d" viewBox="0 0 24.0 24.0"><path fill="#000000ff" d="m7.71,20.51h-2c-0.14,0 -0.25,-0.11 -0.25,-0.25l0.04,-16.53c0,-0.14 0.11,-0.25 0.25,-0.25h6.44s0.04,0.01 0.06,0.01v4.27c0,0.96 0.79,1.75 1.75,1.75h4.44s0.06,-0.01 0.09,-0.02c0,0 0,0.01 0,0.02v1.97c-0.01,0.41 0.32,0.75 0.74,0.75h0c0.41,0 0.75,-0.33 0.75,-0.75v-1.98c0,-0.69 -0.28,-1.37 -0.79,-1.86l-5.16,-4.93c-0.51,-0.49 -1.18,-0.75 -1.89,-0.75h-6.44c-0.96,0 -1.75,0.79 -1.75,1.75l-0.04,16.53c0,0.96 0.79,1.75 1.75,1.75h2c0.41,0 0.75,-0.34 0.75,-0.75s-0.34,-0.75 -0.75,-0.75ZM17.43,8.02h-3.43c-0.14,0 -0.25,-0.11 -0.25,-0.25v-3.27l3.68,3.52ZM18.88,15.86c-0.18,-0.08 -0.28,-0.26 -0.26,-0.45 0.08,-0.78 -0.28,-1.5 -0.96,-1.89 -0.67,-0.39 -1.49,-0.35 -2.12,0.11 0,0 0,0 0,0 -0.15,0.11 -0.36,0.11 -0.52,0 -0.63,-0.46 -1.44,-0.5 -2.12,-0.11 -0.68,0.39 -1.04,1.11 -0.96,1.89 0.02,0.19 -0.08,0.37 -0.26,0.45 -0.71,0.31 -1.16,1 -1.16,1.77s0.44,1.46 1.16,1.78c0.18,0.08 0.28,0.26 0.26,0.45 -0.08,0.78 0.28,1.5 0.96,1.89 0.31,0.18 0.64,0.26 0.97,0.26 0.4,0 0.8,-0.13 1.14,-0.38 0.16,-0.11 0.36,-0.11 0.52,0 0.63,0.46 1.44,0.5 2.12,0.12 0.67,-0.39 1.04,-1.11 0.96,-1.89 -0.02,-0.19 0.08,-0.37 0.26,-0.45 0.71,-0.31 1.16,-1 1.16,-1.78s-0.44,-1.46 -1.16,-1.77ZM18.27,18.04c-0.78,0.34 -1.24,1.14 -1.15,1.98 0.03,0.26 -0.14,0.38 -0.22,0.43s-0.27,0.13 -0.48,-0.03c-0.68,-0.5 -1.6,-0.5 -2.29,0 -0.21,0.15 -0.4,0.07 -0.48,0.03 -0.07,-0.04 -0.24,-0.17 -0.22,-0.43 0.09,-0.84 -0.37,-1.64 -1.15,-1.98 -0.24,-0.1 -0.26,-0.32 -0.26,-0.4s0.03,-0.3 0.26,-0.4c0.78,-0.34 1.24,-1.14 1.14,-1.98 -0.03,-0.26 0.14,-0.38 0.22,-0.43 0.04,-0.02 0.12,-0.06 0.22,-0.06 0.08,0 0.17,0.02 0.25,0.09 0.69,0.5 1.61,0.5 2.29,0 0.21,-0.15 0.41,-0.07 0.48,-0.03 0.08,0.04 0.25,0.17 0.22,0.43 -0.09,0.84 0.37,1.64 1.14,1.99 0.24,0.1 0.26,0.32 0.26,0.4s-0.03,0.3 -0.26,0.4Z" id="path_0"/></svg>