<svg id="vector" xmlns="http://www.w3.org/2000/svg" width="24.0d" height="24.0d" viewBox="0 0 24.0 24.0"><path fill="#010101ff" d="M12.3,2.1c0,0 -0.5,0 -0.6,0C6.3,2.2 2.1,6.6 2.1,12c0,5.5 4.5,9.9 9.9,9.9c5.5,0 9.9,-4.5 9.9,-9.9C21.9,6.6 17.6,2.2 12.3,2.1zM12,20.2c-1.3,-0.9 -2.3,-2.1 -3,-3.4h6.1C14.3,18.1 13.3,19.3 12,20.2zM8.3,15.3c-0.4,-1.1 -0.6,-2.2 -0.6,-3.3c0,-1.1 0.2,-2.2 0.5,-3.2h7.5c0.3,1 0.5,2.1 0.5,3.2c0,1.2 -0.2,2.3 -0.6,3.3H8.3zM12,3.7c1.3,1 2.4,2.2 3.1,3.6H8.9C9.6,5.8 10.7,4.6 12,3.7zM17.3,8.8h2.4c0.4,1 0.7,2.1 0.7,3.2c0,1.2 -0.2,2.2 -0.7,3.2h-2.5c0.3,-1.1 0.5,-2.2 0.5,-3.3C17.8,10.8 17.6,9.8 17.3,8.8zM19,7.3h-2.2C16.3,6.1 15.6,5 14.7,4C16.5,4.6 17.9,5.8 19,7.3zM9.4,4C8.5,5 7.7,6.1 7.2,7.3H5C6.1,5.7 7.6,4.6 9.4,4zM4.2,8.7c0,0 0.1,0 0.1,0h2.4c-0.3,1 -0.4,2.1 -0.4,3.2c0,1.1 0.2,2.3 0.5,3.3H4.3c0,0 -0.1,0 -0.1,0c-0.4,-1 -0.7,-2.1 -0.7,-3.3S3.8,9.7 4.2,8.7zM5,16.8h2.3c0.6,1.2 1.3,2.4 2.3,3.3C7.7,19.5 6.1,18.3 5,16.8zM14.5,20.1c1,-1 1.7,-2.1 2.3,-3.3H19C17.9,18.3 16.3,19.5 14.5,20.1z" id="path_0"/></svg>