<svg id="vector" xmlns="http://www.w3.org/2000/svg" width="24.0d" height="24.0d" viewBox="0 0 24.0 24.0"><path fill="#010101ff" d="M9.2,20.3c0,0.4 -0.3,0.8 -0.8,0.8H5.2c-1.2,0 -2.3,-1 -2.3,-2.3v-3.3c0,-0.4 0.3,-0.8 0.8,-0.8s0.8,0.3 0.8,0.8v3.3c0,0.4 0.3,0.8 0.8,0.8h3.3C8.9,19.6 9.2,19.9 9.2,20.3zM8.5,2.9H5.2c-1.2,0 -2.3,1 -2.3,2.3v3.3c0,0.4 0.3,0.8 0.8,0.8s0.8,-0.3 0.8,-0.8V5.2c0,-0.4 0.3,-0.8 0.8,-0.8h3.3c0.4,0 0.8,-0.3 0.8,-0.8S8.9,2.9 8.5,2.9zM20.3,14.8c-0.4,0 -0.8,0.3 -0.8,0.8v3.3c0,0.4 -0.3,0.8 -0.8,0.8h-3.3c-0.4,0 -0.8,0.3 -0.8,0.8s0.3,0.8 0.8,0.8h3.3c1.2,0 2.3,-1 2.3,-2.3v-3.3C21.1,15.1 20.7,14.8 20.3,14.8zM18.8,2.9h-3.3c-0.4,0 -0.8,0.3 -0.8,0.8s0.3,0.8 0.8,0.8h3.3c0.4,0 0.8,0.3 0.8,0.8v3.3c0,0.4 0.3,0.8 0.8,0.8s0.8,-0.3 0.8,-0.8V5.2C21.1,3.9 20.1,2.9 18.8,2.9zM8.8,15.3V8.7C8.8,8.3 8.4,8 8,8S7.3,8.3 7.3,8.7v6.5C7.3,15.7 7.6,16 8,16S8.8,15.7 8.8,15.3zM12,6c-0.4,0 -0.8,0.3 -0.8,0.8v10.5c0,0.4 0.3,0.8 0.8,0.8s0.8,-0.3 0.8,-0.8V6.7C12.8,6.3 12.4,6 12,6zM16.8,15.3V8.7C16.8,8.3 16.4,8 16,8s-0.8,0.3 -0.8,0.8v6.5c0,0.4 0.3,0.8 0.8,0.8S16.8,15.7 16.8,15.3z" id="path_0"/></svg>