<svg id="vector" xmlns="http://www.w3.org/2000/svg" width="24.0d" height="24.0d" viewBox="0 0 24.0 24.0"><path fill="#014a93" d="m4.74,11.07h4.51c0.96,0 1.75,-0.79 1.75,-1.75v-4.51c0,-0.96 -0.79,-1.75 -1.75,-1.75h-4.51c-0.96,0 -1.75,0.79 -1.75,1.75v4.51c0,0.96 0.79,1.75 1.75,1.75ZM4.49,4.81c0,-0.14 0.11,-0.25 0.25,-0.25h4.51c0.14,0 0.25,0.11 0.25,0.25v4.51c0,0.14 -0.11,0.25 -0.25,0.25h-4.51c-0.14,0 -0.25,-0.11 -0.25,-0.25v-4.51ZM21,4.81v5.51c0,0.41 -0.34,0.75 -0.75,0.75s-0.75,-0.34 -0.75,-0.75v-5.51c0,-0.14 -0.11,-0.25 -0.25,-0.25h-5.51c-0.41,0 -0.75,-0.34 -0.75,-0.75s0.34,-0.75 0.75,-0.75h5.51c0.96,0 1.75,0.79 1.75,1.75ZM11,20.26c0,0.41 -0.34,0.75 -0.75,0.75h-5.51c-0.96,0 -1.75,-0.79 -1.75,-1.75v-5.51c0,-0.41 0.34,-0.75 0.75,-0.75s0.75,0.34 0.75,0.75v5.51c0,0.14 0.11,0.25 0.25,0.25h5.51c0.41,0 0.75,0.34 0.75,0.75ZM19.25,13h-4.51c-0.96,0 -1.75,0.79 -1.75,1.75v4.51c0,0.96 0.79,1.75 1.75,1.75h4.51c0.96,0 1.75,-0.79 1.75,-1.75v-4.51c0,-0.96 -0.79,-1.75 -1.75,-1.75ZM19.5,19.26c0,0.14 -0.11,0.25 -0.25,0.25h-4.51c-0.14,0 -0.25,-0.11 -0.25,-0.25v-4.51c0,-0.14 0.11,-0.25 0.25,-0.25h4.51c0.14,0 0.25,0.11 0.25,0.25v4.51ZM9.81,13h-2.26c-0.69,0 -1.25,0.56 -1.25,1.25v2.26c0,0.69 0.56,1.25 1.25,1.25h2.26c0.69,0 1.25,-0.56 1.25,-1.25v-2.26c0,-0.69 -0.56,-1.25 -1.25,-1.25ZM9.56,16.26h-1.76v-1.76h1.76v1.76ZM16.55,11.08c0.69,0 1.25,-0.56 1.25,-1.25v-2.26c0,-0.69 -0.56,-1.25 -1.25,-1.25h-2.26c-0.69,0 -1.25,0.56 -1.25,1.25v2.26c0,0.69 0.56,1.25 1.25,1.25h2.26ZM14.54,7.82h1.76v1.76h-1.76v-1.76ZM18.53,17.2c0,0.41 -0.34,0.75 -0.75,0.75h-1.73c-0.41,0 -0.75,-0.34 -0.75,-0.75s0.34,-0.75 0.75,-0.75h1.73c0.41,0 0.75,0.34 0.75,0.75ZM6.31,7.93v-1.73c0,-0.41 0.34,-0.75 0.75,-0.75s0.75,0.34 0.75,0.75v1.73c0,0.41 -0.34,0.75 -0.75,0.75s-0.75,-0.34 -0.75,-0.75Z" id="path_0"/></svg>