<svg id="vector" xmlns="http://www.w3.org/2000/svg" width="24.0d" height="24.0d" viewBox="0 0 24.0 24.0"><path fill="#014a93" d="m2.6,8v-2.64c0,-1.52 1.24,-2.75 2.75,-2.75h2.64c0.41,0 0.75,0.34 0.75,0.75s-0.34,0.75 -0.75,0.75h-2.64c-0.69,0 -1.25,0.56 -1.25,1.25v2.64c0,0.41 -0.34,0.75 -0.75,0.75s-0.75,-0.34 -0.75,-0.75ZM8,19.9h-2.64c-0.69,0 -1.25,-0.56 -1.25,-1.25v-2.64c0,-0.41 -0.34,-0.75 -0.75,-0.75s-0.75,0.34 -0.75,0.75v2.64c0,1.52 1.24,2.75 2.75,2.75h2.64c0.41,0 0.75,-0.34 0.75,-0.75s-0.34,-0.75 -0.75,-0.75ZM20.65,15.25c-0.41,0 -0.75,0.34 -0.75,0.75v2.64c0,0.69 -0.56,1.25 -1.25,1.25h-2.64c-0.41,0 -0.75,0.34 -0.75,0.75s0.34,0.75 0.75,0.75h2.64c1.52,0 2.75,-1.24 2.75,-2.75v-2.64c0,-0.41 -0.34,-0.75 -0.75,-0.75ZM18.65,2.6h-2.64c-0.41,0 -0.75,0.34 -0.75,0.75s0.34,0.75 0.75,0.75h2.64c0.69,0 1.25,0.56 1.25,1.25v2.64c0,0.41 0.34,0.75 0.75,0.75s0.75,-0.34 0.75,-0.75v-2.64c0,-1.52 -1.24,-2.75 -2.75,-2.75ZM16.49,8.82c-0.29,-0.29 -0.77,-0.29 -1.06,0l-4.76,4.76 -2.09,-2.09c-0.29,-0.29 -0.77,-0.29 -1.06,0s-0.29,0.77 0,1.06l2.62,2.62c0.14,0.14 0.33,0.22 0.53,0.22s0.39,-0.08 0.53,-0.22l5.29,-5.29c0.29,-0.29 0.29,-0.77 0,-1.06Z" id="path_0"/></svg>