<svg id="vector" xmlns="http://www.w3.org/2000/svg" width="24.0d" height="24.0d" viewBox="0 0 24.0 24.0"><path fill="#064792" d="M10.5,9c0,-0.8 0.7,-1.5 1.5,-1.5s1.5,0.7 1.5,1.5s-0.7,1.5 -1.5,1.5S10.5,9.8 10.5,9zM21,5v14c0,1.1 -0.9,2 -2,2H5c-1.1,0 -2,-0.9 -2,-2V5c0,-1.1 0.9,-2 2,-2h14C20.1,3 21,3.9 21,5zM9,9c0,1.7 1.3,3 3,3s3,-1.3 3,-3s-1.3,-3 -3,-3S9,7.3 9,9zM18.2,17.5c0,-2.5 -2,-4.5 -4.5,-4.5h-3.5c-2.5,0 -4.5,2 -4.5,4.5c0,0.4 0.3,0.8 0.8,0.8s0.8,-0.3 0.8,-0.8c0,-1.7 1.3,-3 3,-3h3.5c1.7,0 3,1.3 3,3c0,0.4 0.3,0.8 0.8,0.8S18.2,17.9 18.2,17.5z" id="path_0"/></svg>