<svg id="vector" xmlns="http://www.w3.org/2000/svg" width="24.0d" height="24.0d" viewBox="0 0 24.0 24.0"><path fill="#064792" d="m18.83,2.91L5.17,2.91c-1.25,0 -2.26,1.01 -2.26,2.26v13.66c0,1.24 1.01,2.26 2.26,2.26h13.65c1.25,0 2.26,-1.01 2.26,-2.26L21.08,5.17c0,-1.25 -1.01,-2.26 -2.26,-2.26ZM8.77,15.27c0,0.41 -0.34,0.75 -0.75,0.75s-0.75,-0.34 -0.75,-0.75v-6.54c0,-0.41 0.34,-0.75 0.75,-0.75s0.75,0.34 0.75,0.75v6.54ZM12.77,17.23c0,0.41 -0.34,0.75 -0.75,0.75s-0.75,-0.34 -0.75,-0.75L11.27,6.72c0,-0.41 0.34,-0.75 0.75,-0.75s0.75,0.34 0.75,0.75v10.51ZM16.77,15.27c0,0.41 -0.34,0.75 -0.75,0.75s-0.75,-0.34 -0.75,-0.75v-6.54c0,-0.41 0.34,-0.75 0.75,-0.75s0.75,0.34 0.75,0.75v6.54Z" id="path_0"/></svg>