<svg id="vector" xmlns="http://www.w3.org/2000/svg" width="24.0d" height="24.0d" viewBox="0 0 24.0 24.0"><path fill="#064792" d="m12,2C6.48,2 2,6.48 2,12s4.48,10 10,10 10,-4.48 10,-10S17.52,2 12,2ZM8,12.95c-0.52,0 -0.95,-0.43 -0.95,-0.95s0.43,-0.95 0.95,-0.95 0.95,0.43 0.95,0.95 -0.43,0.95 -0.95,0.95ZM12,12.95c-0.52,0 -0.95,-0.43 -0.95,-0.95s0.43,-0.95 0.95,-0.95 0.95,0.43 0.95,0.95 -0.43,0.95 -0.95,0.95ZM16,12.95c-0.52,0 -0.95,-0.43 -0.95,-0.95s0.43,-0.95 0.95,-0.95 0.95,0.43 0.95,0.95 -0.43,0.95 -0.95,0.95Z" id="path_0"/></svg>