<svg id="vector" xmlns="http://www.w3.org/2000/svg" width="62.0d" height="25.0d" viewBox="0 0 62.0 25.0"><path fill="#5c7e96ff" d="M38.412,12.5C38.412,11.916 38.339,7.847 38.212,7.318C38.175,7.172 38.048,7.044 37.865,7.007C37.263,6.898 36.624,6.843 35.967,6.843C35.31,6.843 34.672,6.898 34.069,7.007C33.905,7.044 33.759,7.153 33.723,7.318C33.595,7.847 33.522,11.916 33.522,12.5C33.522,13.084 33.595,17.153 33.723,17.683C33.759,17.829 33.887,17.956 34.069,17.993C34.672,18.102 35.31,18.157 35.967,18.157C36.624,18.157 37.263,18.102 37.865,17.993C38.029,17.956 38.175,17.847 38.212,17.683C38.358,17.153 38.412,13.084 38.412,12.5ZM43.759,12.5C43.759,14.434 43.54,16.405 43.102,18.175C42.92,18.905 42.354,19.471 41.642,19.635C39.854,20.073 37.938,20.292 35.967,20.292C34.033,20.292 32.062,20.073 30.292,19.635C29.562,19.453 28.996,18.905 28.832,18.175C28.412,16.405 28.175,14.453 28.175,12.5C28.175,10.566 28.394,8.595 28.832,6.825C29.015,6.095 29.58,5.529 30.292,5.365C32.08,4.927 33.996,4.708 35.967,4.708C37.902,4.708 39.872,4.927 41.642,5.365C42.372,5.547 42.938,6.113 43.102,6.825C43.54,8.631 43.759,10.529 43.759,12.5ZM50.164,20.146H50.274C50.803,20.146 51.314,20.128 51.843,20.091C52.299,20.055 52.646,19.69 52.646,19.234V5.785C52.646,5.328 52.281,4.945 51.825,4.927C51.277,4.891 50.748,4.872 50.201,4.872C49.635,4.872 49.088,4.891 48.504,4.927C48.047,4.945 47.682,5.328 47.682,5.785V19.234C47.682,19.69 48.029,20.073 48.485,20.091C49.051,20.128 49.617,20.146 50.164,20.146ZM24.325,14.507C24.234,15.766 24.033,17.007 23.759,18.175C23.577,18.905 23.011,19.471 22.299,19.635C20.511,20.073 18.595,20.292 16.624,20.292C14.69,20.292 12.719,20.073 10.949,19.635C10.219,19.453 9.653,18.905 9.489,18.175C9.069,16.405 8.832,14.453 8.832,12.5C8.832,10.566 9.051,8.595 9.489,6.825C9.672,6.095 10.219,5.529 10.949,5.365C12.737,4.927 14.653,4.708 16.624,4.708C18.558,4.708 20.529,4.927 22.299,5.365C23.029,5.547 23.595,6.113 23.759,6.825C24.033,7.993 24.234,9.215 24.325,10.456V10.547C24.325,10.821 24.124,11.058 23.85,11.058H22.628H20.785H19.544C19.252,11.058 19.051,10.821 19.051,10.547L19.015,9.763C18.978,8.65 18.942,7.555 18.869,7.299C18.832,7.153 18.704,7.026 18.522,6.989C17.92,6.88 17.281,6.825 16.624,6.825C15.967,6.825 15.328,6.88 14.726,6.989C14.562,7.026 14.416,7.135 14.38,7.299C14.252,7.828 14.179,11.898 14.179,12.482C14.179,13.066 14.252,17.135 14.38,17.664C14.416,17.81 14.544,17.938 14.726,17.975C15.328,18.084 15.967,18.139 16.624,18.139C17.281,18.139 17.92,18.084 18.522,17.975C18.686,17.938 18.832,17.829 18.869,17.664C18.942,17.39 18.978,16.204 19.015,15.036L19.033,14.38C19.051,14.106 19.252,13.869 19.526,13.869H20.766H22.61H23.832C24.124,13.869 24.307,14.106 24.307,14.38V14.507H24.325Z" id="path_0"/><path fill="#5c7e96ff" d="M34.343,13.339C34.416,13.339 34.471,13.339 34.526,13.339C34.58,13.339 34.617,13.303 34.617,13.248V11.788C34.617,11.734 34.58,11.697 34.526,11.697C34.471,11.697 34.416,11.697 34.361,11.697C34.307,11.697 34.252,11.697 34.179,11.697C34.124,11.697 34.088,11.734 34.088,11.788V13.248C34.088,13.303 34.124,13.339 34.179,13.339C34.234,13.339 34.288,13.339 34.343,13.339ZM37.61,13.339C37.682,13.339 37.737,13.339 37.792,13.339C37.847,13.339 37.883,13.303 37.883,13.248V11.788C37.883,11.734 37.847,11.697 37.792,11.697C37.737,11.697 37.682,11.697 37.628,11.697C37.573,11.697 37.518,11.697 37.445,11.697C37.39,11.697 37.354,11.734 37.354,11.788V13.248C37.354,13.303 37.39,13.339 37.445,13.339C37.5,13.339 37.555,13.339 37.61,13.339ZM35.985,13.084C36.04,13.084 36.095,13.084 36.15,13.084C36.168,13.084 36.186,13.084 36.204,13.084C36.241,13.084 36.277,13.047 36.277,12.993V12.044C36.277,11.989 36.241,11.953 36.204,11.953H36.186C36.168,11.953 36.15,11.953 36.131,11.953C36.077,11.953 36.04,11.953 35.985,11.953C35.931,11.953 35.876,11.953 35.821,11.953C35.803,11.953 35.785,11.953 35.766,11.953C35.73,11.953 35.693,11.989 35.693,12.044V12.993C35.693,13.047 35.73,13.084 35.766,13.084C35.785,13.084 35.803,13.084 35.821,13.084C35.876,13.084 35.931,13.084 35.985,13.084ZM35.985,13.358C35.803,13.358 35.639,13.339 35.456,13.303C35.347,13.285 35.219,13.212 35.182,13.084C35.164,12.993 35.146,12.901 35.146,12.828C35.128,12.664 35.128,12.482 35.146,12.318C35.146,12.226 35.164,12.153 35.164,12.062C35.182,11.971 35.182,11.88 35.256,11.825C35.383,11.715 35.566,11.697 35.712,11.679C35.876,11.661 36.04,11.661 36.204,11.679C36.277,11.679 36.332,11.697 36.405,11.697C36.496,11.715 36.569,11.734 36.642,11.788C36.679,11.825 36.734,11.861 36.752,11.916C36.77,11.953 36.77,11.989 36.77,12.026C36.788,12.08 36.788,12.153 36.788,12.208C36.807,12.482 36.807,12.755 36.77,13.011C36.77,13.047 36.77,13.102 36.734,13.139C36.697,13.193 36.679,13.212 36.642,13.248C36.569,13.303 36.478,13.321 36.405,13.339C36.277,13.339 36.131,13.358 35.985,13.358ZM8.047,13.339C8.12,13.339 8.175,13.339 8.23,13.339C8.285,13.339 8.321,13.303 8.321,13.248V11.788C8.321,11.734 8.285,11.697 8.23,11.697C8.175,11.697 8.12,11.697 8.066,11.697C8.011,11.697 7.956,11.697 7.883,11.697C7.828,11.697 7.792,11.734 7.792,11.788V13.248C7.792,13.303 7.828,13.339 7.883,13.339C7.92,13.339 7.993,13.339 8.047,13.339ZM6.405,13.084C6.46,13.084 6.515,13.084 6.569,13.084C6.588,13.084 6.606,13.084 6.624,13.084C6.679,13.084 6.697,13.047 6.697,12.993V12.044C6.697,11.989 6.661,11.953 6.624,11.953H6.606C6.588,11.953 6.569,11.953 6.551,11.953C6.496,11.953 6.46,11.953 6.405,11.953C6.35,11.953 6.296,11.953 6.241,11.953C6.223,11.953 6.204,11.953 6.186,11.953C6.15,11.953 6.113,11.989 6.113,12.044V12.993C6.113,13.047 6.15,13.084 6.186,13.084C6.204,13.084 6.223,13.084 6.241,13.084C6.314,13.084 6.35,13.084 6.405,13.084ZM6.405,13.358C6.223,13.358 6.058,13.339 5.876,13.303C5.766,13.285 5.639,13.212 5.602,13.084C5.584,12.993 5.566,12.901 5.566,12.828C5.547,12.664 5.547,12.482 5.566,12.318C5.566,12.226 5.584,12.153 5.584,12.062C5.602,11.971 5.602,11.88 5.675,11.825C5.803,11.715 5.985,11.697 6.131,11.679C6.296,11.661 6.46,11.661 6.624,11.679C6.697,11.679 6.752,11.697 6.825,11.697C6.916,11.715 6.989,11.734 7.062,11.788C7.099,11.825 7.153,11.861 7.172,11.916C7.19,11.953 7.19,11.989 7.19,12.026C7.208,12.08 7.208,12.153 7.208,12.208C7.226,12.482 7.226,12.755 7.19,13.011C7.19,13.047 7.19,13.102 7.153,13.139C7.117,13.193 7.099,13.212 7.062,13.248C6.989,13.303 6.898,13.321 6.825,13.339C6.697,13.339 6.569,13.358 6.405,13.358ZM4.179,13.084C4.234,13.084 4.288,13.084 4.343,13.084C4.361,13.084 4.38,13.084 4.398,13.084C4.453,13.084 4.471,13.047 4.471,12.993V12.044C4.471,11.989 4.434,11.953 4.398,11.953H4.38C4.361,11.953 4.343,11.953 4.325,11.953C4.27,11.953 4.234,11.953 4.179,11.953C4.124,11.953 4.069,11.953 4.015,11.953C3.996,11.953 3.978,11.953 3.96,11.953C3.905,11.953 3.887,11.989 3.887,12.044V12.993C3.887,13.047 3.923,13.084 3.96,13.084C3.978,13.084 3.996,13.084 4.015,13.084C4.088,13.084 4.124,13.084 4.179,13.084ZM4.179,13.358C3.996,13.358 3.832,13.339 3.65,13.303C3.54,13.285 3.412,13.212 3.376,13.084C3.358,12.993 3.339,12.901 3.339,12.828C3.321,12.664 3.321,12.482 3.321,12.318C3.321,12.226 3.339,12.153 3.339,12.062C3.358,11.971 3.358,11.88 3.431,11.825C3.558,11.715 3.741,11.697 3.887,11.679C4.051,11.661 4.215,11.661 4.38,11.679C4.453,11.679 4.507,11.697 4.58,11.697C4.672,11.715 4.745,11.734 4.818,11.788C4.854,11.825 4.909,11.861 4.927,11.916C4.945,11.953 4.945,11.989 4.945,12.026C4.964,12.08 4.964,12.153 4.964,12.208C4.982,12.482 4.982,12.755 4.945,13.011C4.945,13.047 4.927,13.102 4.909,13.139C4.872,13.193 4.854,13.212 4.818,13.248C4.745,13.303 4.653,13.321 4.58,13.339C4.471,13.339 4.343,13.358 4.179,13.358ZM55.639,13.339C55.712,13.339 55.766,13.339 55.821,13.339C55.876,13.339 55.912,13.303 55.912,13.248V11.788C55.912,11.734 55.876,11.697 55.821,11.697C55.766,11.697 55.712,11.697 55.657,11.697C55.602,11.697 55.547,11.697 55.474,11.697C55.42,11.697 55.383,11.734 55.383,11.788V13.248C55.383,13.303 55.42,13.339 55.474,13.339C55.511,13.339 55.566,13.339 55.639,13.339ZM57.244,13.084C57.299,13.084 57.354,13.084 57.409,13.084C57.427,13.084 57.445,13.084 57.464,13.084C57.5,13.084 57.536,13.047 57.536,12.993V12.044C57.536,11.989 57.5,11.953 57.464,11.953H57.445C57.427,11.953 57.409,11.953 57.39,11.953C57.336,11.953 57.299,11.953 57.244,11.953C57.19,11.953 57.135,11.953 57.08,11.953C57.062,11.953 57.044,11.953 57.026,11.953C56.971,11.953 56.953,11.989 56.953,12.044V12.993C56.953,13.047 56.989,13.084 57.026,13.084C57.044,13.084 57.062,13.084 57.08,13.084C57.153,13.084 57.208,13.084 57.244,13.084ZM57.244,13.358C57.062,13.358 56.898,13.339 56.715,13.303C56.606,13.285 56.478,13.212 56.442,13.084C56.423,12.993 56.405,12.901 56.405,12.828C56.387,12.664 56.387,12.482 56.387,12.318C56.387,12.226 56.405,12.153 56.405,12.062C56.423,11.971 56.423,11.88 56.496,11.825C56.624,11.715 56.807,11.697 56.953,11.679C57.117,11.661 57.281,11.661 57.445,11.679C57.518,11.679 57.573,11.697 57.646,11.697C57.737,11.715 57.81,11.734 57.883,11.788C57.92,11.825 57.974,11.861 57.993,11.916C58.011,11.953 58.011,11.989 58.011,12.026C58.029,12.08 58.029,12.153 58.029,12.208C58.047,12.482 58.047,12.755 58.011,13.011C58.011,13.047 58.011,13.102 57.974,13.139C57.938,13.193 57.92,13.212 57.883,13.248C57.81,13.303 57.719,13.321 57.646,13.339C57.555,13.339 57.409,13.358 57.244,13.358ZM45.785,13.339C45.839,13.339 45.912,13.339 45.967,13.339C46.022,13.339 46.058,13.303 46.058,13.248V11.788C46.058,11.734 46.022,11.697 45.967,11.697C45.912,11.697 45.839,11.697 45.785,11.697C45.73,11.697 45.675,11.697 45.62,11.697C45.566,11.697 45.529,11.734 45.529,11.788V13.248C45.529,13.303 45.566,13.339 45.62,13.339C45.675,13.339 45.73,13.339 45.785,13.339ZM46.898,13.339C46.953,13.339 47.007,13.339 47.08,13.339C47.135,13.339 47.172,13.303 47.172,13.248V11.788C47.172,11.734 47.135,11.697 47.08,11.697C47.026,11.697 46.953,11.697 46.898,11.697C46.843,11.697 46.788,11.697 46.734,11.697C46.679,11.697 46.642,11.734 46.642,11.788V13.248C46.642,13.303 46.679,13.339 46.734,13.339C46.77,13.339 46.825,13.339 46.898,13.339ZM44.69,13.339C44.744,13.339 44.799,13.339 44.872,13.339C44.927,13.339 44.964,13.303 44.964,13.248V11.788C44.964,11.734 44.927,11.697 44.872,11.697C44.818,11.697 44.744,11.697 44.69,11.697C44.635,11.697 44.58,11.697 44.526,11.697C44.471,11.697 44.434,11.734 44.434,11.788V13.248C44.434,13.303 44.471,13.339 44.526,13.339C44.562,13.339 44.617,13.339 44.69,13.339ZM53.996,13.084C54.051,13.084 54.106,13.084 54.161,13.084C54.179,13.084 54.197,13.084 54.215,13.084C54.27,13.084 54.288,13.047 54.288,12.993V12.044C54.288,11.989 54.252,11.953 54.215,11.953H54.197C54.179,11.953 54.161,11.953 54.142,11.953C54.088,11.953 54.051,11.953 53.996,11.953C53.942,11.953 53.887,11.953 53.832,11.953C53.814,11.953 53.796,11.953 53.777,11.953C53.741,11.953 53.704,11.989 53.704,12.044V12.993C53.704,13.047 53.741,13.084 53.777,13.084C53.796,13.084 53.814,13.084 53.832,13.084C53.887,13.084 53.942,13.084 53.996,13.084ZM53.996,13.358C53.814,13.358 53.65,13.339 53.467,13.303C53.358,13.285 53.23,13.212 53.193,13.084C53.175,12.993 53.157,12.901 53.157,12.828C53.139,12.664 53.139,12.482 53.139,12.318C53.139,12.226 53.157,12.153 53.157,12.062C53.175,11.971 53.175,11.88 53.248,11.825C53.376,11.715 53.558,11.697 53.704,11.679C53.869,11.661 54.033,11.661 54.197,11.679C54.27,11.679 54.325,11.697 54.398,11.697C54.489,11.715 54.562,11.734 54.635,11.788C54.672,11.825 54.726,11.861 54.744,11.916C54.763,11.953 54.763,11.989 54.763,12.026C54.781,12.08 54.781,12.153 54.781,12.208C54.799,12.482 54.799,12.755 54.763,13.011C54.763,13.047 54.763,13.102 54.726,13.139C54.69,13.193 54.672,13.212 54.635,13.248C54.562,13.303 54.471,13.321 54.398,13.339C54.288,13.339 54.142,13.358 53.996,13.358ZM27.208,13.339C27.281,13.339 27.336,13.339 27.39,13.339C27.445,13.339 27.482,13.303 27.482,13.248V11.788C27.482,11.734 27.445,11.697 27.39,11.697C27.336,11.697 27.281,11.697 27.226,11.697C27.171,11.697 27.098,11.697 27.044,11.697C26.989,11.697 26.953,11.734 26.953,11.788V13.248C26.953,13.303 26.989,13.339 27.044,13.339C27.098,13.339 27.153,13.339 27.208,13.339ZM21.715,13.339C21.788,13.339 21.843,13.339 21.898,13.339C21.953,13.339 21.989,13.303 21.989,13.248V11.788C21.989,11.734 21.953,11.697 21.898,11.697C21.843,11.697 21.788,11.697 21.734,11.697C21.679,11.697 21.624,11.697 21.551,11.697C21.496,11.697 21.46,11.734 21.46,11.788V13.248C21.46,13.303 21.496,13.339 21.551,13.339C21.606,13.339 21.661,13.339 21.715,13.339ZM25.566,13.084C25.62,13.084 25.675,13.084 25.73,13.084C25.748,13.084 25.766,13.084 25.785,13.084C25.821,13.084 25.858,13.047 25.858,12.993V12.044C25.858,11.989 25.821,11.953 25.785,11.953H25.766C25.748,11.953 25.73,11.953 25.712,11.953C25.657,11.953 25.62,11.953 25.566,11.953C25.511,11.953 25.456,11.953 25.402,11.953C25.383,11.953 25.365,11.953 25.347,11.953C25.31,11.953 25.274,11.989 25.274,12.044V12.993C25.274,13.047 25.31,13.084 25.347,13.084C25.365,13.084 25.383,13.084 25.402,13.084C25.475,13.084 25.529,13.084 25.566,13.084ZM25.566,13.358C25.383,13.358 25.219,13.339 25.037,13.303C24.927,13.285 24.799,13.212 24.763,13.084C24.744,12.993 24.726,12.901 24.726,12.828C24.708,12.664 24.708,12.482 24.726,12.318C24.726,12.226 24.744,12.153 24.744,12.062C24.763,11.971 24.763,11.88 24.836,11.825C24.963,11.715 25.146,11.697 25.292,11.679C25.456,11.661 25.62,11.661 25.785,11.679C25.858,11.679 25.912,11.697 25.985,11.697C26.077,11.715 26.15,11.734 26.223,11.788C26.259,11.825 26.314,11.861 26.332,11.916C26.35,11.953 26.35,11.989 26.35,12.026C26.369,12.08 26.369,12.153 26.369,12.208C26.387,12.482 26.387,12.755 26.35,13.011C26.35,13.047 26.35,13.102 26.314,13.139C26.277,13.193 26.259,13.212 26.223,13.248C26.15,13.303 26.058,13.321 25.985,13.339C25.876,13.339 25.73,13.358 25.566,13.358ZM23.358,13.084C23.412,13.084 23.467,13.084 23.522,13.084C23.54,13.084 23.558,13.084 23.577,13.084C23.613,13.084 23.65,13.047 23.65,12.993V12.044C23.65,11.989 23.613,11.953 23.577,11.953H23.558C23.54,11.953 23.522,11.953 23.504,11.953C23.449,11.953 23.412,11.953 23.358,11.953C23.303,11.953 23.248,11.953 23.193,11.953C23.175,11.953 23.157,11.953 23.139,11.953C23.084,11.953 23.066,11.989 23.066,12.044V12.993C23.066,13.047 23.102,13.084 23.139,13.084C23.157,13.084 23.175,13.084 23.193,13.084C23.248,13.084 23.303,13.084 23.358,13.084ZM23.358,13.358C23.175,13.358 23.011,13.339 22.829,13.303C22.719,13.285 22.591,13.212 22.555,13.084C22.537,12.993 22.518,12.901 22.518,12.828C22.5,12.664 22.5,12.482 22.5,12.318C22.5,12.226 22.518,12.153 22.518,12.062C22.537,11.971 22.537,11.88 22.61,11.825C22.737,11.715 22.92,11.697 23.066,11.679C23.23,11.661 23.394,11.661 23.558,11.679C23.631,11.679 23.686,11.697 23.759,11.697C23.85,11.715 23.923,11.734 23.996,11.788C24.033,11.825 24.088,11.861 24.106,11.916C24.124,11.953 24.124,11.989 24.124,12.026C24.142,12.08 24.142,12.153 24.142,12.208C24.161,12.482 24.161,12.755 24.124,13.011C24.124,13.047 24.106,13.102 24.088,13.139C24.051,13.193 24.033,13.212 23.996,13.248C23.923,13.303 23.832,13.321 23.759,13.339C23.65,13.339 23.504,13.358 23.358,13.358ZM20.055,13.084C20.11,13.084 20.164,13.084 20.219,13.084C20.237,13.084 20.256,13.084 20.274,13.084C20.31,13.084 20.347,13.047 20.347,12.993V12.044C20.347,11.989 20.31,11.953 20.274,11.953H20.256C20.237,11.953 20.219,11.953 20.201,11.953C20.146,11.953 20.11,11.953 20.055,11.953C20,11.953 19.945,11.953 19.89,11.953C19.872,11.953 19.854,11.953 19.836,11.953C19.781,11.953 19.763,11.989 19.763,12.044V12.993C19.763,13.047 19.799,13.084 19.836,13.084C19.854,13.084 19.872,13.084 19.89,13.084C19.963,13.084 20.018,13.084 20.055,13.084ZM20.055,13.358C19.872,13.358 19.708,13.339 19.525,13.303C19.416,13.285 19.288,13.212 19.252,13.084C19.234,12.993 19.215,12.901 19.215,12.828C19.197,12.664 19.197,12.482 19.197,12.318C19.197,12.226 19.215,12.153 19.215,12.062C19.234,11.971 19.234,11.88 19.307,11.825C19.434,11.715 19.617,11.697 19.763,11.679C19.927,11.661 20.091,11.661 20.256,11.679C20.329,11.679 20.383,11.697 20.456,11.697C20.547,11.715 20.62,11.734 20.693,11.788C20.73,11.825 20.785,11.861 20.803,11.916C20.821,11.953 20.821,11.989 20.821,12.026C20.839,12.08 20.839,12.153 20.839,12.208C20.858,12.482 20.858,12.755 20.821,13.011C20.821,13.047 20.803,13.102 20.785,13.139C20.748,13.193 20.73,13.212 20.693,13.248C20.62,13.303 20.529,13.321 20.456,13.339C20.365,13.339 20.219,13.358 20.055,13.358ZM15.128,13.339C15.201,13.339 15.255,13.339 15.31,13.339C15.365,13.339 15.401,13.303 15.401,13.248V11.788C15.401,11.734 15.365,11.697 15.31,11.697C15.255,11.697 15.201,11.697 15.146,11.697C15.091,11.697 15.018,11.697 14.964,11.697C14.909,11.697 14.872,11.734 14.872,11.788V13.248C14.872,13.303 14.909,13.339 14.964,13.339C15.018,13.339 15.073,13.339 15.128,13.339ZM18.412,13.339C18.485,13.339 18.54,13.339 18.595,13.339C18.65,13.339 18.686,13.303 18.686,13.248V11.788C18.686,11.734 18.65,11.697 18.595,11.697C18.54,11.697 18.485,11.697 18.431,11.697C18.376,11.697 18.321,11.697 18.248,11.697C18.193,11.697 18.157,11.734 18.157,11.788V13.248C18.157,13.303 18.193,13.339 18.248,13.339C18.303,13.339 18.358,13.339 18.412,13.339ZM16.77,13.084C16.825,13.084 16.88,13.084 16.934,13.084C16.953,13.084 16.971,13.084 16.989,13.084C17.025,13.084 17.062,13.047 17.062,12.993V12.044C17.062,11.989 17.025,11.953 16.989,11.953H16.971C16.953,11.953 16.934,11.953 16.916,11.953C16.861,11.953 16.825,11.953 16.77,11.953C16.715,11.953 16.661,11.953 16.606,11.953C16.588,11.953 16.569,11.953 16.551,11.953C16.496,11.953 16.478,11.989 16.478,12.044V12.993C16.478,13.047 16.515,13.084 16.551,13.084C16.569,13.084 16.588,13.084 16.606,13.084C16.661,13.084 16.715,13.084 16.77,13.084ZM16.77,13.358C16.588,13.358 16.423,13.339 16.241,13.303C16.131,13.285 16.004,13.212 15.967,13.084C15.949,12.993 15.931,12.901 15.931,12.828C15.912,12.664 15.912,12.482 15.912,12.318C15.912,12.226 15.931,12.153 15.931,12.062C15.949,11.971 15.949,11.88 16.022,11.825C16.15,11.715 16.332,11.697 16.478,11.679C16.642,11.661 16.807,11.661 16.971,11.679C17.044,11.679 17.098,11.697 17.171,11.697C17.263,11.715 17.336,11.734 17.409,11.788C17.445,11.825 17.5,11.861 17.518,11.916C17.537,11.953 17.537,11.989 17.537,12.026C17.555,12.08 17.555,12.153 17.555,12.208C17.573,12.482 17.573,12.755 17.537,13.011C17.537,13.047 17.518,13.102 17.5,13.139C17.463,13.193 17.445,13.212 17.409,13.248C17.336,13.303 17.244,13.321 17.171,13.339C17.062,13.339 16.916,13.358 16.77,13.358Z" id="path_1"/></svg>