<svg id="vector" xmlns="http://www.w3.org/2000/svg" width="22.0d" height="24.0d" viewBox="0 0 22.0 24.0"><path fill="#d5233fff" d="M22,0L0,0L0,16.465C0.073,19.375 2.449,21.731 5.383,21.731L7.891,21.731C8.661,21.731 9.401,22 9.995,22.487L11.022,23.338L12.049,22.487C12.635,22 13.383,21.731 14.153,21.731L16.603,21.731C19.536,21.731 21.912,19.375 22,16.465L22,0ZM7.473,6.356C7.473,4.415 9.049,2.836 10.993,2.836C12.936,2.836 14.513,4.415 14.513,6.356C14.513,8.298 12.936,9.876 10.993,9.876C9.049,9.876 7.473,8.298 7.473,6.356ZM16.764,17.927L16.771,18L5.207,18C4.73,17.927 4.349,17.505 4.415,17.04C4.847,13.796 7.627,11.295 10.985,11.295C14.344,11.295 17.123,13.796 17.556,17.04C17.622,17.513 17.241,17.927 16.764,17.927Z" stroke="#00000000" fill-rule="nonzero" id="path_0"/></svg>