<svg id="vector" xmlns="http://www.w3.org/2000/svg" width="24.0d" height="24.0d" viewBox="0 0 24.0 24.0"><path fill="#563198" d="m19.44,5.15c-0.06,-0.26 -0.28,-0.45 -0.54,-0.49 -3.37,-0.59 -5.69,-1.88 -6.54,-2.4 -0.11,-0.07 -0.23,-0.11 -0.36,-0.11 -0.12,0 -0.24,0.04 -0.35,0.11 -0.85,0.52 -3.18,1.81 -6.54,2.4 -0.26,0.04 -0.48,0.23 -0.55,0.49 -1.24,4.88 -0.41,9.43 2.47,12.89 1.79,2.14 3.86,3.33 4.67,3.73 0.09,0.05 0.2,0.08 0.3,0.08 0.11,0 0.21,-0.03 0.31,-0.08 0.81,-0.4 2.88,-1.59 4.67,-3.73 2.88,-3.46 3.71,-8.01 2.46,-12.89ZM15.23,14.58c0,0.47 -0.38,0.86 -0.86,0.86h-4.73c-0.47,0 -0.86,-0.38 -0.86,-0.86v-2.58c0,-0.47 0.38,-0.86 0.86,-0.86h0.12v-1.13c0,-1.24 1,-2.24 2.24,-2.24s2.24,1 2.24,2.24v1.13h0.12c0.47,0 0.86,0.38 0.86,0.86v2.58Z" id="path_0"/><path fill="#010101ff" d="m12,9.05c-0.52,0 -0.95,0.43 -0.95,0.95v1.13h1.9v-1.13c0,-0.52 -0.43,-0.95 -0.95,-0.95Z" id="path_1"/></svg>