<svg id="vector" xmlns="http://www.w3.org/2000/svg" width="24.0d" height="24.0d" viewBox="0 0 24.0 24.0"><defs><clipPath id="clip_path_0"><path d="M0,0h24v24h-24z"/></clipPath></defs><g id="g_0"><path fill="#243988" d="M7.205,6C7.205,4.343 8.549,3 10.205,3H13.806C15.462,3 16.806,4.343 16.806,6V6.598H20.256C20.396,6.598 20.465,6.598 20.524,6.604C21.094,6.66 21.544,7.111 21.601,7.681C21.606,7.739 21.606,7.809 21.606,7.948C21.606,8.366 21.606,8.575 21.589,8.751C21.421,10.46 20.068,11.813 18.359,11.981C18.183,11.998 17.974,11.998 17.556,11.998H6.456C6.038,11.998 5.829,11.998 5.653,11.981C3.944,11.813 2.592,10.46 2.424,8.751C2.406,8.575 2.406,8.366 2.406,7.948C2.406,7.809 2.406,7.739 2.412,7.681C2.468,7.111 2.919,6.66 3.489,6.604C3.547,6.598 3.617,6.598 3.756,6.598H7.205V6ZM9.005,6.598H15.005V6C15.005,5.337 14.468,4.8 13.806,4.8H10.205C9.543,4.8 9.005,5.337 9.005,6V6.598ZM2.409,15.24V11.575C3.21,12.483 4.35,13.084 5.633,13.185C5.821,13.2 6.044,13.2 6.489,13.2H9.008C9.008,13.792 9.016,14.103 9.139,14.344C9.254,14.57 9.437,14.753 9.663,14.868C9.92,14.999 10.256,14.999 10.928,14.999H13.088C13.76,14.999 14.096,14.999 14.353,14.868C14.578,14.753 14.762,14.57 14.877,14.344C15,14.103 15.007,13.792 15.008,13.2H17.529C17.975,13.2 18.198,13.2 18.386,13.185C19.669,13.084 20.809,12.483 21.609,11.575V15.24C21.609,17.256 21.609,18.264 21.217,19.034C20.872,19.712 20.321,20.262 19.644,20.608C18.874,21 17.866,21 15.849,21H8.169C6.153,21 5.145,21 4.375,20.608C3.698,20.262 3.147,19.712 2.802,19.034C2.409,18.264 2.409,17.256 2.409,15.24Z" fill-rule="evenodd" clip-path="url(#clip_path_0)"/></g></svg>