<svg id="vector" xmlns="http://www.w3.org/2000/svg" width="24.0d" height="24.0d" viewBox="0 0 24.0 24.0">
<path fill="#DC0055" d="M14.656,2.898C16.816,3.564 18.629,5.022 19.757,6.933C18.617,6.881 17.446,6.839 16.249,6.809C16.056,5.96 15.81,5.18 15.52,4.491C15.27,3.899 14.982,3.36 14.656,2.898Z" id="path_0"/>
<path fill="#DC0055" d="M4.269,6.889C5.398,5 7.2,3.559 9.344,2.898C9.018,3.36 8.73,3.899 8.48,4.491C8.193,5.174 7.949,5.946 7.756,6.787C6.568,6.81 5.405,6.844 4.269,6.889Z" id="path_1"/>
<path fill="#DC0055" d="M3,11.5C3,12.582 3.191,13.618 3.541,14.579C4.815,14.635 6.129,14.679 7.476,14.707C7.329,13.696 7.25,12.617 7.25,11.5C7.25,10.383 7.329,9.304 7.476,8.293C6.129,8.322 4.815,8.365 3.541,8.421C3.191,9.381 3,10.418 3,11.5Z" id="path_2"/>
<path fill="#DC0055" d="M7.756,16.213C6.568,16.19 5.405,16.156 4.269,16.111C5.398,18 7.2,19.441 9.344,20.102C9.018,19.64 8.73,19.101 8.48,18.509C8.193,17.826 7.949,17.053 7.756,16.213Z" id="path_3"/>
<path fill="#DC0055" d="M13.49,19.15C13.338,19.375 13.182,19.567 13.025,19.724C12.64,20.112 12.294,20.25 12,20.25C11.706,20.25 11.36,20.112 10.974,19.724C10.586,19.334 10.202,18.731 9.863,17.927C9.651,17.424 9.464,16.858 9.305,16.237C10.029,16.246 10.761,16.25 11.5,16.25C11.868,16.25 12.234,16.249 12.598,16.247C12.743,17.264 13.047,18.243 13.49,19.15Z" id="path_4"/>
<path fill="#DC0055" d="M14.546,13.105C14.219,13.223 14,13.534 14,13.882V14.864C14,17.906 15.669,20.702 18.345,22.146C18.754,22.366 19.246,22.366 19.655,22.146C22.331,20.702 24,17.906 24,14.864V13.883C24,13.535 23.781,13.224 23.454,13.106L19.424,11.652C19.15,11.553 18.85,11.553 18.576,11.652L14.546,13.105Z" id="path_5"/>
<path fill="#DC0055" d="M20.957,10.61C20.883,9.866 20.72,9.149 20.477,8.469C19.201,8.405 17.882,8.354 16.528,8.317C16.638,9.084 16.71,9.889 16.737,10.721L18.067,10.241C18.67,10.024 19.33,10.024 19.933,10.241L20.957,10.61Z" id="path_6"/>
<path fill="#DC0055" d="M15.249,11.257L14.038,11.694C13.115,12.026 12.5,12.902 12.5,13.882V14.747C12.168,14.749 11.835,14.75 11.5,14.75C10.656,14.75 9.821,14.744 8.997,14.734C8.838,13.735 8.75,12.646 8.75,11.5C8.75,10.354 8.838,9.265 8.997,8.266C9.821,8.256 10.656,8.25 11.5,8.25C12.688,8.25 13.858,8.261 15.006,8.282C15.152,9.206 15.237,10.207 15.249,11.257Z" id="path_7"/>
<path fill="#DC0055" d="M14.137,5.074C14.35,5.579 14.539,6.151 14.699,6.777C13.649,6.759 12.582,6.75 11.5,6.75C10.761,6.75 10.029,6.754 9.305,6.763C9.464,6.142 9.651,5.576 9.863,5.074C10.202,4.269 10.586,3.666 10.975,3.276C11.36,2.888 11.706,2.75 12,2.75C12.294,2.75 12.64,2.888 13.026,3.276C13.414,3.666 13.798,4.269 14.137,5.074Z" id="path_8"/>
</svg>